<svg version="1.1" xmlns="http://www.w3.org/2000/svg" viewBox="-14.330606989342336 -23.59403795737899 25.090101564152086 51.08762837283824" fill="none" stroke="black" stroke-width="0.6%" vector-effect="non-scaling-stroke">
    <path d="M 5.09204 5.45426 L 5.09204 0.74987" />
    <path d="M 6.12989 -0.90412 A 10.05 7.97129 360 0 1 4.66659 6.77333 A 10.05 7.97129 360 0 1 -11.2278 6.77333 A 10.05 7.97129 360 0 1 -12.69111 -0.90412" />
    <path d="M -2.98165 9.42527 L 5.09204 5.45426" />
    <path d="M -11.3543 5.86496 L -2.98165 9.42527 L -2.98165 4.34095" />
    <path d="M -11.55258 0.86974 L -11.3543 5.86496 L -11.3543 1.0929" />
    <path d="M -13.28061 -3.58713 A 10 7.93163 180 0 0 6.71939 -3.58713" />
    <path d="M -5.6529 12.48563 A 3 2.37949 180 0 0 -0.90831 12.48563 L 4.66659 6.77333" />
    <path d="M -8.55066 -17.02703 A 10 7.93163 360 0 1 -7.28061 -17.5557" />
    <path d="M 0.71939 -17.5557 A 10 7.93163 360 0 1 6.71939 -10.28624 A 10 7.93163 360 0 1 -13.28061 -10.28624 A 10 7.93163 360 0 1 -8.55066 -17.02703" />
    <path d="M -7.31219 -15.44294 A 7.65 6.06769 360 0 1 -7.28061 -15.4584" />
    <path d="M 0.71939 -15.4584 A 7.65 6.06769 360 0 1 4.36534 -10.08868 A 7.65 6.06769 360 0 1 -10.92655 -10.08868 A 7.65 6.06769 360 0 1 -7.31219 -15.44294" />
    <path d="M 0.71939 -9.13418 A 7.4 5.8694 360 0 1 3.18796 -7.04686" />
    <path d="M -9.74917 -7.04686 A 7.4 5.8694 360 0 1 -7.28061 -9.13418" />
    <path d="M -4.91432 -21.51103 A 3.1 2.4588 360 0 1 -0.18061 -19.42139 A 3.1 2.4588 360 0 1 -6.38061 -19.42139 A 3.1 2.4588 360 0 1 -4.91432 -21.51103 Z" />
    <path d="M -1.31388 -19.49497 C -1.31 -19.5 -1.31 -19.51 -1.31336 -19.51631 C -1.31 -19.52 -1.31 -19.53 -1.31181 -19.53697 C -1.31 -19.54 -1.31 -19.55 -1.30922 -19.55691 C -1.31 -19.56 -1.31 -19.57 -1.3056 -19.57612 C -1.3 -19.58 -1.3 -19.59 -1.30096 -19.59458 C -1.3 -19.6 -1.3 -19.61 -1.2953 -19.61224 C -1.29 -19.62 -1.29 -19.62 -1.28862 -19.62909 C -1.29 -19.63 -1.28 -19.64 -1.28095 -19.6451 C -1.28 -19.65 -1.28 -19.66 -1.27228 -19.66024 C -1.27 -19.67 -1.27 -19.67 -1.26264 -19.67448 C -1.26 -19.68 -1.26 -19.68 -1.25204 -19.6878 C -1.25 -19.69 -1.24 -19.7 -1.2405 -19.70015 C -1.24 -19.7 -1.23 -19.71 -1.22804 -19.71151 C -1.22 -19.72 -1.22 -19.72 -1.21468 -19.72185 C -1.21 -19.73 -1.21 -19.73 -1.20044 -19.73113 C -1.2 -19.73 -1.19 -19.74 -1.18534 -19.73931 C -1.18 -19.74 -1.17 -19.74 -1.16884 -19.7466 C -1.16 -19.75 -1.16 -19.75 -1.15149 -19.75265 C -1.15 -19.75 -1.14 -19.76 -1.13331 -19.75741 C -1.13 -19.76 -1.12 -19.76 -1.11434 -19.76084 C -1.11 -19.76 -1.1 -19.76 -1.09463 -19.76291 C -1.09 -19.76 -1.08 -19.76 -1.0742 -19.76357 C -1.07 -19.76 -1.06 -19.76 -1.05309 -19.76279 C -1.05 -19.76 -1.04 -19.76 -1.03136 -19.76052 C -1.02 -19.76 -1.02 -19.76 -1.00904 -19.75671 C -1 -19.76 -0.99 -19.75 -0.98617 -19.75134 C -0.98 -19.75 -0.97 -19.75 -0.96281 -19.74435 C -0.95 -19.74 -0.95 -19.74 -0.93901 -19.7357 C -0.93 -19.73 -0.92 -19.73 -0.9148 -19.72536 C -0.91 -19.72 -0.9 -19.72 -0.89025 -19.71328 C -0.88 -19.71 -0.87 -19.7 -0.86541 -19.69942 C -0.86 -19.69 -0.85 -19.69 -0.84033 -19.68374 C -0.83 -19.68 -0.83 -19.68 -0.82382 -19.67249 C -0.82 -19.67 -0.81 -19.66 -0.8073 -19.66047 C -0.8 -19.66 -0.8 -19.65 -0.79078 -19.64768 C -0.79 -19.64 -0.78 -19.64 -0.7743 -19.63413 C -0.77 -19.63 -0.76 -19.62 -0.75787 -19.61983 C -0.75 -19.61 -0.75 -19.61 -0.74153 -19.60479 C -0.74 -19.6 -0.73 -19.59 -0.72529 -19.58902 C -0.72 -19.58 -0.71 -19.58 -0.70919 -19.57253 C -0.7 -19.57 -0.7 -19.56 -0.69323 -19.55533 C -0.69 -19.55 -0.68 -19.54 -0.67744 -19.53746 C -0.67 -19.53 -0.66 -19.51 -0.64646 -19.49972 C -0.63 -19.47 -0.61 -19.45 -0.58738 -19.41693 C -0.51 -19.3 -0.45 -19.16 -0.4033 -19.02367 C -0.37 -18.91 -0.34 -18.8 -0.31832 -18.69666" />
    <path d="M -0.58619 -18.20546 C -0.59 -18.21 -0.6 -18.22 -0.60914 -18.23428 C -0.62 -18.24 -0.62 -18.25 -0.63279 -18.26425 C -0.64 -18.27 -0.65 -18.28 -0.65708 -18.2953 C -0.67 -18.31 -0.67 -18.32 -0.68193 -18.32735 C -0.69 -18.34 -0.7 -18.35 -0.70729 -18.3603 C -0.72 -18.37 -0.72 -18.38 -0.73307 -18.39408 C -0.74 -18.41 -0.75 -18.42 -0.7592 -18.42859 C -0.77 -18.44 -0.78 -18.45 -0.78559 -18.46374 C -0.79 -18.48 -0.8 -18.49 -0.81219 -18.49951 C -0.82 -18.51 -0.83 -18.52 -0.83867 -18.53547 C -0.85 -18.55 -0.86 -18.56 -0.86496 -18.57155 C -0.87 -18.58 -0.88 -18.6 -0.891 -18.6077 C -0.9 -18.62 -0.91 -18.63 -0.91672 -18.64386 C -0.93 -18.66 -0.93 -18.67 -0.94207 -18.67999 C -0.95 -18.69 -0.96 -18.7 -0.96697 -18.71604 C -0.98 -18.73 -0.98 -18.74 -0.99139 -18.75197 C -1 -18.76 -1.01 -18.78 -1.01525 -18.78773 C -1.02 -18.8 -1.03 -18.81 -1.03851 -18.82329 C -1.05 -18.84 -1.05 -18.85 -1.06112 -18.85862 C -1.07 -18.87 -1.08 -18.88 -1.08301 -18.89367 C -1.09 -18.91 -1.1 -18.92 -1.10415 -18.92842 C -1.11 -18.94 -1.12 -18.95 -1.12448 -18.96284 C -1.13 -18.97 -1.14 -18.99 -1.14397 -18.99689 C -1.15 -19.01 -1.16 -19.02 -1.16256 -19.03055 C -1.17 -19.04 -1.17 -19.05 -1.18022 -19.06378 C -1.19 -19.07 -1.19 -19.09 -1.19692 -19.09658 C -1.2 -19.11 -1.21 -19.12 -1.21261 -19.12889 C -1.22 -19.14 -1.22 -19.15 -1.22726 -19.16072 C -1.25 -19.2 -1.26 -19.24 -1.27495 -19.28254 C -1.3 -19.36 -1.31 -19.43 -1.31388 -19.49497" />
    <path d="M -5.38863 -22.1177 A 4 3.17265 360 0 1 0.71939 -19.42139 L 0.71939 -5.11408" />
    <path d="M 0.71939 -19.42139 A 4 3.17265 360 0 1 -7.28061 -19.42139 L -7.28061 -5.11408" />
    <path d="M -7.28061 -19.42139 A 4 3.17265 360 0 1 -5.38863 -22.1177" />
    <path d="M -6.0451 -15.30137 C -6.05 -15.29 -6.05 -15.29 -6.04558 -15.28005 C -6.05 -15.27 -6.05 -15.27 -6.04699 -15.25947 C -6.05 -15.25 -6.05 -15.25 -6.04936 -15.23965 C -6.05 -15.23 -6.05 -15.23 -6.05266 -15.2206 C -6.05 -15.21 -6.06 -15.21 -6.0569 -15.20236 C -6.06 -15.2 -6.06 -15.19 -6.06208 -15.18495 C -6.06 -15.18 -6.07 -15.17 -6.06818 -15.16838 C -6.07 -15.16 -6.07 -15.16 -6.07521 -15.15269 C -6.08 -15.15 -6.08 -15.14 -6.08315 -15.13791 C -6.09 -15.13 -6.09 -15.13 -6.09199 -15.12405 C -6.1 -15.12 -6.1 -15.12 -6.10173 -15.11115 C -6.11 -15.11 -6.11 -15.1 -6.11234 -15.09924 C -6.12 -15.1 -6.12 -15.09 -6.12383 -15.08835 C -6.13 -15.08 -6.13 -15.08 -6.13617 -15.0785 C -6.14 -15.08 -6.14 -15.07 -6.14936 -15.06973 C -6.15 -15.07 -6.16 -15.06 -6.16336 -15.06208 C -6.17 -15.06 -6.17 -15.06 -6.17799 -15.05564 C -6.18 -15.05 -6.19 -15.05 -6.19339 -15.05035 C -6.2 -15.05 -6.2 -15.05 -6.20954 -15.04625 C -6.22 -15.05 -6.22 -15.04 -6.22641 -15.04337 C -6.23 -15.04 -6.24 -15.04 -6.24398 -15.04175 C -6.25 -15.04 -6.26 -15.04 -6.26224 -15.04142 C -6.27 -15.04 -6.27 -15.04 -6.28115 -15.04242 C -6.29 -15.04 -6.29 -15.04 -6.30069 -15.0448 C -6.31 -15.05 -6.31 -15.05 -6.31483 -15.04731 C -6.32 -15.05 -6.32 -15.05 -6.3293 -15.05056 C -6.33 -15.05 -6.34 -15.05 -6.3441 -15.05455 C -6.35 -15.06 -6.35 -15.06 -6.35918 -15.05929 C -6.36 -15.06 -6.37 -15.06 -6.37454 -15.06481 C -6.38 -15.07 -6.38 -15.07 -6.39014 -15.07112 C -6.4 -15.07 -6.4 -15.08 -6.40597 -15.07822 C -6.41 -15.08 -6.42 -15.08 -6.42199 -15.08611 C -6.43 -15.09 -6.43 -15.09 -6.43819 -15.09482 C -6.44 -15.1 -6.45 -15.1 -6.45454 -15.10434 C -6.46 -15.11 -6.47 -15.11 -6.47102 -15.11467 C -6.48 -15.12 -6.48 -15.12 -6.48759 -15.12581 C -6.49 -15.13 -6.5 -15.13 -6.50424 -15.13776 C -6.51 -15.14 -6.52 -15.15 -6.52094 -15.15052 C -6.53 -15.15 -6.53 -15.16 -6.53766 -15.16407 C -6.54 -15.17 -6.55 -15.17 -6.55439 -15.17843 C -6.56 -15.18 -6.57 -15.19 -6.57109 -15.19356 C -6.58 -15.2 -6.58 -15.2 -6.58774 -15.20947 C -6.6 -15.22 -6.61 -15.23 -6.62083 -15.24356 C -6.64 -15.27 -6.66 -15.29 -6.68548 -15.32034 C -6.73 -15.38 -6.77 -15.44 -6.80454 -15.50335 C -7.13 -16.13 -7.15 -16.82 -7.04606 -16.85675 C -7.04 -16.86 -7.04 -16.86 -7.03821 -16.85971 C -7.04 -16.86 -7.03 -16.86 -7.02971 -16.86118 C -7.03 -16.86 -7.02 -16.86 -7.02056 -16.86112 C -7.02 -16.86 -7.01 -16.86 -7.01073 -16.85951 C -7.01 -16.86 -7 -16.86 -7.00019 -16.85635 C -7 -16.86 -6.99 -16.85 -6.98894 -16.8516 C -6.99 -16.85 -6.98 -16.85 -6.97694 -16.84526 C -6.97 -16.84 -6.97 -16.84 -6.96419 -16.83731 C -6.96 -16.83 -6.96 -16.83 -6.95065 -16.82774 C -6.95 -16.82 -6.94 -16.82 -6.93632 -16.81655 C -6.93 -16.81 -6.93 -16.81 -6.92118 -16.80372 C -6.92 -16.8 -6.91 -16.79 -6.9052 -16.78924 C -6.9 -16.78 -6.89 -16.78 -6.88839 -16.77312 C -6.88 -16.77 -6.88 -16.76 -6.87071 -16.75535 C -6.86 -16.75 -6.86 -16.74 -6.85217 -16.73593 C -6.85 -16.73 -6.84 -16.72 -6.83275 -16.71486 C -6.83 -16.71 -6.82 -16.71 -6.82058 -16.70131 C -6.82 -16.7 -6.81 -16.69 -6.80812 -16.68719 C -6.8 -16.68 -6.79 -16.67 -6.78236 -16.65733 C -6.77 -16.65 -6.76 -16.64 -6.75556 -16.62537 C -6.75 -16.61 -6.74 -16.6 -6.7278 -16.59144 C -6.72 -16.58 -6.71 -16.57 -6.69919 -16.55568 C -6.69 -16.54 -6.68 -16.53 -6.66983 -16.51825 C -6.66 -16.51 -6.65 -16.49 -6.63986 -16.47929 C -6.63 -16.47 -6.62 -16.45 -6.60941 -16.43899 C -6.6 -16.43 -6.59 -16.41 -6.57861 -16.39751 C -6.57 -16.38 -6.56 -16.37 -6.54763 -16.35505 C -6.53 -16.33 -6.51 -16.3 -6.48575 -16.26791 C -6.44 -16.21 -6.4 -16.15 -6.36703 -16.09044 C -6.17 -15.78 -6.04 -15.5 -6.0451 -15.30137 Z" />
    <path d="M -6.0451 -12.25632 C -6.05 -12.25 -6.05 -12.24 -6.04558 -12.235 C -6.05 -12.23 -6.05 -12.22 -6.04699 -12.21442 C -6.05 -12.21 -6.05 -12.2 -6.04936 -12.1946 C -6.05 -12.19 -6.05 -12.18 -6.05266 -12.17555 C -6.05 -12.17 -6.06 -12.16 -6.0569 -12.15731 C -6.06 -12.15 -6.06 -12.15 -6.06208 -12.1399 C -6.06 -12.13 -6.07 -12.13 -6.06818 -12.12333 C -6.07 -12.12 -6.07 -12.11 -6.07521 -12.10764 C -6.08 -12.1 -6.08 -12.1 -6.08315 -12.09286 C -6.09 -12.09 -6.09 -12.08 -6.09199 -12.079 C -6.1 -12.07 -6.1 -12.07 -6.10173 -12.0661 C -6.11 -12.06 -6.11 -12.06 -6.11234 -12.05419 C -6.12 -12.05 -6.12 -12.05 -6.12383 -12.0433 C -6.13 -12.04 -6.13 -12.04 -6.13617 -12.03345 C -6.14 -12.03 -6.14 -12.03 -6.14936 -12.02468 C -6.15 -12.02 -6.16 -12.02 -6.16336 -12.01703 C -6.17 -12.01 -6.17 -12.01 -6.17799 -12.01059 C -6.18 -12.01 -6.19 -12.01 -6.19339 -12.0053 C -6.2 -12 -6.2 -12 -6.20954 -12.0012 C -6.22 -12 -6.22 -12 -6.22641 -11.99832 C -6.23 -12 -6.24 -12 -6.24398 -11.9967 C -6.25 -12 -6.26 -12 -6.26224 -11.99637 C -6.27 -12 -6.27 -12 -6.28115 -11.99737 C -6.29 -12 -6.29 -12 -6.30069 -11.99975 C -6.31 -12 -6.31 -12 -6.31483 -12.00226 C -6.32 -12 -6.32 -12 -6.3293 -12.00551 C -6.33 -12.01 -6.34 -12.01 -6.3441 -12.0095 C -6.35 -12.01 -6.35 -12.01 -6.35918 -12.01424 C -6.36 -12.02 -6.37 -12.02 -6.37454 -12.01976 C -6.38 -12.02 -6.38 -12.02 -6.39014 -12.02607 C -6.4 -12.03 -6.4 -12.03 -6.40597 -12.03317 C -6.41 -12.04 -6.42 -12.04 -6.42199 -12.04107 C -6.43 -12.04 -6.43 -12.05 -6.43819 -12.04977 C -6.44 -12.05 -6.45 -12.06 -6.45454 -12.05929 C -6.46 -12.06 -6.47 -12.07 -6.47102 -12.06962 C -6.48 -12.07 -6.48 -12.08 -6.48759 -12.08076 C -6.49 -12.08 -6.5 -12.09 -6.50424 -12.09271 C -6.51 -12.1 -6.52 -12.1 -6.52094 -12.10547 C -6.53 -12.11 -6.53 -12.11 -6.53766 -12.11903 C -6.54 -12.12 -6.55 -12.13 -6.55439 -12.13338 C -6.56 -12.14 -6.57 -12.14 -6.57109 -12.14851 C -6.58 -12.15 -6.58 -12.16 -6.58774 -12.16442 C -6.6 -12.18 -6.61 -12.19 -6.62083 -12.19851 C -6.64 -12.22 -6.66 -12.25 -6.68548 -12.27529 C -6.73 -12.33 -6.77 -12.39 -6.80454 -12.4583 C -7.13 -13.09 -7.15 -13.77 -7.04606 -13.8117 C -7.04 -13.81 -7.04 -13.81 -7.03821 -13.81466 C -7.04 -13.82 -7.03 -13.82 -7.02971 -13.81613 C -7.03 -13.82 -7.02 -13.82 -7.02056 -13.81607 C -7.02 -13.82 -7.01 -13.82 -7.01073 -13.81446 C -7.01 -13.81 -7 -13.81 -7.00019 -13.8113 C -7 -13.81 -6.99 -13.81 -6.98894 -13.80655 C -6.99 -13.8 -6.98 -13.8 -6.97694 -13.80021 C -6.97 -13.8 -6.97 -13.8 -6.96419 -13.79226 C -6.96 -13.79 -6.96 -13.79 -6.95065 -13.78269 C -6.95 -13.78 -6.94 -13.78 -6.93632 -13.7715 C -6.93 -13.77 -6.93 -13.76 -6.92118 -13.75867 C -6.92 -13.75 -6.91 -13.75 -6.9052 -13.7442 C -6.9 -13.74 -6.89 -13.73 -6.88839 -13.72808 C -6.88 -13.72 -6.88 -13.72 -6.87071 -13.71031 C -6.86 -13.7 -6.86 -13.7 -6.85217 -13.69088 C -6.85 -13.68 -6.84 -13.68 -6.83275 -13.66981 C -6.83 -13.67 -6.82 -13.66 -6.82058 -13.65626 C -6.82 -13.65 -6.81 -13.65 -6.80812 -13.64215 C -6.8 -13.63 -6.79 -13.62 -6.78236 -13.61228 C -6.77 -13.6 -6.76 -13.59 -6.75556 -13.58032 C -6.75 -13.57 -6.74 -13.56 -6.7278 -13.54639 C -6.72 -13.53 -6.71 -13.52 -6.69919 -13.51063 C -6.69 -13.5 -6.68 -13.49 -6.66983 -13.4732 C -6.66 -13.46 -6.65 -13.45 -6.63986 -13.43425 C -6.63 -13.42 -6.62 -13.41 -6.60941 -13.39394 C -6.6 -13.38 -6.59 -13.37 -6.57861 -13.35247 C -6.57 -13.34 -6.56 -13.32 -6.54763 -13.31 C -6.53 -13.28 -6.51 -13.25 -6.48575 -13.22286 C -6.44 -13.16 -6.4 -13.1 -6.36703 -13.04539 C -6.17 -12.74 -6.04 -12.45 -6.0451 -12.25632 Z" />
    <path d="M 9.15949 21.39492 A 2.5 1.98291 360 0 1 9.75949 22.68365 L 9.75949 24.51068" />
    <path d="M 9.75949 22.68365 A 2.5 1.98291 360 0 1 4.75949 22.68365 L 4.75949 24.51068 A 2.5 1.98291 180 0 0 9.75949 24.51068" />
    <path d="M 4.75949 22.68365 A 2.5 1.98291 360 0 1 5.35949 21.39492" />
    <path d="M 9.15949 22.68365 A 1.9 1.50701 360 0 1 5.35949 22.68365" />
    <path d="M 6.25818 17.13983 A 1.9 1.50701 360 0 1 9.15949 18.42058 L 9.15949 22.68365" />
    <path d="M 9.15949 18.42058 A 1.9 1.50701 360 0 1 5.35949 18.42058 L 5.35949 22.68365" />
    <path d="M 5.35949 18.42058 A 1.9 1.50701 360 0 1 6.25818 17.13983" />
    <path d="M -5.6529 12.48563 L -11.2278 6.77333" />
    <path d="M -13.28061 -10.28624 L -13.28061 -3.58713" />
    <path d="M 6.71939 -10.28624 L 6.71939 -3.58713" />
</svg>