<svg version="1.1" xmlns="http://www.w3.org/2000/svg" viewBox="-11.050001 -17.856948328934795 22.100002 32.92527691734715" fill="none" stroke="black" stroke-width="0.6%" vector-effect="non-scaling-stroke">
    <path d="M 9.1763 4.90741 L 9.1763 0.90822" />
    <path d="M 9.49507 0.22727 A 10.05 8.17707 360 0 1 7.56982 8.28552 A 10.05 8.17707 360 0 1 -7.56982 8.28552 A 10.05 8.17707 360 0 1 -9.49507 0.22727" />
    <path d="M 2.45878 10.37304 L 9.1763 4.90741" />
    <path d="M -6.71751 8.37248 L 2.45878 10.37304 L 2.45878 5.56113" />
    <path d="M -9.17463 0.91134 L -6.71751 8.37248 L -6.71751 3.70176" />
    <path d="M -10 -2.32548 A 10 8.13639 180 0 0 10 -2.32548" />
    <path d="M -2.25965 13.23298 A 3 2.44092 180 0 0 2.25965 13.23298 L 7.56982 8.28552" />
    <path d="M -7.07107 -14.47385 A 10 8.13639 360 0 1 10 -8.72056 L 10 -2.32548" />
    <path d="M 10 -8.72056 A 10 8.13639 360 0 1 -10 -8.72056 L -10 -2.32548" />
    <path d="M -10 -8.72056 A 10 8.13639 360 0 1 -7.07107 -14.47385" />
    <path d="M -5.51543 -13.20813 A 7.8 6.34638 360 0 1 7.79312 -8.4541 A 7.8 6.34638 360 0 1 -7.79312 -8.4541 A 7.8 6.34638 360 0 1 -5.51543 -13.20813 Z" />
    <path d="M -5.3033 -7.22182 A 7.5 6.10229 360 0 1 -4 -8.06881" />
    <path d="M 4 -8.06881 A 7.5 6.10229 360 0 1 6.75855 -5.55237" />
    <path d="M -6.75855 -5.55237 A 7.5 6.10229 360 0 1 -5.3033 -7.22182" />
    <path d="M -2.82843 -13.92873 A 4 3.25456 360 0 1 4 -11.62741 L 4 -3.27221" />
    <path d="M 4 -11.62741 A 4 3.25456 360 0 1 -4 -11.62741 L -4 -3.27221" />
    <path d="M -4 -11.62741 A 4 3.25456 360 0 1 -2.82843 -13.92873" />
    <path d="M -2.19203 -13.41093 A 3.1 2.52228 360 0 1 3.1 -11.62741 A 3.1 2.52228 360 0 1 -3.1 -11.62741 A 3.1 2.52228 360 0 1 -2.19203 -13.41093 Z" />
    <path d="M -2.25965 13.23298 L -7.56982 8.28552" />
</svg>