<svg viewBox="0 0 800 800" xmlns="http://www.w3.org/2000/svg"><path d="M247.72693758432706,765.4640839971022 L247.66954853442107,730.480867017239 M247.66954853442107,730.480867017239 L254.00592953802635,735.1308478115083 M254.00592953802635,735.1308478115083 L258.21617141565946,740.5185776879764 M258.21617141565946,740.5185776879764 L260.05501596221313,746.3313097090775 M260.05501596221313,746.3313097090775 L259.41482250168156,752.2314001742693 M259.41482250168156,752.2314001742693 L256.3319611134185,757.8759024404488 M256.3319611134185,757.8759024404488 L250.9849514152445,762.9364905252173 M250.9849514152445,762.9364905252173 L243.68412018191913,767.1186615099784 M243.68412018191913,767.1186615099784 L234.85379864519345,770.1788681369329 M234.85379864519345,770.1788681369329 L225.00752251003246,771.9388618420286 M225.00752251003246,771.9388618420286 L214.71823712653512,772.2960661392132 M214.71823712653512,772.2960661392132 L204.58473917369832,771.2296711527379 M204.58473917369832,771.2296711527379 L195.19672290301406,768.8018196029236 M195.19672290301406,768.8018196029236 L187.10031375063969,765.1539795330201 M187.10031375063969,765.1539795330201 L180.76627625275236,760.4985927622612 M180.76627625275236,760.4985927622612 L176.56248582910263,755.1066953625536 M176.56248582910263,755.1066953625536 L174.7327227617604,749.2919889866686 M174.7327227617604,749.2919889866686 L175.38254727030966,743.3925696389227 M175.38254727030966,743.3925696389227 L178.47338291510238,737.7512302244202 M178.47338291510238,737.7512302244202 L183.82488325908625,732.6955721414236 M183.82488325908625,732.6955721414236 L191.125692788195,728.5189689232596 M191.125692788195,728.5189689232596 L199.95148524226747,725.4636922967827 M199.95148524226747,725.4636922967827 L209.78976246009452,723.7068614558139 M209.78976246009452,723.7068614558139 L220.069411560969,723.3503282766569 M220.069411560969,723.3503282766569 L230.19384342660743,724.4147489018588 M230.19384342660743,724.4147489018588 L239.57544073681703,726.8384329120684 M239.57544073681703,726.8384329120684 L247.66954853442107,730.480867017239 M247.72693758432706,765.4640839971022 L239.63553926537136,761.8204051072254 M239.63553926537136,761.8204051072254 L230.2570841392942,759.3958927189615 M230.2570841392942,759.3958927189615 L220.13604492528216,758.3311082669953 M220.13604492528216,758.3311082669953 L209.85984229501327,758.6877633134422 M209.85984229501327,758.6877633134422 L200.02486562346402,760.4451946360261 M200.02486562346402,760.4451946360261 L191.20203642353752,763.5015154550925 M191.20203642353752,763.5015154550925 L183.90368091577113,767.6795459021159 M183.90368091577113,767.6795459021159 L178.55398273312696,772.7369313015628 M178.55398273312696,772.7369313015628 L175.4641924110234,778.3801977446417 M175.4641924110234,778.3801977446417 L174.81459516743104,784.2816318366109 M174.81459516743104,784.2816318366109 L176.6437536863254,790.0983235836785 M176.6437536863254,790.0983235836785 L180.846142360269,795.49206159852 M180.846142360269,795.49206159852 L187.17806200862583,800.1490372604044 M187.17806200862583,800.1490372604044 L195.27176014600423,803.7981221474442 M195.27176014600423,803.7981221474442 L204.65662993310372,806.2268021003138 M204.65662993310372,806.2268021003138 L214.7867291566912,807.2935609253972 M214.7867291566912,807.2935609253972 L225.07256160609987,806.9362347568967 M225.07256160609987,806.9362347568967 L234.91553182634925,805.1756405512122 M234.91553182634925,805.1756405512122 L243.7428870650434,802.1143897020936 M243.7428870650434,802.1143897020936 L251.0412642551964,797.9307914550718 M251.0412642551964,797.9307914550718 L256.3864747972565,792.8684760242774 M256.3864747972565,792.8684760242774 L259.46829620665983,787.2220467105469 M259.46829620665983,787.2220467105469 L260.10826886045186,781.3199414971057 M260.10826886045186,781.3199414971057 L258.2700349554499,775.5052241166666 M258.2700349554499,775.5052241166666 L254.06119915965763,770.1156536500662 M254.06119915965763,770.1156536500662 L247.72693758432706,765.4640839971022 M235.05765965176977,737.7005957099611 L238.75360227737488,740.4137382139947 M238.75360227737488,740.4137382139947 L241.208778675527,743.5570950812598 M241.208778675527,743.5570950812598 L242.28034767364116,746.9480880779709 M242.28034767364116,746.9480880779709 L241.90572894023953,750.3897266323962 M241.90572894023953,750.3897266323962 L240.10641736948867,753.6819722352151 M240.10641736948867,753.6819722352151 L236.98678791385015,756.6333802857782 M236.98678791385015,756.6333802857782 L232.72797202768388,759.0723028506438 M232.72797202768388,759.0723028506438 L227.57750550968913,760.8568203449713 M227.57750550968913,760.8568203449713 L221.83481052216018,761.8831021140198 M221.83481052216018,761.8831021140198 L215.83389812109579,762.0913907855863 M215.83389812109579,762.0913907855863 L209.92380618460518,761.4695597803654 M209.92380618460518,761.4695597803654 L204.4482294926921,760.0538283605039 M204.4482294926921,760.0538283605039 L199.72560865153096,757.9265765089235 M199.72560865153096,757.9265765089235 L196.0304634648978,755.2115944730442 M196.0304634648978,755.2115944730442 L193.577482363247,752.0668194869191 M193.577482363247,752.0668194869191 L192.50900358217774,748.6751546630588 M192.50900358217774,748.6751546630588 L192.8868995480919,745.2337444746333 M192.8868995480919,745.2337444746333 L194.6889245831679,741.9425751213516 M194.6889245831679,741.9425751213516 L197.81008210497347,738.9928446398129 M197.81008210497347,738.9928446398129 L202.06889060543983,736.5558166619974 M202.06889060543983,736.5558166619974 L207.21781597781165,734.7729767336174 M207.21781597781165,734.7729767336174 L212.95778910964214,733.7477712203057 M212.95778910964214,733.7477712203057 L218.9554224974331,733.5397109165036 M218.9554224974331,733.5397109165036 L224.86242945481817,734.1608700826719 M224.86242945481817,734.1608700826719 L230.33582190696993,735.5751833902667 M230.33582190696993,735.5751833902667 L235.05765965176977,737.7005957099611 M235.05765965176977,737.7005957099611 L234.9754272425552,691.0164913670377 M234.9754272425552,691.0164913670377 L238.67301934654483,693.7283952012075 M238.67301934654483,693.7283952012075 L241.12928950817783,696.8703171460338 M241.12928950817783,696.8703171460338 L242.20133283575709,700.2597623677977 M242.20133283575709,700.2597623677977 L241.82654117682424,703.6998302343284 M241.82654117682424,703.6998302343284 L240.02641922614927,706.9905735208113 M240.02641922614927,706.9905735208113 L236.90538884171718,709.940634945428 M236.90538884171718,709.940634945428 L232.64466276026192,712.378444827646 M232.64466276026192,712.378444827646 L227.4918878075218,714.1621482565508 M227.4918878075218,714.1621482565508 L221.7466204056751,715.1879618789193 M221.7466204056751,715.1879618789193 L215.74302133381602,715.3961555401597 M215.74302133381602,715.3961555401597 L209.83028486355855,714.7746081837317 M209.83028486355855,714.7746081837317 L204.35225968286585,713.3595225760484 M204.35225968286585,713.3595225760484 L199.62752887709797,711.2332411751477 M199.62752887709797,711.2332411751477 L195.93073492920394,708.519497825816 M195.93073492920394,708.519497825816 L193.47666203189905,705.376157774991 M193.47666203189905,705.376157774991 L192.40771168907037,701.9860407321712 M192.40771168907037,701.9860407321712 L192.7857835140762,698.5462012295695 M192.7857835140762,698.5462012295695 L194.58862135643983,695.2565341828622 M194.58862135643983,695.2565341828622 L197.71118117211873,692.3081503120551 M197.71118117211873,692.3081503120551 L201.97189985795373,689.8722349997042 M201.97189985795373,689.8722349997042 L207.1231322824231,688.0902091215322 M207.1231322824231,688.0902091215322 L212.86567538993665,687.0654717451393 M212.86567538993665,687.0654717451393 L218.86599251257,686.8575064495922 M218.86599251257,686.8575064495922 L224.7756412430516,687.4783819730608 M224.7756412430516,687.4783819730608 L230.25148023100738,688.8920494813389 M230.25148023100738,688.8920494813389 L234.9754272425552,691.0164913670377" stroke="black"  stroke-width="4"  fill="red"/>
<path d="M519.4641115178961,329.8605937232754 L519.5879195408008,200.98108030371242 M519.5879195408008,200.98108030371242 L537.3350803259971,213.2400762080614 M537.3350803259971,213.2400762080614 L550.5404900873698,227.23344591508175 M550.5404900873698,227.23344591508175 L558.6938967766805,242.42579863320668 M558.6938967766805,242.42579863320668 L561.4778124265167,258.23489778379576 M561.4778124265167,258.23489778379576 L558.7803402104576,274.0537686457777 M558.7803402104576,274.0537686457777 L550.7002167465707,289.27394884314305 M550.7002167465707,289.27394884314305 L537.5437733511476,303.3089653527708 M537.5437733511476,303.3089653527708 L519.8138073542988,315.61708705195133 M519.8138073542988,315.61708705195133 L498.1906752945825,325.72252010392117 M498.1906752945825,325.72252010392117 L473.50631303441384,333.2341173042218 M473.50631303441384,333.2341173042218 L446.71212221247526,337.86083088819686 M446.71212221247526,337.86083088819686 L418.8419547206846,339.4232691011538 M418.8419547206846,339.4232691011538 L390.9717872288939,337.86083088819686 M390.9717872288939,337.86083088819686 L364.1775964069553,333.2341173042218 M364.1775964069553,333.2341173042218 L339.4932341467867,325.72252010392117 M339.4932341467867,325.72252010392117 L317.87010208707005,315.617087051951 M317.87010208707005,315.617087051951 L300.1401360902214,303.3089653527708 M300.1401360902214,303.3089653527708 L286.9836926947985,289.27394884314305 M286.9836926947985,289.27394884314305 L278.90356923091167,274.0537686457777 M278.90356923091167,274.0537686457777 L276.2060970148524,258.23489778379576 M276.2060970148524,258.23489778379576 L278.99001266468866,242.42579863320668 M278.99001266468866,242.42579863320668 L287.1434193539994,227.23344591508175 M287.1434193539994,227.23344591508175 L300.3488291153722,213.2400762080614 M300.3488291153722,213.2400762080614 L318.0959899005687,200.98108030371208 M318.0959899005687,200.98108030371208 L339.70192737223493,190.92477309032353 M339.70192737223493,190.92477309032353 L364.3373233494196,183.45482281003115 M364.3373233494196,183.45482281003115 L391.05823086296846,178.85593682357535 M391.05823086296846,178.85593682357535 L418.84195472068456,177.3032703644073 M418.84195472068456,177.3032703644073 L446.6256785784007,178.85593682357535 M446.6256785784007,178.85593682357535 L473.34658609194963,183.45482281003115 M473.34658609194963,183.45482281003115 L497.98198206913423,190.92477309032353 M497.98198206913423,190.92477309032353 L519.5879195408008,200.98108030371242 M519.4641115178961,329.8605937232754 L497.88474496886533,319.7913242229187 M497.88474496886533,319.7913242229187 L473.27962757613375,312.3117422435029 M473.27962757613375,312.3117422435029 L446.5915495571158,307.7069251513691 M446.5915495571158,307.7069251513691 L418.84195472068456,306.1522560145874 M418.84195472068456,306.1522560145874 L391.0923598842534,307.7069251513691 M391.0923598842534,307.7069251513691 L364.4042818652354,312.3117422435029 M364.4042818652354,312.3117422435029 L339.79916447250383,319.7913242229187 M339.79916447250383,319.7913242229187 L318.21979792347275,329.8605937232757 M318.21979792347275,329.8605937232757 L300.4944817265385,342.1353845322455 M300.4944817265385,342.1353845322455 L287.3053483927442,356.1467749284338 M287.3053483927442,356.1467749284338 L279.16201767551587,371.3586817170721 M279.16201767551587,371.3586817170721 L276.38158011906495,387.1881169568442 M276.38158011906495,387.1881169568442 L279.0757868114593,403.02732443669026 M279.0757868114593,403.02732443669026 L287.1460145113291,418.26706021009875 M287.1460145113291,418.26706021009875 L300.28630189072004,432.3200996620112 M300.28630189072004,432.3200996620112 L317.9944655826447,444.6440189234417 M317.9944655826447,444.6440189234417 L339.5909844373718,454.76241691989327 M339.5909844373718,454.76241691989327 L364.2449477019483,462.28364807216127 M364.2449477019483,462.28364807216127 L391.00612882088325,466.91629426707055 M391.00612882088325,466.91629426707055 L418.8419547206846,468.4807356862084 M418.8419547206846,468.4807356862084 L446.677780620486,466.91629426707055 M446.677780620486,466.91629426707055 L473.43896173942085,462.28364807216127 M473.43896173942085,462.28364807216127 L498.09292500399744,454.76241691989327 M498.09292500399744,454.76241691989327 L519.6894438587258,444.6440189234408 M519.6894438587258,444.6440189234408 L537.3976075506491,432.3200996620112 M537.3976075506491,432.3200996620112 L550.53789493004,418.26706021009886 M550.53789493004,418.26706021009886 L558.6081226299098,403.02732443669026 M558.6081226299098,403.02732443669026 L561.3023293223043,387.1881169568442 M561.3023293223043,387.1881169568442 L558.5218917658533,371.3586817170721 M558.5218917658533,371.3586817170721 L550.378561048625,356.14677492843396 M550.378561048625,356.14677492843396 L537.1894277148308,342.1353845322455 M537.1894277148308,342.1353845322455 L519.4641115178961,329.8605937232754 M493.4156577491154,215.85474697947097 L508.1584590561359,226.34123888955224 M508.1584590561359,226.34123888955224 L518.4307971823293,238.4310214792307 M518.4307971823293,238.4310214792307 L523.715047576303,251.51967288014202 M523.715047576303,251.51967288014202 L523.742572532476,264.9518851630869 M523.742572532476,264.9518851630869 L518.5079203948922,278.05411053091865 M518.5079203948922,278.05411053091865 L508.26990535527415,290.1683525732796 M508.26990535527415,290.1683525732796 L493.5393538488011,300.68534494120087 M493.5393538488011,300.68534494120087 L475.05400305800003,309.07546192190546 M475.05400305800003,309.07546192190546 L453.74169067636245,314.9157274097751 M453.74169067636245,314.9157274097751 L430.6736453274395,317.91147361188706 M430.6736453274395,317.91147361188706 L407.0102641139297,317.91147361188706 M407.0102641139297,317.91147361188706 L383.9422187650067,314.9157274097751 M383.9422187650067,314.9157274097751 L362.6299063833691,309.07546192190546 M362.6299063833691,309.07546192190546 L344.1445555925679,300.68534494120087 M344.1445555925679,300.68534494120087 L329.414004086095,290.1683525732796 M329.414004086095,290.1683525732796 L319.17598904647707,278.05411053091865 M319.17598904647707,278.05411053091865 L313.9413369088932,264.9518851630869 M313.9413369088932,264.9518851630869 L313.968861865066,251.51967288014202 M313.968861865066,251.51967288014202 L319.2531122590397,238.4310214792307 M319.2531122590397,238.4310214792307 L329.5254503852332,226.34123888955224 M329.5254503852332,226.34123888955224 L344.2682516922539,215.85474697947097 M344.2682516922539,215.85474697947097 L362.7413527489167,207.49513047240168 M362.7413527489167,207.49513047240168 L384.01934206038067,201.67932447410607 M384.01934206038067,201.67932447410607 L407.03778910695695,198.6971522706744 M407.03778910695695,198.6971522706744 L430.64612033441216,198.6971522706744 M430.64612033441216,198.6971522706744 L453.6645673809885,201.67932447410607 M453.6645673809885,201.67932447410607 L474.94255669245246,207.49513047240168 M474.94255669245246,207.49513047240168 L493.4156577491154,215.85474697947097 M288.06524524522183,407.1523408464372 L383.76315323558174,461.77489286715576 M323.24556577959225,332.72392753273465 L288.06524524522183,407.1523408464372 M453.8190748932959,312.81754231191206 L323.24556577959225,332.72392753273465 M549.5169830824836,367.2394155905406 L453.8190748932959,312.81754231191206 M514.6417060745721,441.7681681733807 L549.5169830824836,367.2394155905406 M383.76315323558174,461.77489286715576 L514.6417060745721,441.7681681733807 M493.4156577491154,215.85474697947097 L492.694280959854,239.71512450951553 M492.694280959854,239.71512450951553 L491.97322039297376,263.56519863059 M491.97322039297376,263.56519863059 L491.2524662471263,287.4049814708259 M491.2524662471263,287.4049814708259 L490.5320231212266,311.2344769640415 M490.5320231212266,311.2344769640415 L489.81189561037525,335.05368903557905 M489.81189561037525,335.05368903557905 L504.28302409621216,345.4597818231816 M504.28302409621216,345.4597818231816 L514.1559559427326,357.4881593228202 M514.1559559427326,357.4881593228202 L518.8957992360695,370.4921660802677 M518.8957992360695,370.4921660802677 L518.2432791418757,383.77168127826855 M518.2432791418757,383.77168127826855 L512.2294615531162,396.6106661316533 M512.2294615531162,396.6106661316533 L501.1750002989528,408.3158089075841 M501.1750002989528,408.3158089075841 L485.67358489381076,418.2541303013259 M485.67358489381076,418.2541303013259 L466.5604096326397,425.88752548758885 M466.5604096326397,425.88752548758885 L444.8672762199618,430.8022762331051 M444.8672762199618,430.8022762331051 L421.76665069950997,432.7318168421772 M421.76665069950997,432.7318168421772 L398.5078386094023,431.5714567157549 M398.5078386094023,431.5714567157549 L376.34877482068873,427.3841566158504 M376.34877482068873,427.3841566158504 L356.4873584411312,420.3970524746079 M356.4873584411312,420.3970524746079 L339.9961598933142,410.98891786678416 M339.9961598933142,410.98891786678416 L327.7642174935819,399.6692883037196 M327.7642174935819,399.6692883037196 L320.4491142278485,387.05049441234354 M320.4491142278485,387.05049441234354 L318.4419068812164,373.81421251035147 M318.4419068812164,373.81421251035147 L321.8467585850606,360.6744132595555 M321.8467585850606,360.6744132595555 L330.47619272781174,348.3387952859331 M330.47619272781174,348.3387952859331 L343.86201466167205,337.47076641456135 M343.86201466167205,337.47076641456135 L361.28119839277304,328.65403258611815 M361.28119839277304,328.65403258611815 L381.7951470679056,322.36158481860673 M381.7951470679056,322.36158481860673 L404.30020251990373,318.9307053400298 M404.30020251990373,318.9307053400298 L427.5866694121629,318.5451927027209 M427.5866694121629,318.5451927027209 L450.4032453908614,321.2256861465313 M450.4032453908614,321.2256861465313 L471.5236409880332,326.8286101758198 M471.5236409880332,326.8286101758198 L489.81189561037525,335.05368903557905 M383.76315323558174,461.77489286715576 L383.7592237282383,450.05631837899995 M288.05061128601756,395.44011154501135 L383.7592237282383,450.05631837899995 M288.06524524522183,407.1523408464372 L288.05061128601756,395.44011154501135 M323.23488402207045,321.020365085884 L288.05061128601756,395.44011154501135 M323.24556577959225,332.72392753273465 L323.23488402207045,321.020365085884 M453.8229816518221,301.11630196724553 L323.23488402207045,321.020365085884 M453.8190748932959,312.81754231191206 L453.8229816518221,301.11630196724553 M549.5315942929594,355.5318309674166 L453.8229816518221,301.11630196724553 M549.5169830824836,367.2394155905406 L549.5315942929594,355.5318309674166 M514.6524333296368,430.05191624152343 L549.5315942929594,355.5318309674166 M514.6417060745721,441.7681681733807 L514.6524333296368,430.05191624152343 M383.7592237282383,450.05631837899995 L514.6524333296368,430.05191624152343" stroke="black"  stroke-width="4"  fill="red"/>
<path d="M383.7984792296961,567.1240517334045 L425.0979300789979,560.7978757016466 M425.09863007796554,549.1036220262749 L425.0979300789979,560.7978757016466 M425.09863007796554,549.1036220262749 L466.392553962863,542.7797292520629 M466.38723463913743,554.4732538603196 L466.392553962863,542.7797292520629 M466.38723463913743,554.4732538603196 L514.5452687654524,547.0964933114649 M514.5452687654524,547.0964933114649 L514.6524333296368,430.05191624152343 M383.7592237282383,450.05631837899995 L514.6524333296368,430.05191624152343 M383.7984792296961,567.1240517334045 L383.7592237282383,450.05631837899995 M323.341594296861,437.9384248889275 L288.1968036637329,512.4445821755837 M453.7839532955198,418.0112096753152 L323.341594296861,437.9384248889275 M549.3856290595122,472.48999301991 L453.7839532955198,418.0112096753152 M538.3943251617754,496.02656580923673 L549.3856290595122,472.48999301991 M425.0979300789979,560.7978757016466 L538.3943251617754,496.02656580923673 M288.1968036637329,512.4445821755837 L383.7984792296961,567.1240517334045 M432.92842693975996,484.4175671119947 L435.8909286173664,486.5755718397217 M435.8909286173664,486.5755718397217 L437.86293990406966,489.07570286937005 M437.86293990406966,489.07570286937005 L438.72973527689794,491.77274000717614 M438.72973527689794,491.77274000717614 L438.4407697868652,494.50997782538406 M438.4407697868652,494.50997782538406 L437.01265912701996,497.12832465225137 M437.01265912701996,497.12832465225137 L434.52825088801876,499.4755535511041 M434.52825088801876,499.4755535511041 L431.1318463838602,501.41516132082484 M431.1318463838602,501.41516132082484 L427.02083251508,502.8343218645417 M427.02083251508,502.8343218645417 L422.43420960775165,503.65046727917 M422.43420960775165,503.65046727917 L417.63868341421994,503.81610794099845 M417.63868341421994,503.81610794099845 L412.9131333283118,503.32160436367093 M412.9131333283118,503.32160436367093 L408.53235979865696,502.1957326113694 M408.53235979865696,502.1957326113694 L404.75107487119305,500.50400129593515 M404.75107487119305,500.50400129593515 L401.7890780613221,498.34482717880434 M401.7890780613221,498.34482717880434 L399.8184657176636,495.84379465306097 M399.8184657176636,495.84379465306097 L398.9536428831,493.1463304338441 M398.9536428831,493.1463304338441 L399.2447026220061,490.4092377884154 M399.2447026220061,490.4092377884154 L400.6745494733967,487.7915751311544 M400.6745494733967,487.7915751311544 L403.159938106269,485.4454126636364 M403.159938106269,485.4454126636364 L406.55634261047766,483.50700928061127 M406.55634261047766,483.50700928061127 L410.66637608544386,482.08891516845216 M410.66637608544386,482.08891516845216 L415.25126280119116,481.27345392342505 M415.25126280119116,481.27345392342505 L420.04469474575217,481.10795843445044 M420.04469474575217,481.10795843445044 L424.76827229332065,481.6020349299979 M424.76827229332065,481.6020349299979 L429.1476468799428,482.72700518583383 M429.1476468799428,482.72700518583383 L432.92842693975996,484.4175671119947 M538.3943251617754,496.02656580923673 L538.4076853880504,484.3397868351367 M538.4076853880504,484.3397868351367 L425.09863007796554,549.1036220262749 M527.4050867918752,507.89520435921406 L538.4076853880504,484.3397868351367 M466.392553962863,542.7797292520629 L527.4050867918752,507.89520435921406 M527.3929504340579,519.5847040857062 L466.38723463913743,554.4732538603196 M527.4050867918752,507.89520435921406 L527.3929504340579,519.5847040857062 M514.5452687654524,547.0964933114649 L527.3929504340579,519.5847040857062 M549.3856290595122,472.48999301991 L549.5315942929594,355.5318309674166 M514.6524333296368,430.05191624152343 L549.5315942929594,355.5318309674166 M288.05061128601756,395.44011154501135 L383.7592237282383,450.05631837899995 M323.23488402207045,321.020365085884 L288.05061128601756,395.44011154501135 M549.5315942929594,355.5318309674166 L453.8229816518221,301.11630196724553 M453.8229816518221,301.11630196724553 L323.23488402207045,321.020365085884 M451.5724946010243,356.8348748379993 L458.4581995608506,361.8369275081933 M458.4581995608506,361.8369275081933 L463.04335343311124,367.6326953486487 M463.04335343311124,367.6326953486487 L465.06084048903676,373.8857629515326 M465.06084048903676,373.8857629515326 L464.3925009922392,380.23292107524054 M464.3925009922392,380.23292107524054 L461.0762080582634,386.305231813605 M461.0762080582634,386.305231813605 L455.3038892939613,391.7494787168998 M455.3038892939613,391.7494787168998 L447.4105609014416,396.2487707602093 M447.4105609014416,396.2487707602093 L437.8549517570136,399.54107137272615 M437.8549517570136,399.54107137272615 L427.19285152818634,401.43455011404944 M427.19285152818634,401.43455011404944 L416.04470668369504,401.81884978485425 M416.04470668369504,401.81884978485425 L405.0593709361043,400.6715700084907 M405.0593709361043,400.6715700084907 L394.8761852187683,398.05958380840843 M394.8761852187683,398.05958380840843 L386.0876088136324,394.13510514852805 M386.0876088136324,394.13510514852805 L379.2046306910196,389.1267508660842 M379.2046306910196,389.1267508660842 L374.6270326460306,383.3261250360811 M374.6270326460306,383.3261250360811 L372.620199455038,377.0707559748684 M372.620199455038,377.0707559748684 L373.29985018194526,370.72438015910865 M373.29985018194526,370.72438015910865 L376.62552044912144,364.65575627768163 M376.62552044912144,364.65575627768163 L382.4031344131809,359.21725616625685 M382.4031344131809,359.21725616625685 L390.29646280716264,354.72445432945193 M390.29646280716264,354.72445432945193 L399.8467767534944,351.4379005120989 M399.8467767534944,351.4379005120989 L410.49949964808434,349.5481086292986 M410.49949964808434,349.5481086292986 L421.6363332596267,349.1645912656583 M421.6363332596267,349.1645912656583 L432.61101514009584,350.3095695818892 M432.61101514009584,350.3095695818892 L442.7866450305127,352.91669779207376 M442.7866450305127,352.91669779207376 L451.5724946010243,356.8348748379993 M288.1968036637329,512.4445821755837 L288.05061128601756,395.44011154501135 M323.341594296861,437.9384248889275 L323.23488402207045,321.020365085884 M453.7839532955198,418.0112096753152 L453.8229816518221,301.11630196724553 M432.92842693975996,484.4175671119947 L432.9362996439869,425.9642571332381 M432.9362996439869,425.9642571332381 L435.90045741662385,428.1210130096717 M435.90045741662385,428.1210130096717 L437.8735713924647,430.6196973238515 M437.8735713924647,430.6196973238515 L438.7408518307125,433.3151739576043 M438.7408518307125,433.3151739576043 L438.4517254028792,436.05082817327946 M438.4517254028792,436.05082817327946 L437.0228169555319,438.6676603332018 M437.0228169555319,438.6676603332018 L434.5370202774678,441.01353152862663 M434.5370202774678,441.01353152862663 L431.13871728010486,442.9520174648193 M431.13871728010486,442.9520174648193 L427.02540519756303,444.3703572439169 M427.02540519756303,444.3703572439169 L422.4362180130888,445.186030664623 M422.4362180130888,445.186030664623 L417.63801067122773,445.35157553476733 M417.63801067122773,445.35157553476733 L412.9098185857006,444.85735793566863 M412.9098185857006,444.85735793566863 L408.52659593720705,443.7321373103273 M408.52659593720705,443.7321373103273 L404.74319723810936,442.0413844279803 M404.74319723810936,442.0413844279803 L401.779544897779,439.8834591854221 M401.779544897779,439.8834591854221 L399.8078314293587,437.3838733930938 M399.8078314293587,437.3838733930938 L398.9425257351772,434.687969686432 M398.9425257351772,434.687969686432 L399.233748753789,431.95246064064634 M399.233748753789,431.95246064064634 L400.6643953341874,429.3363126367101 M400.6643953341874,429.3363126367101 L403.15117350245333,426.9915078513907 M403.15117350245333,426.9915078513907 L406.5494764998665,425.0542262779179 M406.5494764998665,425.0542262779179 L410.6618070922636,423.6369529091483 M410.6618070922636,423.6369529091483 L415.2492561436511,422.82196364442405 M415.2492561436511,422.82196364442405 L420.045366894636,422.65656394424354 M420.045366894636,422.65656394424354 L424.77158423602174,423.1503544700638 M424.77158423602174,423.1503544700638 L429.15340637710676,424.2746736168857 M429.15340637710676,424.2746736168857 L432.9362996439869,425.9642571332381 M451.55420580719283,415.3473891121784 L458.43606109425644,420.35235048085843 M458.43606109425644,420.35235048085843 L463.0186498876236,426.1514878836765 M463.0186498876236,426.1514878836765 L465.03500625096484,432.40819009396563 M465.03500625096484,432.40819009396563 L464.36703717694553,438.7590366434778 M464.36703717694553,438.7590366434778 L461.0525953351511,444.83487526766453 M461.0525953351511,444.83487526766453 L455.2835016513839,450.2822844812552 M455.2835016513839,450.2822844812552 L447.39458540328366,454.78418946670547 M447.39458540328366,454.78418946670547 L437.84431905162427,458.0784017872538 M437.84431905162427,458.0784017872538 L427.18818125452333,459.9729798893303 M427.18818125452333,459.9729798893303 L416.04627106796346,460.3575026764008 M416.04627106796346,460.3575026764008 L405.0670787887164,459.2095568041067 M405.0670787887164,459.2095568041067 L394.88958729393715,456.5960540112726 M394.88958729393715,456.5960540112726 L386.1059242138097,452.66929640889316 M386.1059242138097,452.66929640889316 L379.2267927163613,447.65803329025783 M379.2267927163613,447.65803329025783 L374.65175130564114,441.8540377917326 M374.65175130564114,441.8540377917326 L372.6460369001477,435.5950340728217 M372.6460369001477,435.5950340728217 L373.32530456250043,429.2449698483533 M373.32530456250043,429.2449698483533 L376.64911325710057,423.1728181616716 M376.64911325710057,423.1728181616716 L382.42349622254653,417.7311558655322 M382.42349622254653,417.7311558655322 L390.3124124721055,413.2357412284129 M390.3124124721055,413.2357412284129 L399.8573895437436,409.947275828609 M399.8573895437436,409.947275828609 L410.5041604870043,408.0563846656211 M410.5041604870043,408.0563846656211 L421.6347720823979,407.67264420281 M421.6347720823979,407.67264420281 L432.60332240161324,408.8182885646798 M432.60332240161324,408.8182885646798 L442.77326651409714,411.42693326145843 M442.77326651409714,411.42693326145843 L451.55420580719283,415.3473891121784 M451.55420580719283,415.3473891121784 L451.5724946010243,356.8348748379993" stroke="black"  stroke-width="4"  fill="red"/>
<path d="M410.67499527781126,574.1111852716954 L383.59079116343634,571.7255465427452 M383.59079116343634,571.7255465427452 L357.80255646189175,566.4352027591804 M357.80255646189175,566.4352027591804 L334.25771165567727,558.4354610268069 M334.25771165567727,558.4354610268069 L313.8201492441197,548.021457731835 M313.8201492441197,548.021457731835 L297.2383537409731,535.576979492411 M297.2383537409731,535.576979492411 L285.11792391174714,521.5600361882686 M285.11792391174714,521.5600361882686 L277.89957088908045,506.48573482172395 M277.89957088908045,506.48573482172395 L275.84341831647424,490.90711825997914 M275.84341831647424,490.90711825997914 L279.02008308873917,475.394710126415 M279.02008308873917,475.394710126415 L287.30874217925094,460.51560568446627 M287.30874217925094,460.51560568446627 L300.40222896394516,446.8127842995526 M300.40222896394516,446.8127842995526 L317.8188256891582,434.7854794487474 M317.8188256891582,434.7854794487474 L338.92026653783756,424.8712335429388 M338.92026653783756,424.8712335429388 L362.9351950460364,417.4302509566086 M362.9351950460364,417.4302509566086 L388.9872866632993,412.73260983377924 M388.9872866632993,412.73260983377924 L416.12695170369096,410.948696606621 M416.12695170369096,410.948696606621 L443.365505044399,412.1431926402703 M443.365505044399,412.1431926402703 L469.7107337049602,416.2727868870671 M469.7107337049602,416.2727868870671 L494.20249355648025,423.1877147438149 M494.20249355648025,423.1877147438149 L515.94729882324,432.63703524255607 M515.94729882324,432.63703524255607 L534.1506120174936,444.27750147626057 M534.1506120174936,444.27750147626057 L548.1457203336392,457.6857633856171 M548.1457203336392,457.6857633856171 L557.4181986491196,472.3734823519478 M557.4181986491196,472.3734823519478 L561.6251162212893,487.8048271304461 M561.6251162212893,487.8048271304461 L550.982482748157,498.36864860862715 M550.982482748157,498.36864860862715 L541.0188850206066,506.5576496631177 M541.0188850206066,506.5576496631177 L524.4200503041645,515.612273796185 M524.4200503041645,515.612273796185 L511.1960382781081,517.7715125396378 M511.1960382781081,517.7715125396378 L502.64753625955547,516.3934658865644 M502.64753625955547,516.3934658865644 L494.20816094538054,512.7392633579349 M494.20816094538054,512.7392633579349 L485.3636624585126,506.4158869882261 M485.3636624585126,506.4158869882261 L476.40088783532,497.4553537178257 M476.40088783532,497.4553537178257 L470.29915547558915,489.9573888471682 M470.29915547558915,489.9573888471682 L464.0527464471987,481.18771189136635 M464.0527464471987,481.18771189136635 L446.1024968234036,531.7400423665489 M446.1024968234036,531.7400423665489 L431.68088801965644,570.4420277306589 M431.68088801965644,570.4420277306589 L421.9703358299165,594.761439299446 M421.9703358299165,594.761439299446 L413.5975189918095,613.8624309043452 M413.5975189918095,613.8624309043452 L402.83803828765207,634.3344884864814 M402.83803828765207,634.3344884864814 L397.9024938108847,641.5421699408084 M397.9024938108847,641.5421699408084 L394.3474531655399,645.6687232809575 M394.3474531655399,645.6687232809575 L391.5180176720217,648.2553745711278 M391.5180176720217,648.2553745711278 L388.7125303621262,650.1827681777268 M388.7125303621262,650.1827681777268 L385.3098527854706,651.6584851194536 M385.3098527854706,651.6584851194536 L381.8633218894276,652.2088566415987 M381.8633218894276,652.2088566415987 L378.32904201167537,651.8407355068557 M378.32904201167537,651.8407355068557 L373.4021024880817,649.9110250563784 M373.4021024880817,649.9110250563784 L365.32213723627166,643.8288860199534 M365.32213723627166,643.8288860199534 L358.500271642608,636.5895191463294 M358.500271642608,636.5895191463294 L350.80899783806797,626.8285631748557 M350.80899783806797,626.8285631748557 L343.1318870889341,615.9096727261818 M343.1318870889341,615.9096727261818 L334.435097907839,602.5673689346532 M334.435097907839,602.5673689346532 L324.5232691904193,586.5012837871741 M324.5232691904193,586.5012837871741 L313.17329938001456,567.3490698158 M313.17329938001456,567.3490698158 L323.5128471769031,581.2822960993128 M323.5128471769031,581.2822960993128 L333.51485011198287,591.7635816532691 M333.51485011198287,591.7635816532691 L338.44257090133874,595.7674577122286 M338.44257090133874,595.7674577122286 L343.3494071346123,598.9705641237367 M343.3494071346123,598.9705641237367 L352.39514687444773,602.8152170085802 M352.39514687444773,602.8152170085802 L361.57114357236276,604.0454535442243 M361.57114357236276,604.0454535442243 L371.0097540105052,602.6778902476012 M371.0097540105052,602.6778902476012 L355.0789769419514,574.5364497206367 M355.0789769419514,574.5364497206367 L366.97470560151896,577.7610039655456 M366.97470560151896,577.7610039655456 L379.3647129491533,580.3084557771904 M379.3647129491533,580.3084557771904 L392.1309889381468,582.1544166745596 M392.1309889381468,582.1544166745596 L396.1719684566307,588.0795544345569 M396.1719684566307,588.0795544345569 L410.67499527781126,574.1111852716954 M561.6251162212893,487.8048271304461 L464.0739190609923,432.2060866986145 M464.0739190609923,432.2060866986145 L313.12373083533095,518.3257290038677 M313.12373083533095,518.3257290038677 L410.67499527781126,574.1111852716954 M464.0527464471987,481.18771189136635 L464.0739190609923,432.2060866986145 M313.17329938001456,567.3490698158 L313.12373083533095,518.3257290038677 M370.99270608691324,565.4432463984779 L371.0097540105052,602.6778902476012 M370.99270608691324,565.4432463984779 L396.170181849732,579.8451061088904 M396.1719684566307,588.0795544345569 L396.170181849732,579.8451061088904 M370.99270608691324,565.4432463984779 L355.0789769419514,574.5364497206367 M392.1309889381468,582.1544166745596 L396.170181849732,579.8451061088904" stroke="black"  stroke-width="4"  fill="red"/>
<path d="M463.99832667448413,607.0847284883598 L464.0739190609923,432.2060866986145 M313.30070459329977,693.3529545771369 L313.12373083533095,518.3257290038677 M463.99832667448413,607.0847284883598 L313.30070459329977,693.3529545771369 M464.0739190609923,432.2060866986145 L313.12373083533095,518.3257290038677 M624.9216798457776,699.1144402497736 L625.2672772382396,524.0773085956184 M624.9216798457776,699.1144402497736 L463.99832667448413,607.0847284883598 M625.2672772382396,524.0773085956184 L464.0739190609923,432.2060866986145 M313.30070459329977,693.3529545771369 L474.2243583229554,785.6913182803968 M313.12373083533095,518.3257290038677 L474.3173910856,610.5055888543222 M474.2243583229554,785.6913182803968 L474.3173910856,610.5055888543222 M370.99270608691324,565.4432463984779 L396.170181849732,579.8451061088904 M396.1843769731373,645.2702481716176 L396.170181849732,579.8451061088904 M371.0226568186881,630.8591209264839 L396.1843769731373,645.2702481716176 M370.99270608691324,565.4432463984779 L371.0226568186881,630.8591209264839 M474.2243583229554,785.6913182803968 L624.9216798457776,699.1144402497736 M437.5449449866054,671.3236599278705 L471.7502947538933,651.7238467578163 M432.90486150845123,659.3863480253858 L435.70541869013465,661.4018740227665 M435.70541869013465,661.4018740227665 L437.6441092600311,663.7263653448538 M437.6441092600311,663.7263653448538 L438.62172458030295,666.2410442344878 M438.62172458030295,666.2410442344878 L438.5881469941096,668.817382134712 M438.5881469941096,668.817382134712 L437.5449449866054,671.3236599278705 M425.61868794370326,678.1574567301025 L421.0280569384218,678.770105993378 M421.0280569384218,678.770105993378 L416.3146404019282,678.7467828726515 M416.3146404019282,678.7467828726515 L411.74317533431247,678.088796913086 M411.74317533431247,678.088796913086 L407.57040880392594,676.8331286789697 M407.57040880392594,676.8331286789697 L404.03065687492466,675.0503388607402 M404.03065687492466,675.0503388607402 L401.32262872654474,672.8405936691846 M401.32262872654474,672.8405936691846 L399.59826883534345,670.3280192125934 M399.59826883534345,670.3280192125934 L398.9542411931694,667.6537128703565 M398.9542411931694,667.6537128703565 L399.4265316135573,664.9678106024691 M399.4265316135573,664.9678106024691 L400.98846253215766,662.4210547981977 M400.98846253215766,662.4210547981977 L403.5522281450871,660.1563335312295 M403.5522281450871,660.1563335312295 L406.97385468993025,658.3006775029804 M406.97385468993025,658.3006775029804 L411.0612942001814,656.9581475014537 M411.0612942001814,656.9581475014537 L415.5852040455974,656.2040160895683 M415.5852040455974,656.2040160895683 L420.29179939394544,656.080560424261 M420.29179939394544,656.080560424261 L424.9170662705707,656.594700450535 M424.9170662705707,656.594700450535 L429.20154583959095,657.7176155561108 M429.20154583959095,657.7176155561108 L432.90486150845123,659.3863480253858 M391.37826246629845,697.7773684335666 L425.61868794370326,678.1574567301025 M443.62648781067287,727.734090815361 L391.37826246629845,697.7773684335666 M523.9984798796506,681.6271294759475 L443.62648781067287,727.734090815361 M471.7502947538933,651.7238467578163 L523.9984798796506,681.6271294759475 M474.3173910856,610.5055888543222 L625.2672772382396,524.0773085956184 M432.92842693975996,484.4175671119947 L435.8909286173664,486.5755718397217 M435.8909286173664,486.5755718397217 L437.86293990406966,489.07570286937005 M437.86293990406966,489.07570286937005 L438.72973527689794,491.77274000717614 M438.72973527689794,491.77274000717614 L438.4407697868652,494.50997782538406 M438.4407697868652,494.50997782538406 L437.01265912701996,497.12832465225137 M437.01265912701996,497.12832465225137 L434.52825088801876,499.4755535511041 M434.52825088801876,499.4755535511041 L431.1318463838602,501.41516132082484 M431.1318463838602,501.41516132082484 L427.02083251508,502.8343218645417 M427.02083251508,502.8343218645417 L422.43420960775165,503.65046727917 M422.43420960775165,503.65046727917 L417.63868341421994,503.81610794099845 M417.63868341421994,503.81610794099845 L412.9131333283118,503.32160436367093 M412.9131333283118,503.32160436367093 L408.53235979865696,502.1957326113694 M408.53235979865696,502.1957326113694 L404.75107487119305,500.50400129593515 M404.75107487119305,500.50400129593515 L401.7890780613221,498.34482717880434 M401.7890780613221,498.34482717880434 L399.8184657176636,495.84379465306097 M399.8184657176636,495.84379465306097 L398.9536428831,493.1463304338441 M398.9536428831,493.1463304338441 L399.2447026220061,490.4092377884154 M399.2447026220061,490.4092377884154 L400.6745494733967,487.7915751311544 M400.6745494733967,487.7915751311544 L403.159938106269,485.4454126636364 M403.159938106269,485.4454126636364 L406.55634261047766,483.50700928061127 M406.55634261047766,483.50700928061127 L410.66637608544386,482.08891516845216 M410.66637608544386,482.08891516845216 L415.25126280119116,481.27345392342505 M415.25126280119116,481.27345392342505 L420.04469474575217,481.10795843445044 M420.04469474575217,481.10795843445044 L424.76827229332065,481.6020349299979 M424.76827229332065,481.6020349299979 L429.1476468799428,482.72700518583383 M429.1476468799428,482.72700518583383 L432.92842693975996,484.4175671119947 M431.4411898924923,574.458542217033 L416.3225306095435,565.8147530528671 M562.2645800958344,499.6419729608618 L431.4411898924923,574.458542217033 M547.1459551678336,491.0232774100608 L562.2645800958344,499.6419729608618 M416.3225306095435,565.8147530528671 L547.1459551678336,491.0232774100608 M567.396556504304,603.9230559962102 L566.8921777723951,599.3233370169853 M566.8921777723951,599.3233370169853 L565.3943174639519,595.5765303163593 M565.3943174639519,595.5765303163593 L562.9898276262097,592.9004602926732 M562.9898276262097,592.9004602926732 L559.8182651687789,591.450871723536 M559.8182651687789,591.450871723536 L556.0638273837217,591.3121715836115 M556.0638273837217,591.3121715836115 L551.9446719456321,592.4928051416149 M551.9446719456321,592.4928051416149 L547.7002485759228,594.9242513495683 M547.7002485759228,594.9242513495683 L543.5773679521708,598.465286774092 M543.5773679521708,598.465286774092 L539.8158274120556,602.9101729771568 M539.8158274120556,602.9101729771568 L536.6344303416779,608.0002991741526 M536.6344303416779,608.0002991741526 L534.21822583015,613.4397025740052 M534.21822583015,613.4397025740052 L532.7077157108395,618.911985957631 M532.7077157108395,618.911985957631 L532.1906742640824,624.0989212476492 M532.1906742640824,624.0989212476492 L532.6970470417511,628.6988978109359 M532.6970470417511,628.6988978109359 L534.1972350208266,632.4445339934427 M534.1972350208266,632.4445339934427 L536.6038529212285,635.1182735538925 M536.6038529212285,635.1182735538925 L539.7768563162772,636.5649056064058 M539.7768563162772,636.5649056064058 L543.5317178267896,636.7007004294251 M543.5317178267896,636.7007004294251 L547.650182687611,635.5178784033699 M547.650182687611,635.5178784033699 L551.8929593921803,633.0854618708083 M551.8929593921803,633.0854618708083 L556.0136144874446,629.544896550987 M556.0136144874446,629.544896550987 L559.7728604892718,625.1018132577547 M559.7728604892718,625.1018132577547 L562.9524196426687,620.0144096510537 M562.9524196426687,620.0144096510537 L565.3676639183384,614.5780248757651 M565.3676639183384,614.5780248757651 L566.8783114562129,609.1083646044998 M566.8783114562129,609.1083646044998 L567.396556504304,603.9230559962102 M471.6984077349412,536.6636751000594 L446.5209331459022,522.2859500191448 M396.170181849732,579.8451061088904 L471.6984077349412,536.6636751000594 M446.5209331459022,522.2859500191448 L370.99270608691324,565.4432463984779 M396.1843769731373,645.2702481716176 L471.6653412764785,602.0610149812949 M471.6653412764785,602.0610149812949 L471.66653285970784,599.704355784361 M471.66653285970784,599.704355784361 L456.5801201282278,608.3402089041703 M456.5801201282278,608.3402089041703 L441.495226747699,586.6420227730348 M441.495226747699,586.6420227730348 L456.60204308680244,547.6538729590462 M456.60204308680244,547.6538729590462 L471.69721471326795,539.0231791860883 M471.69721471326795,539.0231791860883 L471.6984077349412,536.6636751000594 M471.6653412764785,602.0610149812949 L446.5036222936108,587.6740227965342 M446.5036222936108,587.6740227965342 L371.0226568186881,630.8591209264839 M446.5176857123887,534.5524413129536 L446.5209331459022,522.2859500191448 M446.5176857123887,534.5524413129536 L442.30386384238597,537.5547321214287 M442.30386384238597,537.5547321214287 L438.33439539021555,541.5708137985689 M438.33439539021555,541.5708137985689 L434.8401707702158,546.3671484197167 M434.8401707702158,546.3671484197167 L432.0244425541733,551.664796677281 M432.0244425541733,551.664796677281 L430.0509748509932,557.1556197757162 M430.0509748509932,557.1556197757162 L429.0344924308588,562.5203106874906 M429.0344924308588,562.5203106874906 L429.03401197168574,567.446795467207 M429.03401197168574,567.446795467207 L430.0494205081983,571.6488246172166 M430.0494205081983,571.6488246172166 L432.0215143491,574.8821227033552 M432.0215143491,574.8821227033552 L434.8354886026139,576.9589814273238 M434.8354886026139,576.9589814273238 L438.32764728024443,577.7589286386811 M438.32764728024443,577.7589286386811 L442.29495791225435,577.2357359262355 M442.29495791225435,577.2357359262355 L446.5068664274037,575.4199954975938 M446.5036222936108,587.6740227965342 L446.5068664274037,575.4199954975938 M437.5449449866054,671.3236599278705 L438.4021139545907,668.7453487180225 M438.4021139545907,668.7453487180225 L438.7301143778317,665.9012805297657 M438.7301143778317,665.9012805297657 L438.5201168799824,662.8683863271879 M467.400365801491,646.3224115350914 L438.5201168799824,662.8683863271879 M471.7502947538933,651.7238467578163 L467.400365801491,646.3224115350914 M438.5201168799824,662.8683863271879 L438.6337862293919,660.6410493874889 M438.6337862293919,660.6410493874889 L437.7047020297961,659.7126222515617 M437.7047020297961,659.7126222515617 L436.4361458123528,659.7088627204986 M436.4361458123528,659.7088627204986 L435.02391239009245,660.1410688261735 M435.02391239009245,660.1410688261735 L433.4992877075864,660.8619433938105 M433.4992877075864,660.8619433938105 L431.7576941395315,661.8863396482312 M431.7576941395315,661.8863396482312 L429.8249154054192,663.1991331347492 M429.8249154054192,663.1991331347492 L427.7295722206765,664.7808608706305 M427.7295722206765,664.7808608706305 L425.5026990618103,666.6080837514769 M425.5026990618103,666.6080837514769 L423.1772796776028,668.6537599120455 M423.1772796776028,668.6537599120455 L419.98310800166814,671.6683256198223 M419.98310800166814,671.6683256198223 L417.9566039056947,673.6970190872419 M417.9566039056947,673.6970190872419 L415.93937500975886,675.805268789212 M415.93937500975886,675.805268789212 L419.20508050535926,677.0881807878209 M419.20508050535926,677.0881807878209 L422.460889715663,677.879369575156 M422.460889715663,677.879369575156 L425.61868794370326,678.1574567301025 M432.90486150845123,659.3863480253858 L432.92842693975996,484.4175671119947 M387.0260912686381,692.3701697787262 L391.37826246629845,697.7773684335666 M415.93937500975886,675.805268789212 L387.0260912686381,692.3701697787262 M443.62648781067287,727.734090815361 L491.0134174537263,659.8731645060055 M456.60844364709385,617.1540451286346 L491.0134174537263,659.8731645060055 M456.60844364709385,617.1540451286346 L456.5995184622726,641.8398050486775 M456.5995184622726,641.8398050486775 L441.4926947364069,633.1938971377949 M441.4926947364069,633.1938971377949 L441.49682009236926,614.1722450652594 M387.0260912686381,692.3701697787262 L441.49682009236926,614.1722450652594 M523.9984798796506,681.6271294759475 L571.4583889450437,613.760697219185 M491.0134174537263,659.8731645060055 L571.4583889450437,613.760697219185 M467.400365801491,646.3224115350914 L521.9552339570301,568.1182702530546 M521.9552339570301,568.1182702530546 L521.9364742359292,587.1313074940427 M521.9364742359292,587.1313074940427 L537.0432768610149,595.7617728396277 M537.0432768610149,595.7617728396277 L537.0711924803693,571.0871933489555 M571.4583889450437,613.760697219185 L537.0711924803693,571.0871933489555 M416.32450237562534,647.6053547296972 L431.4313277531947,656.2560969427984 M431.4313277531947,656.2560969427984 L431.4411898924923,574.458542217033 M416.32450237562534,647.6053547296972 L416.3225306095435,565.8147530528671 M431.4313277531947,656.2560969427984 L456.5995184622726,641.8398050486775 M456.60844364709385,617.1540451286346 L481.6765944234154,602.8019281186091 M514.4650525321786,573.6888522441554 L513.9448110690819,569.0350696110673 M513.9448110690819,569.0350696110673 L512.4059242363878,565.2590942280074 M512.4059242363878,565.2590942280074 L509.93996778583914,562.5862598389195 M509.93996778583914,562.5862598389195 L506.69383436977245,561.1761860450176 M506.69383436977245,561.1761860450176 L502.8610097600026,561.1132657117394 M502.8610097600026,561.1132657117394 L498.6700654534229,562.4014339021829 M498.6700654534229,562.4014339021829 L494.37103254501966,564.9641436709611 M494.37103254501966,564.9641436709611 L490.2204727311449,568.6485645514508 M490.2204727311449,568.6485645514508 L486.4661407301745,573.2348896291302 M486.4661407301745,573.2348896291302 L483.33215984618334,578.4494337851779 M483.33215984618334,578.4494337851779 L481.00560632902557,583.9808813569887 M481.00560632902557,583.9808813569887 L479.62531742910085,589.4990791796213 M479.62531742910085,589.4990791796213 L479.2735890344101,594.6747347993901 M479.2735890344101,594.6747347993901 L479.97128189118837,599.1989490911319 M479.97128189118837,599.1989490911319 L481.6765944234154,602.8019281186091 M512.0338937785571,585.4216468070376 L513.3680623180101,581.395817226308 M513.3680623180101,581.395817226308 L514.1869814079166,577.4437743107718 M514.1869814079166,577.4437743107718 L514.4650525321786,573.6888522441554 M512.0338937785571,585.4216468070376 L537.0711924803693,571.0871933489555 M537.0432768610149,595.7617728396277 L562.1524779963311,581.3792700614543 M562.1524779963311,581.3792700614543 L562.2645800958344,499.6419729608618 M562.1524779963311,581.3792700614543 L547.0456868931813,572.7536220334091 M547.0456868931813,572.7536220334091 L547.1459551678336,491.0232774100608 M547.0456868931813,572.7536220334091 L521.9364742359292,587.1313074940427 M503.95055786839094,578.4240525728858 L521.9552339570301,568.1182702530546 M503.95055786839094,578.4240525728858 L511.92004941441996,557.8660431332373 M511.92004941441996,557.8660431332373 L496.8620256003053,536.1469243845704 M496.8620256003053,536.1469243845704 L466.67674784967613,553.409277154001 M466.67674784967613,553.409277154001 L451.5670058160028,592.4010791974385 M451.5670058160028,592.4010791974385 L459.52649539402665,603.8521533267935 M441.49682009236926,614.1722450652594 L459.52649539402665,603.8521533267935 M441.4926947364069,633.1938971377949 L416.32450237562534,647.6053547296972 M567.396556504304,603.9230559962102 L514.4650525321786,573.6888522441554 M481.6765944234154,602.8019281186091 L493.09474983501997,610.2408884158688 M493.09474983501997,610.2408884158688 L500.6874774133947,613.2860172114682 M500.6874774133947,613.2860172114682 L505.20730123192334,614.0947431075481 M505.20730123192334,614.0947431075481 L508.4985790050799,613.9794459517336 M508.4985790050799,613.9794459517336 L511.10424098947146,613.2341273981314 M511.10424098947146,613.2341273981314 L513.0510743290187,612.0479633519075 M513.0510743290187,612.0479633519075 L514.5947723002159,610.3890842261911 M514.5947723002159,610.3890842261911 L515.7156881930998,608.2787067940337 M515.7156881930998,608.2787067940337 L516.3995934875198,605.7436724841916 M516.3995934875198,605.7436724841916 L516.637796354378,602.8163785086139 M516.637796354378,602.8163785086139 L516.2577341773465,598.3682157146313 M516.2577341773465,598.3682157146313 L514.713855043484,592.1890391514896 M514.713855043484,592.1890391514896 L512.0338937785571,585.4216468070376 M471.69721471326795,539.0231791860883 L449.03736614033,526.0825638140806 M449.03450467152425,535.9900263164659 L449.03736614033,526.0825638140806 M446.5176857123887,534.5524413129536 L449.03450467152425,535.9900263164659 M446.5068664274037,575.4199954975938 L449.0227011558639,576.858159690856 M449.0198424657068,586.756001484856 L449.0227011558639,576.858159690856 M449.0198424657068,586.756001484856 L471.66653285970784,599.704355784361 M459.51447427752186,610.0185021628942 L456.5801201282278,608.3402089041703 M464.1012040374043,578.127380084876 L449.0198424657068,586.756001484856 M489.68224326619196,592.7485651170507 L464.1012040374043,578.127380084876 M459.51447427752186,610.0185021628942 L489.68224326619196,592.7485651170507 M451.5670058160028,592.4010791974385 L441.495226747699,586.6420227730348 M459.52649539402665,603.8521533267935 L459.51447427752186,610.0185021628942 M466.67674784967613,553.409277154001 L456.60204308680244,547.6538729590462 M496.8620256003053,536.1469243845704 L464.1274807417506,517.4591016360512 M449.03736614033,526.0825638140806 L464.1274807417506,517.4591016360512 M466.62813657638526,546.3646510531404 L456.56367434200973,540.6158818133845 M456.56367434200973,540.6158818133845 L456.0541014064988,536.0184931884394 M456.0541014064988,536.0184931884394 L454.5513457898448,532.2724430238161 M454.5513457898448,532.2724430238161 L452.14254423836945,529.5955113743908 M452.14254423836945,529.5955113743908 L448.9675045893933,528.1434925178612 M448.9675045893933,528.1434925178612 L445.2106264655107,528.0009341287403 M445.2106264655107,528.0009341287403 L441.09020979543584,529.1765051203686 M441.09020979543584,529.1765051203686 L436.8457776612552,531.6019784371413 M436.8457776612552,531.6019784371413 L432.72414125090745,535.136477761586 M432.72414125090745,535.136477761586 L428.96502553219955,539.5746447258432 M428.96502553219955,539.5746447258432 L425.7870925399508,544.6582596190322 M425.7870925399508,544.6582596190322 L423.37518979490875,550.0917386042063 M423.37518979490875,550.0917386042063 L421.8695687799498,555.5590293432217 M421.8695687799498,555.5590293432217 L421.35771943533456,560.7421943006652 M421.35771943533456,560.7421943006652 L421.8692854558289,565.3398421265272 M421.8692854558289,565.3398421265272 L423.3743660610783,569.0847263820234 M423.3743660610783,569.0847263820234 L425.78529188633945,571.7593341134757 M425.78529188633945,571.7593341134757 L428.96176844522086,573.2084034354504 M428.96176844522086,573.2084034354504 L432.7190669506465,573.3480623271412 M432.7190669506465,573.3480623271412 L436.838791149485,572.1703061910071 M436.838791149485,572.1703061910071 L441.0815766083186,569.743862615978 M441.0815766083186,569.743862615978 L445.20098936607127,566.209830190192 M445.20098936607127,566.209830190192 L448.9578138788075,561.7734603916758 M448.9578138788075,561.7734603916758 L452.1339129793284,556.6925611227066 M452.1339129793284,556.6925611227066 L454.5448592846253,551.2620941697758 M454.5448592846253,551.2620941697758 L456.050620415464,545.7974218348 M456.050620415464,545.7974218348 L456.56367434200973,540.6158818133845 M466.62813657638526,546.3646510531404 L466.18902284396154,542.0701456145812 M466.18902284396154,542.0701456145812 L464.88944753473146,538.4951018989415 M464.88944753473146,538.4951018989415 L462.7944156244157,535.8188529990073 M462.7944156244157,535.8188529990073 L460.0088314479205,534.1757153603069 M460.0088314479205,534.1757153603069 L456.67226190694174,533.648347329732 M456.67226190694174,533.648347329732 L452.9519632084836,534.2633289498948 M452.9519632084836,534.2633289498948 L449.03450467152425,535.9900263164659 M449.0227011558639,576.858159690856 L452.9389630384772,574.105921724339 M452.9389630384772,574.105921724339 L456.65893797117076,570.4676539664932 M456.65893797117076,570.4676539664932 L459.9962497704337,566.1257535677563 M459.9962497704337,566.1257535677563 L462.78370315890487,561.2977232081977 M462.78370315890487,561.2977232081977 L464.8816373293851,556.2255320270065 M464.8816373293851,556.2255320270065 L466.1849041538555,551.1632877574211 M466.1849041538555,551.1632877574211 L466.62813657638526,546.3646510531404 M489.68224326619196,592.7485651170507 L503.95055786839094,578.4240525728858 M479.19502098102674,539.178890138959 L464.1012040374043,578.127380084876 M511.92004941441996,557.8660431332373 L479.19502098102674,539.178890138959 M464.1274807417506,517.4591016360512 L479.19502098102674,539.178890138959" stroke="black"  stroke-width="4"  fill="red"/>
<path d="M467.17406962607777,347.94820832489177 L454.199002098613,342.1635809479656 M454.199002098613,342.1635809479656 L439.17304165235686,338.3147603360516 M439.17304165235686,338.3147603360516 L422.9680317570228,336.62452437228893 M422.9680317570228,336.62452437228893 L406.5237593781281,337.1906748916892 M406.5237593781281,337.1906748916892 L390.793805529794,339.9804554332579 M390.793805529794,339.9804554332579 L376.6905901601362,344.832420707157 M376.6905901601362,344.832420707157 L365.0327521791659,351.4656612204341 M365.0327521791659,351.4656612204341 L356.4978011451269,359.495885790665 M356.4978011451269,359.495885790665 L351.5827429965841,368.4574790909195 M351.5827429965841,368.4574790909195 L350.5749682821495,377.83031510953043 M350.5749682821495,377.83031510953043 L353.5351528162457,387.0698229820469 M353.5351528162457,387.0698229820469 L360.29325018779207,395.638611500237 M360.29325018779207,395.638611500237 L370.45791167473095,403.0377900345895 M370.45791167473095,403.0377900345895 L383.43892725860275,408.8361631320285 M383.43892725860275,408.8361631320285 L398.4813692395867,412.69558049311956 M398.4813692395867,412.69558049311956 L414.70961843494405,414.39083663915636 M414.70961843494405,414.39083663915636 L431.1785640402881,413.82297967111225 M431.1785640402881,413.82297967111225 L446.9289726900535,411.0251569757167 M446.9289726900535,411.0251569757167 L461.0437384866485,406.1606562045923 M461.0437384866485,406.1606562045923 L472.701576460662,399.51325858634726 M472.701576460662,399.51325858634726 L481.2249770598601,391.47049852596444 M481.2249770598601,391.47049852596444 L486.11958041190553,382.50086307707244 M486.11958041190553,382.50086307707244 L487.10268191339986,373.12632060907373 M487.10268191339986,373.12632060907373 L484.1192580896946,363.89183291183645 M484.1192580896946,363.89183291183645 L477.3446791817435,355.3336411333468 M477.3446791817435,355.3336411333468 L467.17406962607777,347.94820832489177 M467.17406962607777,347.94820832489177 L467.23899723879185,207.26335094302505 M429.0620431067682,273.2482424138444 L412.6743239516011,273.52579435258747 M412.6743239516011,273.52579435258747 L396.64037692460676,271.5828243135366 M396.64037692460676,271.5828243135366 L381.8797436271872,267.5310167086049 M381.8797436271872,267.5310167086049 L369.2384872625846,261.60318847867444 M369.2384872625846,261.60318847867444 L359.44047689563524,254.13975904665375 M359.44047689563524,254.13975904665375 L353.045869497112,245.5690054848215 M353.045869497112,245.5690054848215 L350.41919246355917,236.3822890487645 M350.41919246355917,236.3822890487645 L351.70879201627787,227.10575307335586 M351.70879201627787,227.10575307335586 L356.83880748748965,218.2701221453708 M356.83880748748965,218.2701221453708 L365.513965984323,210.38036106573884 M365.513965984323,210.38036106573884 L377.2368693231166,203.88695171930328 M377.2368693231166,203.88695171930328 L391.33665010282533,199.16033512189728 M391.33665010282533,199.16033512189728 L407.0073675716815,196.4699896843171 M407.0073675716815,196.4699896843171 L423.35390391123946,195.96923047449883 M423.35390391123946,195.96923047449883 L439.4427904163051,197.6865927042213 M439.4427904163051,197.6865927042213 L454.35518481654486,201.52421181128778 M454.35518481654486,201.52421181128778 L467.23899723879185,207.26335094302505 M429.0620431067682,273.2482424138444 L429.05060008897516,390.5891136677848 M486.48864290024585,357.859023533377 L482.83976091885523,365.83156195708193 M482.83976091885523,365.83156195708193 L476.3256403089571,373.1897312216109 M476.3256403089571,373.1897312216109 L467.2368301767596,379.6036973784698 M467.2368301767596,379.6036973784698 L455.97961603210075,384.7857228629344 M455.97961603210075,384.7857228629344 L443.05789958364784,388.5031827526944 M443.05789958364784,388.5031827526944 L429.05060008897516,390.5891136677848 M486.56442063243315,240.55641177464327 L486.48864290024585,357.859023533377 M467.23899723879185,207.26335094302505 L477.1417629514726,214.37660503227602 M477.1417629514726,214.37660503227602 L483.87670928686947,222.60031103408687 M483.87670928686947,222.60031103408687 L487.07620335301436,231.48793435989688 M487.07620335301436,231.48793435989688 L486.56442063243315,240.55641177464327 M451.5724946010243,356.8348748379993 L458.4581995608506,361.8369275081933 M458.4581995608506,361.8369275081933 L463.04335343311124,367.6326953486487 M463.04335343311124,367.6326953486487 L465.06084048903676,373.8857629515326 M465.06084048903676,373.8857629515326 L464.3925009922392,380.23292107524054 M464.3925009922392,380.23292107524054 L461.0762080582634,386.305231813605 M461.0762080582634,386.305231813605 L455.3038892939613,391.7494787168998 M455.3038892939613,391.7494787168998 L447.4105609014416,396.2487707602093 M447.4105609014416,396.2487707602093 L437.8549517570136,399.54107137272615 M437.8549517570136,399.54107137272615 L427.19285152818634,401.43455011404944 M427.19285152818634,401.43455011404944 L416.04470668369504,401.81884978485425 M416.04470668369504,401.81884978485425 L405.0593709361043,400.6715700084907 M405.0593709361043,400.6715700084907 L394.8761852187683,398.05958380840843 M394.8761852187683,398.05958380840843 L386.0876088136324,394.13510514852805 M386.0876088136324,394.13510514852805 L379.2046306910196,389.1267508660842 M379.2046306910196,389.1267508660842 L374.6270326460306,383.3261250360811 M374.6270326460306,383.3261250360811 L372.620199455038,377.0707559748684 M372.620199455038,377.0707559748684 L373.29985018194526,370.72438015910865 M373.29985018194526,370.72438015910865 L376.62552044912144,364.65575627768163 M376.62552044912144,364.65575627768163 L382.4031344131809,359.21725616625685 M382.4031344131809,359.21725616625685 L390.29646280716264,354.72445432945193 M390.29646280716264,354.72445432945193 L399.8467767534944,351.4379005120989 M399.8467767534944,351.4379005120989 L410.49949964808434,349.5481086292986 M410.49949964808434,349.5481086292986 L421.6363332596267,349.1645912656583 M421.6363332596267,349.1645912656583 L432.61101514009584,350.3095695818892 M432.61101514009584,350.3095695818892 L442.7866450305127,352.91669779207376 M442.7866450305127,352.91669779207376 L451.5724946010243,356.8348748379993 M422.3751986052859,269.44743292102794 L429.0620431067682,273.2482424138444 M445.40624572393256,256.35553423318237 L422.3751986052859,269.44743292102794 M445.40624572393256,256.35553423318237 L435.6596100581556,259.31297996486734 M435.6596100581556,259.31297996486734 L424.9573306355687,260.8764490042373 M424.9573306355687,260.8764490042373 L413.9075193082101,260.95696144780135 M413.9075193082101,260.95696144780135 L403.13812793678704,259.54993493356307 M403.13812793678704,259.54993493356307 L393.26110202103433,256.7354476721682 M393.26110202103433,256.7354476721682 L384.83746754337534,252.67362972426105 M384.83746754337534,252.67362972426105 L378.345366383681,247.59549438998198 M378.345366383681,247.59549438998198 L374.15289097585315,241.7897054239329 M374.15289097585315,241.7897054239329 L372.4972657534553,235.58608102583167 M372.4972657534553,235.58608102583167 L373.471543329544,229.3367962445074 M373.471543329544,229.3367962445074 L377.0195045335343,223.3963655201348 M377.0195045335343,223.3963655201348 L382.939076873872,218.10154469406393 M382.939076873872,218.10154469406393 L390.8939658296884,213.7523002860213 M390.8939658296884,213.7523002860213 L400.432813411817,210.5948881001218 M400.432813411817,210.5948881001218 L411.01480980430864,208.8080053338769 M411.01480980430864,208.8080053338769 L422.0402880631213,208.4927567749744 M422.0402880631213,208.4927567749744 L432.8845556018867,209.66697506831775 M432.8845556018867,209.66697506831775 L442.9331421811508,212.26422833533502 M442.9331421811508,212.26422833533502 L451.6164712536277,216.13754198432082 M451.6164712536277,216.13754198432082 L458.29056869663583,220.9273672648498 M458.29056869663583,220.9273672648498 L462.8430203380195,226.4623018933159 M462.8430203380195,226.4623018933159 L465.02822730732953,232.44480548696697 M465.02822730732953,232.44480548696697 L464.7277753345869,238.55306461226797 M464.7277753345869,238.55306461226797 L461.956959073222,244.45827154066887 M461.956959073222,244.45827154066887 L456.8641658306074,249.84232932168857 M479.87757950845855,236.76045428666384 L456.8641658306074,249.84232932168857 M486.56442063243315,240.55641177464327 L479.87757950845855,236.76045428666384 M422.37124286898575,386.7838584632018 L429.05060008897516,390.5891136677848 M422.37124286898575,386.7838584632018 L422.3751986052859,269.44743292102794 M445.37651256871703,373.67664166700644 L422.37124286898575,386.7838584632018 M456.8216133452765,367.1558132181047 L453.46370472926503,369.5793394829564 M453.46370472926503,369.5793394829564 L449.63117600009673,371.7629385184661 M449.63117600009673,371.7629385184661 L445.37651256871703,373.67664166700644 M479.8092890464369,354.05862057535694 L456.8216133452765,367.1558132181047 M486.48864290024585,357.859023533377 L479.8092890464369,354.05862057535694 M479.8092890464369,354.05862057535694 L479.87757950845855,236.76045428666384 M451.5724946010243,356.8348748379993 L451.6164712536277,216.13754198432082 M445.40624572393256,256.35553423318237 L445.37651256871703,373.67664166700644 M456.8641658306074,249.84232932168857 L456.8216133452765,367.1558132181047" stroke="black"  stroke-width="4"  fill="red"/>
<path d="M456.6565875820432,213.27456353824965 L456.73294864124995,1.5243274785084964 M456.73294864124995,1.5243274785084964 L464.7049911720114,7.2749972743040985 M464.7049911720114,7.2749972743040985 L470.01405687991377,13.93838963413424 M470.01405687991377,13.93838963413424 L472.35073723834904,21.12780733763708 M472.35073723834904,21.12780733763708 L471.5780112059873,28.4256878368912 M471.5780112059873,28.4256878368912 L467.7394919630268,35.407819185001415 M467.7394919630268,35.407819185001415 L461.05718587361747,41.66800513563834 M461.05718587361747,41.66800513563834 L451.9188339622536,46.841771877890835 M451.9188339622536,46.841771877890835 L440.8555227814012,50.62769986013569 M440.8555227814012,50.62769986013569 L428.51081939390605,52.80511110534684 M428.51081939390605,52.80511110534684 L415.603230480149,53.24704149348332 M415.603230480149,53.24704149348332 L402.88419123607275,51.92771763517425 M402.88419123607275,51.92771763517425 L391.09411213059985,48.92407714243501 M391.09411213059985,48.92407714243501 L380.91905259471224,44.41123464220465 M380.91905259471224,44.41123464220465 L372.9506649602167,38.652176570764425 M372.9506649602167,38.652176570764425 L367.65172663775365,31.982317590127366 M367.65172663775365,31.982317590127366 L365.32932609599374,24.789836342998512 M365.32932609599374,24.789836342998512 L366.11721303900555,17.492997198243586 M366.11721303900555,17.492997198243586 L369.9683011108706,10.51577354142131 M369.9683011108706,10.51577354142131 L376.65770457940323,4.263237327049467 M376.65770457940323,4.263237327049467 L385.79605649339385,-0.901890096560976 M385.79605649339385,-0.901890096560976 L396.8522702981071,-4.680168341965043 M396.8522702981071,-4.680168341965043 L409.18440485483484,-6.852671893019249 M409.18440485483484,-6.852671893019249 L422.0768328528411,-7.2935609253971165 M422.0768328528411,-7.2935609253971165 L434.7815922763098,-5.9773006138780715 M434.7815922763098,-5.9773006138780715 L446.5615439969766,-2.980126745988457 M446.5615439969766,-2.980126745988457 L456.73294864124995,1.5243274785084964 M456.6565875820432,213.27456353824965 L446.50568612310343,208.76049529641415 M446.50568612310343,208.76049529641415 L434.7494741248452,205.75692356181833 M434.7494741248452,205.75692356181833 L422.0703147858414,204.43785329225074 M422.0703147858414,204.43785329225074 L409.20386435174754,204.8796835516938 M409.20386435174754,204.8796835516938 L396.896580337617,207.05682482273153 M396.896580337617,207.05682482273153 L385.8626501494748,210.84316780041286 M385.8626501494748,210.84316780041286 L376.74272232577454,216.01931835306283 M376.74272232577454,216.01931835306283 L370.06681268684855,222.28519555314404 M370.06681268684855,222.28519555314404 L366.22350154081215,229.27730279490635 M366.22350154081215,229.27730279490635 L365.4372183297415,236.5897031875574 M365.4372183297415,236.5897031875574 L367.75495098447385,243.7975189961511 M367.75495098447385,243.7975189961511 L373.0432161630597,250.48159462714096 M373.0432161630597,250.48159462714096 L380.9955421863609,256.2529251593515 M380.9955421863609,256.2529251593515 L391.1500838143115,260.7753826166332 M391.1500838143115,260.7753826166332 L402.9163824023064,263.78542170051145 M402.9163824023064,263.78542170051145 L415.60976404002224,265.10755586006576 M415.60976404002224,265.10755586006576 L428.49131431874673,264.66468412820524 M428.49131431874673,264.66468412820524 L440.8111165339522,262.48263461322074 M440.8111165339522,262.48263461322074 L451.8521155086316,258.6886410417243 M451.8521155086316,258.6886410417243 L460.9720433297262,253.5038502025928 M460.9720433297262,253.5038502025928 L467.64088417915497,247.23032240926182 M467.64088417915497,247.23032240926182 L471.47167712596416,240.23330692641093 M471.47167712596416,240.23330692641093 L472.2428604974638,232.91986506259917 M472.2428604974638,232.91986506259917 L469.91090554792004,225.71511314083597 M469.91090554792004,225.71511314083597 L464.6125537789694,219.03750485509687 M464.6125537789694,219.03750485509687 L456.6565875820432,213.27456353824965 M451.6164712536277,216.13754198432082 L442.81881458136826,212.2248649288668 M442.81881458136826,212.2248649288668 L432.6295128501717,209.6213968198142 M432.6295128501717,209.6213968198142 L421.6400872157239,208.47802603076508 M421.6400872157239,208.47802603076508 L410.488292345924,208.86100493588089 M410.488292345924,208.86100493588089 L399.8212575803434,210.74814366255532 M399.8212575803434,210.74814366255532 L390.2581107525718,214.03008379765515 M390.2581107525718,214.03008379765515 L382.3541730489578,218.51657952904173 M382.3541730489578,218.51657952904173 L376.56878991615105,223.9474475641859 M376.56878991615105,223.9474475641859 L373.23864335562405,230.00755691710435 M373.23864335562405,230.00755691710435 L372.5580715087585,236.34503056834728 M372.5580715087585,236.34503056834728 L374.56759488404543,242.59162718406213 M374.56759488404543,242.59162718406213 L379.15134052514617,248.38412012397976 M379.15134052514617,248.38412012397976 L386.04356812331804,253.38545375373383 M386.04356812331804,253.38545375373383 L394.8439589653259,257.3044320423241 M394.8439589653259,257.3044320423241 L405.04083684845665,259.91275784769823 M405.04083684845665,259.91275784769823 L416.0409450087075,261.05842995779966 M416.0409450087075,261.05842995779966 L427.20408153843886,260.67466879279533 M427.20408153843886,260.67466879279533 L437.88051886309,258.78384343040017 M437.88051886309,258.78384343040017 L447.44897513292716,255.49615684742508 M447.44897513292716,255.49615684742508 L455.35291283507115,251.00317130175057 M455.35291283507115,251.00317130175057 L461.1329865241424,245.56655682202933 M461.1329865241424,245.56655682202933 L464.45373052664127,239.50276083498028 M464.45373052664127,239.50276083498028 L465.1229607164299,233.1645049230658 M465.1229607164299,233.1645049230658 L463.1027548175404,226.9202096265962 M463.1027548175404,226.9202096265962 L458.51143302415113,221.132574382646 M458.51143302415113,221.132574382646 L451.6164712536277,216.13754198432082 M451.6826582558539,4.381209213952104 L458.59155200324744,9.365606240824434 M458.59155200324744,9.365606240824434 L463.1921568551424,15.140920970492118 M463.1921568551424,15.140920970492118 L465.21645478627045,21.371926591191198 M465.21645478627045,21.371926591191198 L464.54588409707407,27.696695994256572 M464.54588409707407,27.696695994256572 L461.2184410436123,33.747592430126076 M461.2184410436123,33.747592430126076 L455.4266958191706,39.172644029411515 M455.4266958191706,39.172644029411515 L447.50679057023893,43.65607541268827 M447.50679057023893,43.65607541268827 L437.9189987097729,46.9367718634814 M437.9189987097729,46.9367718634814 L427.2209832998339,48.82357742337166 M427.2209832998339,48.82357742337166 L416.03528348808027,49.20652276524976 M416.03528348808027,49.20652276524976 L405.01294206435887,48.06328622989355 M405.01294206435887,48.06328622989355 L394.7954567544246,45.46050582832703 M394.7954567544246,45.46050582832703 L385.97728457895516,41.5498604504931 M385.97728457895516,41.5498604504931 L379.0711360622398,36.55916289802627 M379.0711360622398,36.55916289802627 L374.47813800427446,30.77899101653037 M374.47813800427446,30.77899101653037 L372.46456580205944,24.545684334370605 M372.46456580205944,24.545684334370605 L373.1465240194979,18.221697104350653 M373.1465240194979,18.221697104350653 L376.483407659498,12.174486889650382 M376.483407659498,12.174486889650382 L382.2804838016485,6.75518109125079 M382.2804838016485,6.75518109125079 L390.20038905206195,2.278238795304617 M390.20038905206195,2.278238795304617 L399.78284999650293,-0.9967118512997217 M399.78284999650293,-0.9967118512997217 L410.47142481885265,-2.879831188425044 M410.47142481885265,-2.879831188425044 L421.6457370994865,-3.261994358038635 M421.6457370994865,-3.261994358038635 L432.65735279207655,-2.1210588859542554 M432.65735279207655,-2.1210588859542554 L442.86723130843836,0.4768643634228624 M442.86723130843836,0.4768643634228624 L451.6826582558539,4.381209213952104 M451.6164712536277,216.13754198432082 L451.6826582558539,4.381209213952104" stroke="black"  stroke-width="4"  fill="red"/></svg>