<svg version="1.1" xmlns="http://www.w3.org/2000/svg" viewBox="-11.000001 -18.590087273875927 22.000002 35.12700853030823" fill="none" stroke="black" stroke-width="0.6%" vector-effect="non-scaling-stroke">
    <path d="M 9.65926 6.61473 L 9.65926 -1.50769 A 10 9.04017 180 0 0 10 -3.84746" />
    <path d="M 8.93411 0.21375 A 10 9.04017 360 0 1 9.65926 6.61473 A 10 9.04017 360 0 1 6.72454 10.96594 A 10 9.04017 360 0 1 2.58819 13.00709 L 9.65926 6.61473" />
    <path d="M 2.58819 13.00709 L 2.58819 4.88468 A 10 9.04017 180 0 0 9.65926 -1.50769" />
    <path d="M -2.01736 14.83216 A 3 2.71205 180 0 0 2.01736 14.83216 L 6.72454 10.96594" />
    <path d="M -7.07107 10.66732 A 10 9.04017 360 0 1 -9.65926 1.93519 L -9.65926 -1.50769" />
    <path d="M 2.58819 13.00709 A 10 9.04017 360 0 1 -6.72454 10.96594 A 10 9.04017 360 0 1 -7.07107 10.66732 L 2.58819 13.00709 Z" />
    <path d="M -7.07107 2.54491 A 10 9.04017 180 0 0 2.58819 4.88468" />
    <path d="M -10 -3.84746 A 10 9.04017 180 0 0 -7.07107 2.54491" />
    <path d="M -7.07107 -14.94228 A 10 9.04017 360 0 1 10 -8.54991 L 10 -3.84746" />
    <path d="M 10 -8.54991 A 10 9.04017 360 0 1 -10 -8.54991 L -10 -3.84746" />
    <path d="M -10 -8.54991 A 10 9.04017 360 0 1 -7.07107 -14.94228" />
    <path d="M -7.07107 10.66732 L -7.07107 2.54491" />
    <path d="M -9.65926 1.93519 L -7.07107 10.66732" />
    <path d="M -5.3033 -13.34419 A 7.5 6.78013 360 0 1 -3.52458 -14.53471" />
    <path d="M 3.52458 -14.53471 A 7.5 6.78013 360 0 1 7.5 -8.54991 A 7.5 6.78013 360 0 1 -7.5 -8.54991 A 7.5 6.78013 360 0 1 -5.3033 -13.34419" />
    <path d="M -5.3033 -9.06923 A 7.5 6.78013 360 0 1 -4 -10.0103" />
    <path d="M 4 -10.0103 A 7.5 6.78013 360 0 1 7.11755 -6.41243" />
    <path d="M -7.11755 -6.41243 A 7.5 6.78013 360 0 1 -5.3033 -9.06923" />
    <path d="M -4 -4.27496 A 4 3.61607 180 0 0 -3.52458 -2.56512" />
    <path d="M 3.52458 -2.56512 A 4 3.61607 180 0 0 4 -4.27496" />
    <path d="M -2.82843 -15.38182 A 4 3.61607 360 0 1 4 -12.82487 L 4 -4.27496" />
    <path d="M 4 -12.82487 A 4 3.61607 360 0 1 -4 -12.82487 L -4 -4.27496" />
    <path d="M -4 -12.82487 A 4 3.61607 360 0 1 -2.82843 -15.38182" />
    <path d="M -2.19203 -14.8065 A 3.1 2.80245 360 0 1 3.1 -12.82487 A 3.1 2.80245 360 0 1 -3.1 -12.82487 A 3.1 2.80245 360 0 1 -2.19203 -14.8065 Z" />
    <path d="M -2.01736 14.83216 L -6.72454 10.96594" />
</svg>