<svg version="1.1" xmlns="http://www.w3.org/2000/svg" viewBox="-11.000001 -15.828519102368032 22.000002 36.27417996703775" fill="none" stroke="black" stroke-width="0.6%" vector-effect="non-scaling-stroke">
    <path d="M 9.65926 13.67668 L 9.65926 2.68985 A 10 8.15856 180 0 0 10 0.57825" />
    <path d="M 2.58819 19.44566 L 9.65926 13.67668" />
    <path d="M -7.07107 17.33407 L 2.58819 19.44566 L 2.58819 8.45882 A 10 8.15856 180 0 0 9.65926 2.68985" />
    <path d="M -9.65926 9.4535 L -7.07107 17.33407 L -7.07107 6.34723 A 10 8.15856 180 0 0 2.58819 8.45882" />
    <path d="M -9.65926 9.4535 L -9.65926 2.68985" />
    <path d="M -10 0.57825 A 10 8.15856 180 0 0 -7.07107 6.34723" />
    <path d="M -7.07107 -11.55152 A 10 8.15856 360 0 1 -3.21349 -13.50839" />
    <path d="M 3.21349 -13.50839 A 10 8.15856 360 0 1 10 -5.78255 L 10 0.57825" />
    <path d="M 10 -5.78255 A 10 8.15856 360 0 1 -10 -5.78255 L -10 0.57825" />
    <path d="M -10 -5.78255 A 10 8.15856 360 0 1 -7.07107 -11.55152" />
    <path d="M -5.3033 -10.10928 A 7.5 6.11892 360 0 1 -4 -10.95857" />
    <path d="M 4 -10.95857 A 7.5 6.11892 360 0 1 7.5 -5.78255 A 7.5 6.11892 360 0 1 -7.5 -5.78255 A 7.5 6.11892 360 0 1 -5.3033 -10.10928" />
    <path d="M -5.3033 -4.32673 A 7.5 6.11892 360 0 1 -4 -5.17603" />
    <path d="M 4 -5.17603 A 7.5 6.11892 360 0 1 6.60993 -2.89127" />
    <path d="M -6.60993 -2.89127 A 7.5 6.11892 360 0 1 -5.3033 -4.32673" />
    <path d="M -2.19203 -13.35348 A 3.1 2.52915 360 0 1 3.1 -11.56509 A 3.1 2.52915 360 0 1 -3.1 -11.56509 A 3.1 2.52915 360 0 1 -2.19203 -13.35348 Z" />
    <path d="M -2.82843 -13.87268 A 4 3.26343 360 0 1 4 -11.56509 L 4 -0.60652" />
    <path d="M 4 -11.56509 A 4 3.26343 360 0 1 -4 -11.56509 L -4 -0.60652" />
    <path d="M -4 -11.56509 A 4 3.26343 360 0 1 -2.82843 -13.87268" />
</svg>