<svg viewBox="0 0 800 800" xmlns="http://www.w3.org/2000/svg"><path d="M187.43018672431506,758.9920002578405 L187.3238665286541,729.1309628793151 M187.3238665286541,729.1309628793151 L193.1280435991378,733.411961381194 M193.1280435991378,733.411961381194 L196.97654537814128,738.3722584351431 M196.97654537814128,738.3722584351431 L198.64519327802913,743.7239167184472 M198.64519327802913,743.7239167184472 L198.0361971254647,749.1561125905583 M198.0361971254647,749.1561125905583 L195.18417210826016,754.3530649660729 M195.18417210826016,754.3530649660729 L190.25417052040874,759.0124949771397 M190.25417052040874,759.0124949771397 L183.53237967830106,762.8631634806952 M183.53237967830106,762.8631634806952 L175.40936748087813,765.6808577048474 M175.40936748087813,765.6808577048474 L166.3576543750262,767.3013748141194 M166.3576543750262,767.3013748141194 L156.9039416310314,767.6302806948381 M156.9039416310314,767.6302806948381 L147.59850494448372,766.6483821418831 M147.59850494448372,766.6483821418831 L138.98286158013605,764.4129374537082 M138.98286158013605,764.4129374537082 L131.55829209532834,761.0541998780368 M131.55829209532834,761.0541998780368 L125.75645542615013,756.7678388624993 M125.75645542615013,756.7678388624993 L121.91435510045557,751.8034077778543 M121.91435510045557,751.8034077778543 L120.25470317540066,746.4497910124388 M120.25470317540066,746.4497910124388 L120.87322900617403,741.0182608658484 M120.87322900617403,741.0182608658484 L123.73313422545988,735.8244459168907 M123.73313422545988,735.8244459168907 L128.66756130011987,731.169906296915 M128.66756130011987,731.169906296915 L135.3893090820389,727.3247607789176 M135.3893090820389,727.3247607789176 L143.50781953558322,724.511956948127 M143.50781953558322,724.511956948127 L152.55160351494362,722.894577266205 M152.55160351494362,722.894577266205 L161.99577619726097,722.5663371231468 M161.99577619726097,722.5663371231468 L171.29224744697655,723.5462771702894 M171.29224744697655,723.5462771702894 L179.90155382240758,725.7775878294748 M179.90155382240758,725.7775878294748 L187.3238665286541,729.1309628793151 M187.43018672431506,758.9920002578405 L180.0103597483088,755.6374841852486 M180.0103597483088,755.6374841852486 L171.4039403476592,753.4054142031769 M171.4039403476592,753.4054142031769 L162.11058989006375,752.4251406550181 M162.11058989006375,752.4251406550181 L152.66959097830687,752.7534925090098 M152.66959097830687,752.7534925090098 L143.62884983265332,754.371422614555 M143.62884983265332,754.371422614555 L135.51307490334415,757.1851835985873 M135.51307490334415,757.1851835985873 L128.79359659846818,761.0316373646483 M128.79359659846818,761.0316373646483 L123.86084109162312,765.6877603145801 M123.86084109162312,765.6877603145801 L121.00191211530944,770.8833416487338 M121.00191211530944,770.8833416487338 L120.38361002322694,776.3167185865706 M120.38361002322694,776.3167185865706 L122.0427196198977,781.672155211997 M122.0427196198977,781.672155211997 L125.88354256602071,786.6382734703484 M125.88354256602071,786.6382734703484 L131.68344066182476,790.9260909139286 M131.68344066182476,790.9260909139286 L139.1055229135299,794.2859695324262 M139.1055229135299,794.2859695324262 L147.7182750544782,796.522173558963 M147.7182750544782,796.522173558963 L157.02058492786227,797.5044056202655 M157.02058492786227,797.5044056202655 L166.47111748714246,797.1753880261213 M166.47111748714246,797.1753880261213 L175.51978242146026,795.5543204814815 M175.51978242146026,795.5543204814815 L183.64005605596634,792.7356690857804 M183.64005605596634,792.7356690857804 L190.35957737762388,788.8836923134857 M190.35957737762388,788.8836923134857 L195.28791035947046,784.222678954155 M195.28791035947046,784.222678954155 L198.13896442221073,779.0239601816988 M198.13896442221073,779.0239601816988 L198.7477432397705,773.589917515849 M198.7477432397705,773.589917515849 L197.079643720094,768.2364393798659 M197.079643720094,768.2364393798659 L193.23242363426445,763.2744551676869 M193.23242363426445,763.2744551676869 L187.43018672431506,758.9920002578405 M174.57839066200125,736.4271640013732 L177.72766698516352,738.7508440974365 M177.72766698516352,738.7508440974365 L179.81520177668133,741.4429943601393 M179.81520177668133,741.4429943601393 L180.71954173575097,744.3472446036906 M180.71954173575097,744.3472446036906 L180.38790081965007,747.2948620414489 M180.38790081965007,747.2948620414489 L178.83931598326296,750.1145221343685 M178.83931598326296,750.1145221343685 L176.1635540751127,752.6422982483579 M176.1635540751127,752.6422982483579 L172.51608898990023,754.7311147500952 M172.51608898990023,754.7311147500952 L168.108793426484,756.2594986770029 M168.108793426484,756.2594986770029 L163.1979994063762,757.1384570040433 M163.1979994063762,757.1384570040433 L158.06926797625604,757.3168476223829 M158.06926797625604,757.3168476223829 L153.0209079357141,756.7842845819242 M153.0209079357141,756.7842845819242 L148.34653335702853,755.5717693992847 M148.34653335702853,755.5717693992847 L144.31798990673954,753.7498573440463 M144.31798990673954,753.7498573440463 L141.16940271299404,751.4245982408436 M141.16940271299404,751.4245982408436 L139.0837528568311,748.731230694662 M139.0837528568311,748.731230694662 L138.18206180196677,745.826403766755 M138.18206180196677,745.826403766755 L138.51650876260908,742.8789823532093 M138.51650876260908,742.8789823532093 L140.06741395189698,740.0602460842672 M140.06741395189698,740.0602460842672 L142.74447896366723,737.5339099683692 M142.74447896366723,737.5339099683692 L146.39193136945352,735.4467197226282 M146.39193136945352,735.4467197226282 L150.797901374689,733.9197757982095 M150.797901374689,733.9197757982095 L155.70636063614813,733.0417412952163 M155.70636063614813,733.0417412952163 L160.83228296480127,732.8635467026039 M160.83228296480127,732.8635467026039 L165.8780030934993,733.395533061605 M165.8780030934993,733.395533061605 L170.550511718542,734.6068309676912 M170.550511718542,734.6068309676912 L174.57839066200125,736.4271640013732 M174.57839066200125,736.4271640013732 L174.43078008900792,696.5778899297973 M174.43078008900792,696.5778899297973 L177.58146098509036,698.9005138213843 M177.58146098509036,698.9005138213843 L179.66992310459077,701.5914405324484 M179.66992310459077,701.5914405324484 L180.57465912144673,704.4943709923517 M180.57465912144673,704.4943709923517 L180.24285977100925,707.4406491141565 M180.24285977100925,707.4406491141565 L178.69357100198067,710.2590281965081 M178.69357100198067,710.2590281965081 L176.01660038026213,712.7856560440939 M176.01660038026213,712.7856560440939 L172.3674919828837,714.8735237789227 M172.3674919828837,714.8735237789227 L167.95821396574604,716.4012135506243 M167.95821396574604,716.4012135506243 L163.04521370272363,717.2797726974236 M163.04521370272363,717.2797726974236 L157.9141806225139,717.4580823013116 M157.9141806225139,717.4580823013116 L152.8635575063281,716.9257611213536 M152.8635575063281,716.9257611213536 L148.18709014881838,715.7137966171273 M148.18709014881838,715.7137966171273 L144.15674599685832,713.8927120613805 M144.15674599685832,713.8927120613805 L141.0067548540502,711.568509172223 M141.0067548540502,711.568509172223 L138.9201793654488,708.876365185057 M138.9201793654488,708.876365185057 L138.01809463158122,705.9728580442925 M138.01809463158122,705.9728580442925 L138.35270254363485,703.0267759455124 M138.35270254363485,703.0267759455124 L139.90431374429812,700.2093206815397 M139.90431374429812,700.2093206815397 L142.58258863382355,697.6841328233191 M142.58258863382355,697.6841328233191 L146.2316843347068,695.5978913346316 M146.2316843347068,695.5978913346316 L150.63963559924866,694.0716415566926 M150.63963559924866,694.0716415566926 L155.55029900549542,693.1940062283422 M155.55029900549542,693.1940062283422 L160.6785204630482,693.0158926489936 M160.6785204630482,693.0158926489936 L165.72650130071236,693.5476371509885 M165.72650130071236,693.5476371509885 L170.40110103458815,694.7583843860382 M170.40110103458815,694.7583843860382 L174.43078008900792,696.5778899297973" stroke="black"  stroke-width="4"  fill="red"/>
<path d="M353.54332919447234,663.8353763203048 L353.49295273511234,634.0067724673229 M353.49295273511234,634.0067724673229 L357.99498257094876,637.3110174760525 M357.99498257094876,637.3110174760525 L360.98607667700657,641.1393882304528 M360.98607667700657,641.1393882304528 L362.29208033476397,645.269603126205 M362.29208033476397,645.269603126205 L361.83663759107577,649.4617259379175 M361.83663759107577,649.4617259379175 L359.64572610116716,653.4720962650708 M359.64572610116716,653.4720962650708 L355.84626513775424,657.0674860870416 M355.84626513775424,657.0674860870416 L350.65883926892525,660.0386953694281 M350.65883926892525,660.0386953694281 L344.38493008302544,662.2127625798182 M344.38493008302544,662.2127625798182 L337.38938272562774,663.4630882840378 M337.38938272562774,663.4630882840378 L330.0791579333948,663.7168504842286 M330.0791579333948,663.7168504842286 L322.87958002045985,662.9592694162969 M322.87958002045985,662.9592694162969 L316.20952720435974,661.234470858808 M316.20952720435974,661.234470858808 L310.4569665630082,658.6429032703577 M310.4569665630082,658.6429032703577 L305.95632431848935,655.3354573622096 M305.95632431848935,655.3354573622096 L302.96905015655625,651.5046189943333 M302.96905015655625,651.5046189943333 L301.6684236893771,647.3732350735387 M301.6684236893771,647.3732350735387 L302.1295690168761,643.1815096340802 M302.1295690168761,643.1815096340802 L304.32520209737316,639.1730120428085 M304.32520209737316,639.1730120428085 L308.1273219963003,635.580541300801 M308.1273219963003,635.580541300801 L313.31473501377127,632.6126287185543 M313.31473501377127,632.6126287185543 L319.5859625052698,630.4414805904468 M319.5859625052698,630.4414805904468 L326.57677367049416,629.1930276217064 M326.57677367049416,629.1930276217064 L333.8812927798584,628.9396627922483 M333.8812927798584,628.9396627922483 L341.07550261616854,629.6960748362791 M341.07550261616854,629.6960748362791 L347.74175472764153,631.4184057813272 M347.74175472764153,631.4184057813272 L353.49295273511234,634.0067724673229 M353.54332919447234,663.8353763203048 L347.7940564289071,661.2461251794305 M347.7940564289071,661.2461251794305 L341.1300371764706,659.523205650721 M341.1300371764706,659.523205650721 L333.938238267238,658.7665350986716 M333.938238267238,658.7665350986716 L326.63616834406673,659.0199865179384 M326.63616834406673,659.0199865179384 L319.6477026156556,660.2688661429223 M319.6477026156556,660.2688661429223 L313.3785807748941,662.4407561999185 M313.3785807748941,662.4407561999185 L308.19291140370296,665.4096828667848 M308.19291140370296,665.4096828667848 L304.39207181142774,669.0033809147167 M304.39207181142774,669.0033809147167 L302.1971811389833,673.0132477083324 M302.1971811389833,673.0132477083324 L301.73619690623843,677.2064046744367 M301.73619690623843,677.2064046744367 L303.0363934669788,681.3391992526558 M303.0363934669788,681.3391992526558 L306.0226713960228,685.1713454246774 M306.0226713960228,685.1713454246774 L310.52180875799195,688.4799202770279 M310.52180875799195,688.4799202770279 L316.2724432477651,691.0723723395593 M316.2724432477651,691.0723723395593 L322.9402606590975,692.7977594955127 M322.9402606590975,692.7977594955127 L330.13742404636355,693.555599078476 M330.13742404636355,693.555599078476 L337.4451958253487,693.3017502860927 M337.4451958253487,693.3017502860927 L344.43839456714295,692.0509979143949 M344.43839456714295,692.0509979143949 L350.71019630000455,689.8761887576045 M350.71019630000455,689.8761887576045 L355.89587850962783,686.9039653708213 M355.89587850962783,686.9039653708213 L359.6940609457991,683.3073482254142 M359.6940609457991,683.3073482254142 L361.8842331917586,679.2956086846821 M361.8842331917586,679.2956086846821 L362.33951866463025,675.1020543439398 M362.33951866463025,675.1020543439398 L361.0339485210698,670.9704287977764 M361.0339485210698,670.9704287977764 L358.04385321298355,667.1407502540342 M358.04385321298355,667.1407502540342 L353.54332919447234,663.8353763203048 M344.88960508854166,638.9317949152176 L347.59066019348575,640.9147240418138 M347.59066019348575,640.9147240418138 L349.3848554497232,643.2120444874246 M349.3848554497232,643.2120444874246 L350.16781540289827,645.690311566128 M350.16781540289827,645.690311566128 L349.89385636435395,648.2055436710971 M349.89385636435395,648.2055436710971 L348.57875148480787,650.6115348460248 M348.57875148480787,650.6115348460248 L346.29875208200485,652.7684200390123 M346.29875208200485,652.7684200390123 L343.1862979530128,654.5507497395427 M343.1862979530128,654.5507497395427 L339.4222712409861,655.854841490845 M339.4222712409861,655.854841490845 L335.2255223482124,656.6048069291627 M335.2255223482124,656.6048069291627 L330.84006191297635,656.7570216912288 M330.84006191297635,656.7570216912288 L326.5209634114723,656.3026118179592 M326.5209634114723,656.3026118179592 L322.51938451292324,655.2680308144688 M322.51938451292324,655.2680308144688 L319.06801467701496,653.7134726575789 M319.06801467701496,653.7134726575789 L316.36745910272634,651.7293912081456 M316.36745910272634,651.7293912081456 L314.5746390285258,649.4311824207837 M314.5746390285258,649.4311824207837 L313.7936148621635,646.9524944932429 M313.7936148621635,646.9524944932429 L314.06962683546715,644.4374054429005 M314.06962683546715,644.4374054429005 L315.38643148372375,642.0320884513754 M315.38643148372375,642.0320884513754 L317.66738810383976,639.8762541277573 M317.66738810383976,639.8762541277573 L320.77983760624295,638.0951112391203 M320.77983760624295,638.0951112391203 L324.54289890763494,636.7920703589875 M324.54289890763494,636.7920703589875 L328.7379427752232,636.0427791007261 M328.7379427752232,636.0427791007261 L333.12134916021284,635.8907073969461 M333.12134916021284,635.8907073969461 L337.4385151560828,636.3446964201243 M337.4385151560828,636.3446964201243 L341.43872579878746,637.3783890846911 M341.43872579878746,637.3783890846911 L344.88960508854166,638.9317949152176 M344.88960508854166,638.9317949152176 L344.81852677870876,599.126935149427 M344.81852677870876,599.126935149427 L347.52078733053287,601.1089590238754 M347.52078733053287,601.1089590238754 L349.3157818362756,603.4052307903994 M349.3157818362756,603.4052307903994 L350.0990882931698,605.8823667117945 M350.0990882931698,605.8823667117945 L349.82500271993064,608.3964509149971 M349.82500271993064,608.3964509149971 L348.50930547608175,610.8013441637532 M348.50930547608175,610.8013441637532 L346.2282821608122,612.9572452050438 M346.2282821608122,612.9572452050438 L343.11443201141924,614.7387617287501 M343.11443201141924,614.7387617287501 L339.34871830192503,616.0422585371784 M339.34871830192503,616.0422585371784 L335.1500895581373,616.7918818475771 M335.1500895581373,616.7918818475771 L330.76266578342563,616.9440271719445 M330.76266578342563,616.9440271719445 L326.4416347272726,616.4898245938655 M326.4416347272726,616.4898245938655 L322.4382665118492,615.4557155668567 M322.4382665118492,615.4557155668567 L318.98535469688886,613.9018666412063 M318.98535469688886,613.9018666412063 L316.2835941249398,611.9186904543719 M316.2835941249398,611.9186904543719 L314.48997603392377,609.6215303541537 M314.48997603392377,609.6215303541537 L313.7086070976004,607.1439735877383 M313.7086070976004,607.1439735877383 L313.9847474432495,604.6300324378647 M313.9847474432495,604.6300324378647 L315.30214597635836,602.2258133663968 M315.30214597635836,602.2258133663968 L317.58412736405944,600.0709631849445 M317.58412736405944,600.0709631849445 L320.69797288064933,598.2906334623679 M320.69797288064933,598.2906334623679 L324.46272031338515,596.988187515578 M324.46272031338515,596.988187515578 L328.6596425043774,596.2392383791214 M328.6596425043774,596.2392383791214 L333.0450103896939,596.0872361117426 M333.0450103896939,596.0872361117426 L337.36410721086213,596.541017843547 M337.36410721086213,596.541017843547 L341.36610594705417,597.574238539689 M341.36610594705417,597.574238539689 L344.81852677870876,599.126935149427" stroke="black"  stroke-width="4"  fill="red"/>
<path d="M589.534276333539,289.96355572646576 L589.6398388468644,180.0769342174215 M589.6398388468644,180.0769342174215 L604.7716118363719,190.52932969347134 M604.7716118363719,190.52932969347134 L616.0309487613633,202.46050540815278 M616.0309487613633,202.46050540815278 L622.98279309337,215.41397077028304 M622.98279309337,215.41397077028304 L625.3564448647792,228.89329303544642 M625.3564448647792,228.89329303544642 L623.0564974132994,242.38094696111054 M623.0564974132994,242.38094696111054 L616.167136604402,255.35813888456678 M616.167136604402,255.35813888456678 L604.9495499031589,267.32482393904775 M604.9495499031589,267.32482393904775 L589.8324377169777,277.81910557279423 M589.8324377169777,277.81910557279423 L571.3958928741147,286.43530738410743 M571.3958928741147,286.43530738410743 L550.3492493781474,292.83992528323546 M550.3492493781474,292.83992528323546 L527.5037014134655,296.7848030294595 M527.5037014134655,296.7848030294595 L503.7407427763235,298.1169857168625 M503.7407427763235,298.1169857168625 L479.97778413918144,296.7848030294595 M479.97778413918144,296.7848030294595 L457.1322361744996,292.83992528323546 M457.1322361744996,292.83992528323546 L436.0855926785323,286.43530738410743 M436.0855926785323,286.43530738410743 L417.649047835669,277.8191055727941 M417.649047835669,277.8191055727941 L402.5319356494882,267.32482393904775 M402.5319356494882,267.32482393904775 L391.3143489482448,255.35813888456678 M391.3143489482448,255.35813888456678 L384.4249881393476,242.38094696111054 M384.4249881393476,242.38094696111054 L382.1250406878679,228.89329303544642 M382.1250406878679,228.89329303544642 L384.4986924592768,215.41397077028304 M384.4986924592768,215.41397077028304 L391.4505367912837,202.46050540815278 M391.4505367912837,202.46050540815278 L402.70987371627507,190.52932969347134 M402.70987371627507,190.52932969347134 L417.8416467057829,180.07693421742133 M417.8416467057829,180.07693421742133 L436.26353091609894,171.5026186011073 M436.26353091609894,171.5026186011073 L457.26842425905755,165.1335101418782 M457.26842425905755,165.1335101418782 L480.0514886298904,161.21235905782854 M480.0514886298904,161.21235905782854 L503.7407427763235,159.88850806707435 M503.7407427763235,159.88850806707435 L527.4299969227566,161.21235905782854 M527.4299969227566,161.21235905782854 L550.2130612935894,165.1335101418782 M550.2130612935894,165.1335101418782 L571.217954636548,171.5026186011073 M571.217954636548,171.5026186011073 L589.6398388468644,180.0769342174215 M589.534276333539,289.96355572646576 L571.1350473058919,281.3781880671689 M571.1350473058919,281.3781880671689 L550.1559704116561,275.00086732618934 M550.1559704116561,275.00086732618934 L527.4008974736284,271.0746591997326 M527.4008974736284,271.0746591997326 L503.7407427763235,269.7491006646908 M503.7407427763235,269.7491006646908 L480.0805880790186,271.0746591997326 M480.0805880790186,271.0746591997326 L457.32551514099094,275.00086732618934 M457.32551514099094,275.00086732618934 L436.34643824675516,281.3781880671689 M436.34643824675516,281.3781880671689 L417.9472092191076,289.9635557264661 M417.9472092191076,289.9635557264661 L402.83406159478557,300.4294184220901 M402.83406159478557,300.4294184220901 L391.58860245059407,312.37595912844023 M391.58860245059407,312.37595912844023 L384.64534920107326,325.34609689015053 M384.64534920107326,325.34609689015053 L382.27466295863996,338.8427583279704 M382.27466295863996,338.8427583279704 L384.5718261246,352.3477518770603 M384.5718261246,352.3477518770603 L391.4527495019285,365.3416174837579 M391.4527495019285,365.3416174837579 L402.6565610889455,377.32366945098386 M402.6565610889455,377.32366945098386 L417.75508396201025,387.83142057028056 M417.75508396201025,387.83142057028056 L436.16893757097415,396.45867669045424 M436.16893757097415,396.45867669045424 L457.18966195199266,402.87150879217654 M457.18966195199266,402.87150879217654 L480.0070648326045,406.8214448642353 M480.0070648326045,406.8214448642353 L503.7407427763235,408.1553355465985 M503.7407427763235,408.1553355465985 L527.4744207200424,406.8214448642353 M527.4744207200424,406.8214448642353 L550.2918236006544,402.87150879217654 M550.2918236006544,402.87150879217654 L571.3125479816729,396.45867669045424 M571.3125479816729,396.45867669045424 L589.7264015906379,387.8314205702798 M589.7264015906379,387.8314205702798 L604.8249244637016,377.32366945098386 M604.8249244637016,377.32366945098386 L616.0287360507184,365.3416174837579 M616.0287360507184,365.3416174837579 L622.909659428047,352.3477518770603 M622.909659428047,352.3477518770603 L625.206822594007,338.8427583279704 M625.206822594007,338.8427583279704 L622.8361363515737,325.34609689015065 M622.8361363515737,325.34609689015065 L615.892883102053,312.37595912844023 M615.892883102053,312.37595912844023 L604.6474239578613,300.4294184220901 M604.6474239578613,300.4294184220901 L589.534276333539,289.96355572646576 M567.3245666268654,192.75867809652797 L579.8947306833795,201.69978236442975 M579.8947306833795,201.69978236442975 L588.6532408742987,212.00790138435312 M588.6532408742987,212.00790138435312 L593.1587546491005,223.16768655419227 M593.1587546491005,223.16768655419227 L593.1822232699913,234.6204022574241 M593.1822232699913,234.6204022574241 L588.7189984880852,245.79176100731368 M588.7189984880852,245.79176100731368 L579.9897532123063,256.1207349059364 M579.9897532123063,256.1207349059364 L567.4300337110253,265.0878447986081 M567.4300337110253,265.0878447986081 L551.6688573074657,272.24151557694097 M551.6688573074657,272.24151557694097 L533.4973268444398,277.2211048549407 M533.4973268444398,277.2211048549407 L513.8288046646704,279.7753698448845 M513.8288046646704,279.7753698448845 L493.65268088797654,279.7753698448845 M493.65268088797654,279.7753698448845 L473.98415870820713,277.2211048549407 M473.98415870820713,277.2211048549407 L455.81262824518126,272.24151557694097 M455.81262824518126,272.24151557694097 L440.0514518416215,265.0878447986079 M440.0514518416215,265.0878447986079 L427.49173234034066,256.1207349059364 M427.49173234034066,256.1207349059364 L418.7624870645618,245.79176100731368 M418.7624870645618,245.79176100731368 L414.2992622826558,234.6204022574241 M414.2992622826558,234.6204022574241 L414.32273090354636,223.16768655419227 M414.32273090354636,223.16768655419227 L418.82824467834826,212.00790138435312 M418.82824467834826,212.00790138435312 L427.58675486926745,201.69978236442975 M427.58675486926745,201.69978236442975 L440.15691892578167,192.75867809652797 M440.15691892578167,192.75867809652797 L455.90765083073086,185.6310129564326 M455.90765083073086,185.6310129564326 L474.04991639260106,180.67227858858743 M474.04991639260106,180.67227858858743 L493.67614954029045,178.1295872057727 M493.67614954029045,178.1295872057727 L513.8053360123565,178.1295872057727 M513.8053360123565,178.1295872057727 L533.4315691600459,180.67227858858743 M533.4315691600459,180.67227858858743 L551.5738347219162,185.6310129564326 M551.5738347219162,185.6310129564326 L567.3245666268654,192.75867809652797 M392.23651378730347,355.8648672424857 L473.83148195194735,402.4377285181062 M422.2323328632344,292.40492185383323 L392.23651378730347,355.8648672424857 M533.563306998549,275.43212796026364 L422.2323328632344,292.40492185383323 M615.1582753327195,321.83388439236126 L533.563306998549,275.43212796026364 M585.422545712796,385.37938211588573 L615.1582753327195,321.83388439236126 M473.83148195194735,402.4377285181062 L585.422545712796,385.37938211588573 M567.3245666268654,192.75867809652797 L566.7094986761592,213.1027669679012 M566.7094986761592,213.1027669679012 L566.0947003463432,233.43807083712986 M566.0947003463432,233.43807083712986 L565.4801632804871,253.76460004503102 M565.4801632804871,253.76460004503102 L564.865891399767,274.08235794569805 M564.865891399767,274.08235794569805 L564.2518886221062,294.39134788599824 M564.2518886221062,294.39134788599824 L576.5904161082794,303.26390139895807 M576.5904161082794,303.26390139895807 L585.0083802688928,313.5196645578999 M585.0083802688928,313.5196645578999 L589.0497158711735,324.607279111539 M589.0497158711735,324.607279111539 L588.4933572481839,335.9298006021021 M588.4933572481839,335.9298006021021 L583.3657921320032,346.8767124247074 M583.3657921320032,346.8767124247074 L573.9404198009634,356.85687575555994 M573.9404198009634,356.85687575555994 L560.7234381234025,365.33059304741596 M560.7234381234025,365.33059304741596 L544.426959342303,371.83905964079247 M544.426959342303,371.83905964079247 L525.9307292013357,376.0295266952861 M525.9307292013357,376.0295266952861 L506.2344281691908,377.67471213220796 M506.2344281691908,377.67471213220796 L486.40325242153557,376.6853535394945 M486.40325242153557,376.6853535394945 L467.50975576766376,373.1151331917109 M467.50975576766376,373.1151331917109 L450.57530368582746,367.1577141431653 M450.57530368582746,367.1577141431653 L436.51440257771236,359.13605034784604 M436.51440257771236,359.13605034784604 L426.0850737485131,349.48458739291027 M426.0850737485131,349.48458739291027 L419.84799259780783,338.7254171303089 M419.84799259780783,338.7254171303089 L418.13658612103535,327.4397576724231 M418.13658612103535,327.4397576724231 L421.0396669951594,316.2363622788007 M421.0396669951594,316.2363622788007 L428.3973869176012,305.71863647908606 M428.3973869176012,305.71863647908606 L439.8105487879834,296.4522221091778 M439.8105487879834,296.4522221091778 L454.66267849322674,288.93480473658053 M454.66267849322674,288.93480473658053 L472.1534996013244,283.5696709938501 M472.1534996013244,283.5696709938501 L491.34199934715286,280.64439804159895 M491.34199934715286,280.64439804159895 L511.1967544263581,280.3156981564201 M511.1967544263581,280.3156981564201 L530.6508661170299,282.601168986517 M530.6508661170299,282.601168986517 L548.6587624500355,287.3783936657103 M548.6587624500355,287.3783936657103 L564.2518886221062,294.39134788599824 M473.83148195194735,402.4377285181062 L473.82813153360144,392.44611289791516 M392.22403642535835,345.8786617228924 L473.82813153360144,392.44611289791516 M392.23651378730347,355.8648672424857 L392.22403642535835,345.8786617228924 M422.22322526952377,282.42610595996973 L392.22403642535835,345.8786617228924 M422.2323328632344,292.40492185383323 L422.22322526952377,282.42610595996973 M533.5666380205564,265.4552919618625 L422.22322526952377,282.42610595996973 M533.563306998549,275.43212796026364 L533.5666380205564,265.4552919618625 M615.170733298402,311.85163906778325 L533.5666380205564,265.4552919618625 M615.1582753327195,321.83388439236126 L615.170733298402,311.85163906778325 M585.4316920991055,375.38974677834904 L615.170733298402,311.85163906778325 M585.422545712796,385.37938211588573 L585.4316920991055,375.38974677834904 M473.82813153360144,392.44611289791516 L585.4316920991055,375.38974677834904" stroke="black"  stroke-width="4"  fill="red"/>
<path d="M473.86160197678043,492.2616488563593 L509.07477902559856,486.86775736222944 M509.0753758661637,476.8968784121133 L509.07477902559856,486.86775736222944 M509.0753758661637,476.8968784121133 L544.2838404558058,471.5049336933173 M544.2793050374341,481.47519101847513 L544.2838404558058,471.5049336933173 M544.2793050374341,481.47519101847513 L585.3403203085761,475.18553897924124 M585.3403203085761,475.18553897924124 L585.4316920991055,375.38974677834904 M473.82813153360144,392.44611289791516 L585.4316920991055,375.38974677834904 M473.86160197678043,492.2616488563593 L473.82813153360144,392.44611289791516 M422.31420971899837,382.1140256631073 L392.34868452536483,445.64025794487327 M533.5333612482959,365.12347147953517 L422.31420971899837,382.1140256631073 M615.0462788685572,411.57375117737905 L533.5333612482959,365.12347147953517 M605.6747564345026,431.641754206697 L615.0462788685572,411.57375117737905 M509.07477902559856,486.86775736222944 L605.6747564345026,431.641754206697 M392.34868452536483,445.64025794487327 L473.86160197678043,492.2616488563593 M515.7513005450825,421.74356626281565 L518.2772202349502,423.5835472065554 M518.2772202349502,423.5835472065554 L519.9586174727568,425.715235516734 M519.9586174727568,425.715235516734 L520.6976737628725,428.014812007166 M520.6976737628725,428.014812007166 L520.4512929332908,430.34866482930113 M520.4512929332908,430.34866482930113 L519.2336420329451,432.58114754986144 M519.2336420329451,432.58114754986144 L517.1153594557575,434.5824668189964 M517.1153594557575,434.5824668189964 L514.2194809228748,436.236235825506 M514.2194809228748,436.236235825506 L510.7143045528613,437.44625558264386 M510.7143045528613,437.44625558264386 L506.80360934576873,438.1421261666803 M506.80360934576873,438.1421261666803 L502.7147967968743,438.28335646954156 M502.7147967968743,438.28335646954156 L498.68564802113565,437.861727569844 M498.68564802113565,437.861727569844 L494.95046629987263,436.90177482149556 M494.95046629987263,436.90177482149556 L491.7264269268391,435.45935287388227 M491.7264269268391,435.45935287388227 L489.2009377026697,433.6183748729111 M489.2009377026697,433.6183748729111 L487.52073324656124,431.48591791954357 M487.52073324656124,431.48591791954357 L486.7833588030009,429.1859772864166 M486.7833588030009,429.1859772864166 L487.0315252533318,426.8522482430407 M487.0315252533318,426.8522482430407 L488.2506564837792,424.620348866447 M488.2506564837792,424.620348866447 L490.3697749748168,422.6199388693393 M490.3697749748168,422.6199388693393 L493.26565350774223,420.96719675982416 M493.26565350774223,420.96719675982416 L496.7699939639544,419.7580862749037 M496.7699939639544,419.7580862749037 L500.6792088409148,419.0627990348295 M500.6792088409148,419.0627990348295 L504.7662357689772,418.9216925107912 M504.7662357689772,418.9216925107912 L508.7937026980965,419.3429572674787 M508.7937026980965,419.3429572674787 L512.5276916376716,420.302141372322 M512.5276916376716,420.302141372322 L515.7513005450825,421.74356626281565 M605.6747564345026,431.641754206697 L605.68614777273,421.67724841588097 M605.68614777273,421.67724841588097 L509.0753758661637,476.8968784121133 M596.3049951327612,441.7613190433767 L605.68614777273,421.67724841588097 M544.2838404558058,471.5049336933173 L596.3049951327612,441.7613190433767 M596.2946473022753,451.7281446310358 L544.2793050374341,481.47519101847513 M596.3049951327612,441.7613190433767 L596.2946473022753,451.7281446310358 M585.3403203085761,475.18553897924124 L596.2946473022753,451.7281446310358 M615.0462788685572,411.57375117737905 L615.170733298402,311.85163906778325 M585.4316920991055,375.38974677834904 L615.170733298402,311.85163906778325 M392.22403642535835,345.8786617228924 L473.82813153360144,392.44611289791516 M422.22322526952377,282.42610595996973 L392.22403642535835,345.8786617228924 M615.170733298402,311.85163906778325 L533.5666380205564,265.4552919618625 M533.5666380205564,265.4552919618625 L422.22322526952377,282.42610595996973 M531.6478038148673,312.96265419204315 L537.5187668148606,317.22755754210874 M537.5187668148606,317.22755754210874 L541.4282094776488,322.1692067626881 M541.4282094776488,322.1692067626881 L543.1483807494953,327.5007637706016 M543.1483807494953,327.5007637706016 L542.5785340192003,332.9125452391379 M542.5785340192003,332.9125452391379 L539.7509610653626,338.0899834066744 M539.7509610653626,338.0899834066744 L534.8293052455003,342.7319151069946 M534.8293052455003,342.7319151069946 L528.099211637126,346.5681493439463 M528.099211637126,346.5681493439463 L519.9518065338511,349.37526570947665 M519.9518065338511,349.37526570947665 L510.86097323342995,350.9897036931603 M510.86097323342995,350.9897036931603 L501.3557234031752,351.31736936593734 M501.3557234031752,351.31736936593734 L491.98928959677596,350.3391634804151 M491.98928959677596,350.3391634804151 L483.306793480932,348.11210402511654 M483.306793480932,348.11210402511654 L475.81338399008047,344.7659732889253 M475.81338399008047,344.7659732889253 L469.9447459750351,340.49569699119877 M469.9447459750351,340.49569699119877 L466.0417456420599,335.54990569990093 M466.0417456420599,335.54990569990093 L464.3306581818482,330.21638639810857 M464.3306581818482,330.21638639810857 L464.9101492134668,324.80527194929607 M464.9101492134668,324.80527194929607 L467.7457175688762,319.6309773089355 M467.7457175688762,319.6309773089355 L472.67188823827604,314.99394549942247 M472.67188823827604,314.99394549942247 L479.40198184789705,311.1632450113715 M479.40198184789705,311.1632450113715 L487.5448721030507,308.3610285394574 M487.5448721030507,308.3610285394574 L496.62771000101606,306.7497340843014 M496.62771000101606,306.7497340843014 L506.12331552752636,306.4227354305798 M506.12331552752636,306.4227354305798 L515.4806655204245,307.39897902068503 M515.4806655204245,307.39897902068503 L524.156719306756,309.6218964049667 M524.156719306756,309.6218964049667 L531.6478038148673,312.96265419204315 M392.34868452536483,445.64025794487327 L392.22403642535835,345.8786617228924 M422.31420971899837,382.1140256631073 L422.22322526952377,282.42610595996973 M533.5333612482959,365.12347147953517 L533.5666380205564,265.4552919618625 M515.7513005450825,421.74356626281565 L515.7580130538954,371.90448339263276 M515.7580130538954,371.90448339263276 L518.2853447811224,373.7433995274997 M518.2853447811224,373.7433995274997 L519.96768220547,375.8738543237482 M519.96768220547,375.8738543237482 L520.7071520772229,378.1721002806163 M520.7071520772229,378.1721002806163 L520.4606340271419,380.5046028747165 M520.4606340271419,380.5046028747165 L519.2423029087308,382.7357941438363 M519.2423029087308,382.7357941438363 L517.1228365058618,384.73595579343373 M517.1228365058618,384.73595579343373 L514.2253392595105,386.3887682903087 M514.2253392595105,386.3887682903087 L510.71820336203564,387.59808823838705 M510.71820336203564,387.59808823838705 L506.8053217736889,388.2935563859453 M506.8053217736889,388.2935563859453 L502.7142231955889,388.4347050138819 M502.7142231955889,388.4347050138819 L498.6828217700345,388.01331994798375 M498.6828217700345,388.01331994798375 L494.94555185501815,387.05392237042963 M494.94555185501815,387.05392237042963 L491.71971021553185,385.6123346648418 M491.71971021553185,385.6123346648418 L489.1928094353738,383.77242149259183 M489.1928094353738,383.77242149259183 L487.5116661265592,381.64119806845633 M487.5116661265592,381.64119806845633 L486.77387998209576,379.342587976142 M486.77387998209576,379.342587976142 L487.0221856497059,377.0102091583368 M487.0221856497059,377.0102091583368 L488.241998753606,374.77960122157117 M488.241998753606,374.77960122157117 L490.36230200509016,372.7803488259001 M490.36230200509016,372.7803488259001 L493.2597992514842,371.12856320557717 M493.2597992514842,371.12856320557717 L496.7660983003927,369.920152511615 M496.7660983003927,369.920152511615 L500.67749790321994,369.22526769640666 M500.67749790321994,369.22526769640666 L504.76680886370764,369.0842428448286 M504.76680886370764,369.0842428448286 L508.7965265619085,369.50526377496595 M508.7965265619085,369.50526377496595 L512.5326023614023,370.46389272431645 M512.5326023614023,370.46389272431645 L515.7580130538954,371.90448339263276 M531.632210228949,362.85221645829324 L524.1453123737944,359.50951569243534 M524.1453123737944,359.50951569243534 L515.4741064559187,357.285305305224 M515.4741064559187,357.285305305224 L506.12198441999266,356.3084938242023 M506.12198441999266,356.3084938242023 L496.63168397506917,356.6356826991116 M496.63168397506917,356.6356826991116 L487.5539208931519,358.24791443423305 M487.5539208931519,358.24791443423305 L479.4155810208631,361.05176077990836 M479.4155810208631,361.05176077990836 L472.6892493407479,364.8846890215535 M472.6892493407479,364.8846890215535 L467.76583351975114,369.5244170066312 M467.76583351975114,369.5244170066312 L464.93185239815153,374.70171956183015 M464.93185239815153,374.70171956183015 L464.3526879791077,380.11597886090607 M464.3526879791077,380.11597886090607 L466.0628215285275,385.4525971832039 M466.0628215285275,385.4525971832039 L469.9636419967999,390.4012615571171 M469.9636419967999,390.4012615571171 L475.8290002613845,394.6740180176961 M475.8290002613845,394.6740180176961 L483.31822050080854,398.0220918500803 M483.31822050080854,398.0220918500803 L491.99586154805166,400.2504443988212 M491.99586154805166,400.2504443988212 L501.35705724512906,401.22921821814026 M501.35705724512906,401.22921821814026 L510.85699121502574,400.90136230959973 M510.85699121502574,400.90136230959973 L519.9427407634914,399.28598697725783 M519.9427407634914,399.28598697725783 L528.0855904379694,396.4772406308926 M528.0855904379694,396.4772406308926 L534.8119221168406,392.63877851942135 M534.8119221168406,392.63877851942135 L539.730828134235,387.9941505364618 M539.730828134235,387.9941505364618 L542.5568227901686,382.8137043853926 M542.5568227901686,382.8137043853926 L543.1263536866545,377.3987780520167 M543.1263536866545,377.3987780520167 L541.4071464779455,372.06412206647894 M541.4071464779455,372.06412206647894 L537.4998908800058,367.11959985379906 M537.4998908800058,367.11959985379906 L531.632210228949,362.85221645829324 M531.632210228949,362.85221645829324 L531.6478038148673,312.96265419204315" stroke="black"  stroke-width="4"  fill="red"/>
<path d="M496.7773429514254,498.21909296972905 L473.68452076873194,496.1850243027248 M473.68452076873194,496.1850243027248 L451.69668181088497,491.6743151172797 M451.69668181088497,491.6743151172797 L431.62162580654604,484.85349023525487 M431.62162580654604,484.85349023525487 L414.1959339669507,475.9741919813647 M414.1959339669507,475.9741919813647 L400.05778711918276,465.36364858397206 M400.05778711918276,465.36364858397206 L389.7235373239092,453.41237329818057 M389.7235373239092,453.41237329818057 L383.5689483944942,440.5595621350427 M383.5689483944942,440.5595621350427 L381.8158097185646,427.27675638621884 M381.8158097185646,427.27675638621884 L384.5243314240632,414.050401971631 M384.5243314240632,414.050401971631 L391.59149609694214,401.3640216864786 M391.59149609694214,401.3640216864786 L402.75540406313235,389.68057637249683 M402.75540406313235,389.68057637249683 L417.6053280078998,379.42572778681244 M417.6053280078998,379.42572778681244 L435.59706294164096,370.9725379935476 M435.59706294164096,370.9725379935476 L456.0729267118299,364.6281282776481 M456.0729267118299,364.6281282776481 L478.2857381595689,360.6227755388529 M478.2857381595689,360.6227755388529 L501.4258480268916,359.10175646920766 M501.4258480268916,359.10175646920766 L524.6502730886172,360.12022038221454 M524.6502730886172,360.12022038221454 L547.1130221600524,363.64123895175544 M547.1130221600524,363.64123895175544 L567.9954469418167,369.53711828893995 M567.9954469418167,369.53711828893995 L586.5357340885992,377.5938984366309 M586.5357340885992,377.5938984366309 L602.0564365968064,387.5189165661435 M602.0564365968064,387.5189165661435 L613.9890947028923,398.9512114471072 M613.9890947028923,398.9512114471072 L621.8950937873778,411.47441061244035 M621.8950937873778,411.47441061244035 L625.4820405930182,424.6316479270328 M625.4820405930182,424.6316479270328 L616.4078052448883,433.6386857537741 M616.4078052448883,433.6386857537741 L607.9125365764583,440.6208789320061 M607.9125365764583,440.6208789320061 L593.7598615734194,448.34112886636103 M593.7598615734194,448.34112886636103 L582.4846637876577,450.1821619697141 M582.4846637876577,450.1821619697141 L575.1959490737535,449.0071971753087 M575.1959490737535,449.0071971753087 L568.0002791312197,445.89151214883225 M568.0002791312197,445.89151214883225 L560.459188760248,440.50000773233626 M560.459188760248,440.50000773233626 L552.8172525319249,432.85998255006996 M552.8172525319249,432.85998255006996 L547.6147285886474,426.4669879928373 M547.6147285886474,426.4669879928373 L542.2888488853398,418.9896927514935 M542.2888488853398,418.9896927514935 L526.98391613019,462.09215844161713 M526.98391613019,462.09215844161713 L514.687610642057,495.0906568415106 M514.687610642057,495.0906568415106 L506.40809635149634,515.826132197335 M506.40809635149634,515.826132197335 L499.2691762047513,532.1122228198373 M499.2691762047513,532.1122228198373 L490.0953133277043,549.5673262986661 M490.0953133277043,549.5673262986661 L485.8871169009069,555.7128163219793 M485.8871169009069,555.7128163219793 L482.8559803340538,559.2312421213508 M482.8559803340538,559.2312421213508 L480.4435169493705,561.4367002562951 M480.4435169493705,561.4367002562951 L478.0514725197233,563.0800550931326 M478.0514725197233,563.0800550931326 L475.15024537304697,564.338296567882 M475.15024537304697,564.338296567882 L472.2116275427657,564.8075601889077 M472.2116275427657,564.8075601889077 L469.1981922423913,564.4936888316248 M469.1981922423913,564.4936888316248 L464.99733266229214,562.8483585827174 M464.99733266229214,562.8483585827174 L458.10810674985856,557.6625405071538 M458.10810674985856,557.6625405071538 L452.2915751492458,551.4900345246298 M452.2915751492458,551.4900345246298 L445.73375947275036,543.1675444255869 M445.73375947275036,543.1675444255869 L439.18801965119513,533.85776391667 M439.18801965119513,533.85776391667 L431.7728707595647,522.4817069476668 M431.7728707595647,522.4817069476668 L423.32174193517346,508.7832705485025 M423.32174193517346,508.7832705485025 L413.6444099558481,492.45350616708924 M413.6444099558481,492.45350616708924 L422.4602251710452,504.33340175632765 M422.4602251710452,504.33340175632765 L430.9882392960009,513.2700669254946 M430.9882392960009,513.2700669254946 L435.1897650072239,516.683894316569 M435.1897650072239,516.683894316569 L439.37348390610936,519.4149609737552 M439.37348390610936,519.4149609737552 L447.0361758651501,522.6790668002513 M447.0361758651501,522.6790668002513 L454.8077882244109,523.7425572742679 M454.8077882244109,523.7425572742679 L460.1039029588632,523.2372508315431 M460.1039029588632,523.2372508315431 L465.53105880520206,521.7573419650666 M465.53105880520206,521.7573419650666 L450.64458157751113,495.81565864919276 M450.64458157751113,495.81565864919276 L461.01741735004873,498.45206341242834 M461.01741735004873,498.45206341242834 L471.78671861100736,500.50687059962513 M471.78671861100736,500.50687059962513 L482.85260905620027,501.9609205697813 M482.85260905620027,501.9609205697813 L486.9875750887074,507.886242406969 M486.9875750887074,507.886242406969 L496.7773429514254,498.21909296972905 M625.4820405930182,424.6316479270328 L542.3069013045068,377.2264585054776 M542.3069013045068,377.2264585054776 L413.60214629606327,450.6547039061553 M413.60214629606327,450.6547039061553 L496.7773429514254,498.21909296972905 M542.2888488853398,418.9896927514935 L542.3069013045068,377.2264585054776 M413.6444099558481,492.45350616708924 L413.60214629606327,450.6547039061553 M465.5162859687464,487.3182695632712 L465.53105880520206,521.7573419650666 M465.5162859687464,487.3182695632712 L486.9860164754577,499.5978547852493 M486.9875750887074,507.886242406969 L486.9860164754577,499.5978547852493 M465.5162859687464,487.3182695632712 L450.64458157751113,495.81565864919276 M482.85260905620027,501.9609205697813 L486.9860164754577,499.5978547852493" stroke="black"  stroke-width="4"  fill="red"/>
<path d="M542.2424489199129,526.3333460975011 L542.3069013045068,377.2264585054776 M413.75303954389585,599.8882785840414 L413.60214629606327,450.6547039061553 M542.2424489199129,526.3333460975011 L413.75303954389585,599.8882785840414 M542.3069013045068,377.2264585054776 L413.60214629606327,450.6547039061553 M679.450629900025,604.8006977780659 L679.7452968245993,455.5586768721328 M679.450629900025,604.8006977780659 L542.2424489199129,526.3333460975011 M679.7452968245993,455.5586768721328 L542.3069013045068,377.2264585054776 M413.75303954389585,599.8882785840414 L550.9614767892756,678.6187963661204 M413.60214629606327,450.6547039061553 L551.0407993728686,529.2500764473903 M550.9614767892756,678.6187963661204 L551.0407993728686,529.2500764473903 M465.5162859687464,487.3182695632712 L486.9860164754577,499.5978547852493 M486.99819267117766,564.3483821548433 L486.9860164754577,499.5978547852493 M465.5440571422277,552.0596248930613 L486.99819267117766,564.3483821548433 M465.5162859687464,487.3182695632712 L465.5440571422277,552.0596248930613 M550.9614767892756,678.6187963661204 L679.450629900025,604.8006977780659 M593.4004177141992,589.8904808690475 L524.8727949906402,629.2026886451764 M548.8520143945985,564.3940259031766 L593.4004177141992,589.8904808690475 M519.6874852639983,581.1054270740844 L548.8520143945985,564.3940259031766 M515.7312079363953,570.9273092331722 L518.119048787689,572.6458084464243 M518.119048787689,572.6458084464243 L519.772035761529,574.6277409610179 M519.772035761529,574.6277409610179 L520.6055805339277,576.7718332223103 M520.6055805339277,576.7718332223103 L520.5769512552523,578.9684978450243 M520.5769512552523,578.9684978450243 L519.6874852639983,581.1054270740844 M509.5187931350439,586.9321315886486 L505.604680500844,587.4544951197103 M505.604680500844,587.4544951197103 L501.5858771610611,587.4346091124488 M501.5858771610611,587.4346091124488 L497.6881059924848,586.8735901251903 M497.6881059924848,586.8735901251903 L494.1302774113242,585.802968919987 M494.1302774113242,585.802968919987 L491.1121764724124,584.2829077032115 M491.1121764724124,584.2829077032115 L488.80322870964335,582.3988112548847 M488.80322870964335,582.3988112548847 L487.3329866387182,580.2565132976764 M487.3329866387182,580.2565132976764 L486.78386894049606,577.9763177799298 M486.78386894049606,577.9763177799298 L487.18655822206216,575.6862352207198 M487.18655822206216,575.6862352207198 L488.51830837475524,573.5147931992957 M488.51830837475524,573.5147931992957 L490.7042534801556,571.5838224648187 M490.7042534801556,571.5838224648187 L493.6216370976313,570.001633285043 M493.6216370976313,570.001633285043 L497.10671324733624,568.8569510758387 M497.10671324733624,568.8569510758387 L500.9639373765577,568.2139555304088 M500.9639373765577,568.2139555304088 L504.976924762353,568.1086934479658 M504.976924762353,568.1086934479658 L508.92056900156916,568.5470649856197 M508.92056900156916,568.5470649856197 L512.5736475419224,569.5044968063894 M512.5736475419224,569.5044968063894 L515.7312079363953,570.9273092331722 M480.3243573794144,603.6606693848828 L509.5187931350439,586.9321315886486 M524.8727949906402,629.2026886451764 L480.3243573794144,603.6606693848828 M551.0407993728686,529.2500764473903 L679.7452968245993,455.5586768721328 M515.7513005450825,421.74356626281565 L518.2772202349502,423.5835472065554 M518.2772202349502,423.5835472065554 L519.9586174727568,425.715235516734 M519.9586174727568,425.715235516734 L520.6976737628725,428.014812007166 M520.6976737628725,428.014812007166 L520.4512929332908,430.34866482930113 M520.4512929332908,430.34866482930113 L519.2336420329451,432.58114754986144 M519.2336420329451,432.58114754986144 L517.1153594557575,434.5824668189964 M517.1153594557575,434.5824668189964 L514.2194809228748,436.236235825506 M514.2194809228748,436.236235825506 L510.7143045528613,437.44625558264386 M510.7143045528613,437.44625558264386 L506.80360934576873,438.1421261666803 M506.80360934576873,438.1421261666803 L502.7147967968743,438.28335646954156 M502.7147967968743,438.28335646954156 L498.68564802113565,437.861727569844 M498.68564802113565,437.861727569844 L494.95046629987263,436.90177482149556 M494.95046629987263,436.90177482149556 L491.7264269268391,435.45935287388227 M491.7264269268391,435.45935287388227 L489.2009377026697,433.6183748729111 M489.2009377026697,433.6183748729111 L487.52073324656124,431.48591791954357 M487.52073324656124,431.48591791954357 L486.7833588030009,429.1859772864166 M486.7833588030009,429.1859772864166 L487.0315252533318,426.8522482430407 M487.0315252533318,426.8522482430407 L488.2506564837792,424.620348866447 M488.2506564837792,424.620348866447 L490.3697749748168,422.6199388693393 M490.3697749748168,422.6199388693393 L493.26565350774223,420.96719675982416 M493.26565350774223,420.96719675982416 L496.7699939639544,419.7580862749037 M496.7699939639544,419.7580862749037 L500.6792088409148,419.0627990348295 M500.6792088409148,419.0627990348295 L504.7662357689772,418.9216925107912 M504.7662357689772,418.9216925107912 L508.7937026980965,419.3429572674787 M508.7937026980965,419.3429572674787 L512.5276916376716,420.302141372322 M512.5276916376716,420.302141372322 L515.7513005450825,421.74356626281565 M514.4832366754176,498.51526014299077 L501.59260459379914,491.1453006895089 M626.0272670831437,434.7243611062 L514.4832366754176,498.51526014299077 M613.1366642936064,427.37579723624356 L626.0272670831437,434.7243611062 M501.59260459379914,491.1453006895089 L613.1366642936064,427.37579723624356 M551.3872953319758,462.7796940985183 L529.9175670343702,450.52068883883663 M486.9860164754577,499.5978547852493 L551.3872953319758,462.7796940985183 M529.9175670343702,450.52068883883663 L465.5162859687464,487.3182695632712 M486.99819267117766,564.3483821548433 L517.0437208839372,547.1460463969993 M517.0437208839372,547.1460463969993 L517.0446378741766,541.0076767692422 M517.0446378741766,541.0076767692422 L534.1308187119687,531.2264814059085 M534.1308187119687,531.2264814059085 L521.3403143803114,512.8314603779115 M521.3403143803114,512.8314603779115 L536.3690105212247,474.0448415493777 M536.3690105212247,474.0448415493777 L551.38586302248,465.4591945994497 M551.38586302248,465.4591945994497 L551.3872953319758,462.7796940985183 M548.2963050801008,525.7549600446547 L513.9873268665111,545.3967377136732 M513.9873268665111,545.3967377136732 L517.0437208839372,547.1460463969993 M529.8985647440732,515.2345288946764 L465.5440571422277,552.0596248930613 M548.2963050801008,525.7549600446547 L529.8985647440732,515.2345288946764 M529.9167803491533,453.1998091184551 L529.9175670343702,450.52068883883663 M529.9167803491533,453.1998091184551 L514.8999246331316,461.78065870266795 M514.8999246331316,461.78065870266795 L499.87850157790297,500.5581961686927 M499.87850157790297,500.5581961686927 L514.8923679733961,522.1408814517065 M514.8923679733961,522.1408814517065 L529.8990581942273,513.5540443923952 M529.8985647440732,515.2345288946764 L529.8990581942273,513.5540443923952 M593.4004177141992,589.8904808690475 L633.8661901705598,532.0254815631449 M565.2763429557081,571.342383878714 L633.8661901705598,532.0254815631449 M524.8727949906402,629.2026886451764 L565.2763429557081,571.342383878714 M548.8520143945985,564.3940259031766 L545.1431317048589,559.7885967532936 M545.1431317048589,559.7885967532936 L591.658283643457,493.1093500252052 M591.658283643457,493.1093500252052 L591.6422885305212,509.3204480624571 M591.6422885305212,509.3204480624571 L604.5228112624037,516.6790472200269 M604.5228112624037,516.6790472200269 L604.5466129746916,495.6407448130383 M633.8661901705598,532.0254815631449 L604.5466129746916,495.6407448130383 M519.6874852639983,581.1054270740844 L520.418333786429,578.9070799471308 M520.418333786429,578.9070799471308 L520.6979969959427,576.4821402786245 M520.6979969959427,576.4821402786245 L520.518946695769,573.8962017654127 M545.1431317048589,559.7885967532936 L520.518946695769,573.8962017654127 M520.518946695769,573.8962017654127 L520.6158646654628,571.9971060536759 M520.6158646654628,571.9971060536759 L519.8236990133577,571.2055006341843 M519.8236990133577,571.2055006341843 L518.7420891187319,571.2022951428224 M518.7420891187319,571.2022951428224 L517.537975637568,571.5708073096367 M517.537975637568,571.5708073096367 L516.2380339246871,572.1854470507998 M516.2380339246871,572.1854470507998 L514.7530978929035,573.0588786808398 M514.7530978929035,573.0588786808398 L513.1051515313688,574.1782066263365 M513.1051515313688,574.1782066263365 L511.3185977388836,575.5268361519406 M511.3185977388836,575.5268361519406 L509.41989746089325,577.0847823591599 M509.41989746089325,577.0847823591599 L507.43717365210364,578.8289885252295 M507.43717365210364,578.8289885252295 L504.7137250241926,581.3992996022603 M504.7137250241926,581.3992996022603 L502.9858655477542,583.1290258038674 M502.9858655477542,583.1290258038674 L501.265914391024,584.9265840883463 M501.265914391024,584.9265840883463 L504.0503549451002,586.0204341617991 M504.0503549451002,586.0204341617991 L506.82635762314874,586.6950259608313 M506.82635762314874,586.6950259608313 L509.5187931350439,586.9321315886486 M515.7312079363953,570.9273092331722 L515.7513005450825,421.74356626281565 M476.6135628826743,599.0503261562089 L480.3243573794144,603.6606693848828 M501.265914391024,584.9265840883463 L476.6135628826743,599.0503261562089 M535.9416082534576,534.9187539497366 L565.2763429557081,571.342383878714 M535.9416082534576,534.9187539497366 L535.9339983674461,555.9665891333318 M535.9339983674461,555.9665891333318 L523.0534576443922,548.5948231714889 M523.0534576443922,548.5948231714889 L523.0569750492705,532.3763798649348 M517.0446378741766,541.0076767692422 L523.0569750492705,532.3763798649348 M476.6135628826743,599.0503261562089 L513.9873268665111,545.3967377136732 M501.5942857819678,560.882473425409 L514.4748279133148,568.2583612614278 M514.4748279133148,568.2583612614278 L514.4832366754176,498.51526014299077 M501.5942857819678,560.882473425409 L501.59260459379914,491.1453006895089 M514.4748279133148,568.2583612614278 L535.9339983674461,555.9665891333318 M535.9416082534576,534.9187539497366 L604.5466129746916,495.6407448130383 M604.5228112624037,516.6790472200269 L625.9316853987343,504.41608472735504 M625.9316853987343,504.41608472735504 L626.0272670831437,434.7243611062 M625.9316853987343,504.41608472735504 L613.0511724908074,497.0615929623031 M613.0511724908074,497.0615929623031 L613.1366642936064,427.37579723624356 M613.0511724908074,497.0615929623031 L591.6422885305212,509.3204480624571 M580.5921713091484,499.4435347826943 L591.658283643457,493.1093500252052 M580.5921713091484,499.4435347826943 L587.3871017651653,481.9159664561338 M587.3871017651653,481.9159664561338 L572.4103308855374,460.3094177376929 M572.4103308855374,460.3094177376929 L542.3825033550696,477.4800402367406 M542.3825033550696,477.4800402367406 L527.3517697142361,516.2692025795814 M527.3517697142361,516.2692025795814 L534.1396908534493,526.0326913682287 M523.0569750492705,532.3763798649348 L534.1396908534493,526.0326913682287 M523.0534576443922,548.5948231714889 L501.5942857819678,560.882473425409 M551.38586302248,465.4591945994497 L529.9167803491533,453.1998091184551 M534.1396908534493,526.0326913682287 L534.1308187119687,531.2264814059085 M527.3517697142361,516.2692025795814 L521.3403143803114,512.8314603779115 M542.3825033550696,477.4800402367406 L536.3690105212247,474.0448415493777 M572.4103308855374,460.3094177376929 L544.4985045700619,444.37729356915963 M514.4706657552033,461.5354452178028 L544.4985045700619,444.37729356915963 M514.8999246331316,461.78065870266795 L514.4706657552033,461.5354452178028 M549.1342277087242,524.5529241522547 L548.2963050801008,525.7549600446547 M549.1342277087242,524.5529241522547 L564.1350489121043,515.9651443216743 M564.1350489121043,515.9651443216743 L580.5921713091484,499.4435347826943 M529.8990581942273,513.5540443923952 L549.1342277087242,524.5529241522547 M499.4493881025563,500.3128010985206 L514.4706657552033,461.5354452178028 M499.87850157790297,500.5581961686927 L499.4493881025563,500.3128010985206 M514.4633998171514,521.8954968953495 L499.4493881025563,500.3128010985206 M514.8923679733961,522.1408814517065 L514.4633998171514,521.8954968953495 M544.4709155894691,504.72537036886035 L514.4633998171514,521.8954968953495 M564.1350489121043,515.9651443216743 L544.4709155894691,504.72537036886035 M559.4847426943438,465.9845069403163 L544.4709155894691,504.72537036886035 M587.3871017651653,481.9159664561338 L559.4847426943438,465.9845069403163 M544.4985045700619,444.37729356915963 L559.4847426943438,465.9845069403163" stroke="black"  stroke-width="4"  fill="red"/>
<path d="M544.950184652866,305.3856100700352 L545.0055439245959,185.43339062886176 M545.0055439245959,185.43339062886176 L553.6889762305673,191.72159659970603 M553.6889762305673,191.72159659970603 L559.4729629257206,199.00833205805898 M559.4729629257206,199.00833205805898 L562.0201538354321,206.87089252085556 M562.0201538354321,206.87089252085556 L561.180818893187,214.85270432441845 M561.180818893187,214.85270432441845 L557.001932611968,222.48976786672486 M557.001932611968,222.48976786672486 L549.7248588846619,229.3376601098188 M549.7248588846619,229.3376601098188 L539.771669098365,234.9974932721524 M539.771669098365,234.9974932721524 L527.7208050800655,239.1393052514621 M527.7208050800655,239.1393052514621 L514.2734622735868,241.52147321222068 M514.2734622735868,241.52147321222068 L500.2126469692815,242.00496732250744 M500.2126469692815,242.00496732250744 L486.3573334632513,240.56156452224005 M486.3573334632513,240.56156452224005 L473.5144383491643,237.27551655319203 M473.5144383491643,237.27551655319203 L462.4315470042867,232.3385725699948 M462.4315470042867,232.3385725699948 L453.75319984619773,226.0386472803951 M453.75319984619773,226.0386472803951 L447.9833036152887,218.74287726314262 M447.9833036152887,218.74287726314262 L445.45598053652543,210.87603670377692 M445.45598053652543,210.87603670377692 L446.3164092054648,202.895679783313 M446.3164092054648,202.895679783313 L450.5127827871067,195.26547280893087 M450.5127827871067,195.26547280893087 L457.7997312606295,188.42826806287414 M457.7997312606295,188.42826806287414 L467.75292105289,182.78050495250235 M467.75292105289,182.78050495250235 L479.79391033174784,178.64938047627558 M479.79391033174784,178.64938047627558 L493.2237658335744,176.27406908788234 M493.2237658335744,176.27406908788234 L507.26348739960514,175.79202986006484 M507.26348739960514,175.79202986006484 L521.0989330657596,177.2311525577878 M521.0989330657596,177.2311525577878 L533.9277377170399,180.5081659598384 M533.9277377170399,180.5081659598384 L545.0055439245959,185.43339062886176 M544.950184652866,305.3856100700352 L533.8872445732959,300.4534595499615 M533.8872445732959,300.4534595499615 L521.0756503597736,297.1718371833349 M521.0756503597736,297.1718371833349 L507.2587624644738,295.7306902183685 M507.2587624644738,295.7306902183685 L493.23787204561734,296.213407495861 M493.23787204561734,296.213407495861 L479.8260314898611,298.59205985363866 M479.8260314898611,298.59205985363866 L467.8011979979705,302.7289940915285 M467.8011979979705,302.7289940915285 L457.8613681845365,308.38469816986435 M457.8613681845365,308.38469816986435 L450.58420745517805,315.23151365332194 M450.58420745517805,315.23151365332194 L446.39347829944643,322.8724426495173 M446.39347829944643,322.8724426495173 L445.5342187036179,330.86400978626193 M445.5342187036179,330.86400978626193 L448.05816272594063,338.7418972609904 M448.05816272594063,338.7418972609904 L453.82032358676565,346.04790886598505 M453.82032358676565,346.04790886598505 L462.48702537626247,352.35667516645447 M462.48702537626247,352.35667516645447 L473.5550369509509,357.3005457089531 M473.5550369509509,357.3005457089531 L486.3806838259122,360.59120318857117 M486.3806838259122,360.59120318857117 L500.21738626037364,362.0366305147433 M500.21738626037364,362.0366305147433 L514.2593138279926,361.552458266858 M514.2593138279926,361.552458266858 L527.6885947741048,359.1669489223474 M527.6885947741048,359.1669489223474 L539.7232765138624,355.0193265354844 M539.7232765138624,355.0193265354844 L549.6631063213647,349.3515516757343 M549.6631063213647,349.3515516757343 L556.9304187961175,342.4940480493342 M556.9304187961175,342.4940480493342 L561.1037075656998,334.84626207083056 M561.1037075656998,334.84626207083056 L561.941930024284,326.8532399630586 M561.941930024284,326.8532399630586 L559.3981714716792,318.97963284357206 M559.3981714716792,318.97963284357206 L553.6219579479853,311.68265634348893 M553.6219579479853,311.68265634348893 L544.950184652866,305.3856100700352 M531.6852996561506,192.9997977814031 L537.564155296537,197.25871543259942 M537.564155296537,197.25871543259942 L541.4788569178407,202.1934305522473 M541.4788569178407,202.1934305522473 L543.2013463584931,207.51750802296252 M543.2013463584931,207.51750802296252 L542.6307401960665,212.92169919299457 M542.6307401960665,212.92169919299457 L539.7993721248426,218.0918774227006 M539.7993721248426,218.0918774227006 L534.8711042185414,222.7273014848544 M534.8711042185414,222.7273014848544 L528.1319647877533,226.558158608716 M528.1319647877533,226.558158608716 L519.9736058317686,229.36134091130302 M519.9736058317686,229.36134091130302 L510.8705482842151,230.9735165428231 M510.8705482842151,230.9735165428231 L501.3525160838377,231.30072306905694 M501.3525160838377,231.30072306905694 L491.9734868658351,230.32388792904234 M491.9734868658351,230.32388792904234 L483.27931638995983,228.0999494384126 M483.27931638995983,228.0999494384126 L475.77583354828266,224.75850848729326 M475.77583354828266,224.75850848729326 L469.8993091470079,220.4942182131352 M469.8993091470079,220.4942182131352 L465.9910671852493,215.55536127308469 M465.9910671852493,215.55536127308469 L464.27768599149147,210.2293216270775 M464.27768599149147,210.2293216270775 L464.85796239820604,204.8257974364594 M464.85796239820604,204.8257974364594 L467.69734737846255,199.65876254395752 M467.69734737846255,199.65876254395752 L472.63014227915346,195.0282380764987 M472.63014227915346,195.0282380764987 L479.36928171119496,191.20291436712174 M479.36928171119496,191.20291436712174 L487.52311367421385,188.4046316620422 M487.52311367421385,188.4046316620422 L496.61815431184596,186.7955993690815 M496.61815431184596,186.7955993690815 L506.1265162655014,186.46905982159402 M506.1265162655014,186.46905982159402 L515.4964372347332,187.4439327847758 M515.4964372347332,187.4439327847758 L524.1841480513655,189.6637294547007 M524.1841480513655,189.6637294547007 L531.6852996561506,192.9997977814031 M531.6478038148673,312.96265419204315 L537.5187668148606,317.22755754210874 M537.5187668148606,317.22755754210874 L541.4282094776488,322.1692067626881 M541.4282094776488,322.1692067626881 L543.1483807494953,327.5007637706016 M543.1483807494953,327.5007637706016 L542.5785340192003,332.9125452391379 M542.5785340192003,332.9125452391379 L539.7509610653626,338.0899834066744 M539.7509610653626,338.0899834066744 L534.8293052455003,342.7319151069946 M534.8293052455003,342.7319151069946 L528.099211637126,346.5681493439463 M528.099211637126,346.5681493439463 L519.9518065338511,349.37526570947665 M519.9518065338511,349.37526570947665 L510.86097323342995,350.9897036931603 M510.86097323342995,350.9897036931603 L501.3557234031752,351.31736936593734 M501.3557234031752,351.31736936593734 L491.98928959677596,350.3391634804151 M491.98928959677596,350.3391634804151 L483.306793480932,348.11210402511654 M483.306793480932,348.11210402511654 L475.81338399008047,344.7659732889253 M475.81338399008047,344.7659732889253 L469.9447459750351,340.49569699119877 M469.9447459750351,340.49569699119877 L466.0417456420599,335.54990569990093 M466.0417456420599,335.54990569990093 L464.3306581818482,330.21638639810857 M464.3306581818482,330.21638639810857 L464.9101492134668,324.80527194929607 M464.9101492134668,324.80527194929607 L467.7457175688762,319.6309773089355 M467.7457175688762,319.6309773089355 L472.67188823827604,314.99394549942247 M472.67188823827604,314.99394549942247 L479.40198184789705,311.1632450113715 M479.40198184789705,311.1632450113715 L487.5448721030507,308.3610285394574 M487.5448721030507,308.3610285394574 L496.62771000101606,306.7497340843014 M496.62771000101606,306.7497340843014 L506.12331552752636,306.4227354305798 M506.12331552752636,306.4227354305798 L515.4806655204245,307.39897902068503 M515.4806655204245,307.39897902068503 L524.156719306756,309.6218964049667 M524.156719306756,309.6218964049667 L531.6478038148673,312.96265419204315 M531.6478038148673,312.96265419204315 L531.6852996561506,192.9997977814031" stroke="black"  stroke-width="4"  fill="red"/>
<path d="M535.9826572473385,190.55873464774746 L536.0477650258243,10.0139961787429 M536.0477650258243,10.0139961787429 L542.8449727199591,14.917193424816446 M542.8449727199591,14.917193424816446 L547.3716447916613,20.598605891258558 M547.3716447916613,20.598605891258558 L549.3639700520703,26.72852368108886 M549.3639700520703,26.72852368108886 L548.7051201635554,32.95092017345519 M548.7051201635554,32.95092017345519 L545.4322810596923,38.90409926622897 M545.4322810596923,38.90409926622897 L539.7347421679679,44.241725595515504 M539.7347421679679,44.241725595515504 L531.9431033647436,48.653037624070066 M531.9431033647436,48.653037624070066 L522.5101853150813,51.88103580785514 M522.5101853150813,51.88103580785514 L511.984713013157,53.73756334294217 M511.984713013157,53.73756334294217 L500.97930726691635,54.114366730897245 M500.97930726691635,54.114366730897245 L490.13466474547477,52.98947079034622 M490.13466474547477,52.98947079034622 L480.0820820979356,50.428474886362665 M480.0820820979356,50.428474886362665 L471.40651461334926,46.58068711470696 M471.40651461334926,46.58068711470696 L464.6124231957427,41.670337767834894 M464.6124231957427,41.670337767834894 L460.0943860431297,35.98341166238049 M460.0943860431297,35.98341166238049 L458.11423619189634,29.850881801399623 M458.11423619189634,29.850881801399623 L458.7860127373028,23.629373199782435 M458.7860127373028,23.629373199782435 L462.06956840974993,17.68037855495311 M462.06956840974993,17.68037855495311 L467.77315874435124,12.349274625164526 M467.77315874435124,12.349274625164526 L475.56479754981484,7.945328744359358 M475.56479754981484,7.945328744359358 L484.991664159145,4.723852960563022 M484.991664159145,4.723852960563022 L495.50641989089684,2.8715098758668773 M495.50641989089684,2.8715098758668773 L506.49889897589685,2.4955943797344844 M506.49889897589685,2.4955943797344844 L517.3313660848103,3.617878246437158 M517.3313660848103,3.617878246437158 L527.3753138138,6.17336050796132 M527.3753138138,6.17336050796132 L536.0477650258243,10.0139961787429 M535.9826572473385,190.55873464774746 L527.3276876792675,186.70990177124727 M527.3276876792675,186.70990177124727 L517.3039811648961,184.14896449256318 M517.3039811648961,184.14896449256318 L506.4933414722846,183.02428476954216 M506.4933414722846,183.02428476954216 L495.523011654128,183.40100278470587 M495.523011654128,183.40100278470587 L485.0294442563186,185.25730013154183 M485.0294442563186,185.25730013154183 L475.62157734116033,188.4856521531498 M475.62157734116033,188.4856521531498 L467.84564747952084,192.89899669148 M467.84564747952084,192.89899669148 L462.1535623974407,198.24147555440024 M462.1535623974407,198.24147555440024 L458.8766375702098,204.20316039972462 M458.8766375702098,204.20316039972462 L458.20622841578853,210.43793699803413 M458.20622841578853,210.43793699803413 L460.18239828353626,216.58354157591137 M460.18239828353626,216.58354157591137 L464.6913351866959,222.28258923299947 M464.6913351866959,222.28258923299947 L471.47173198253273,227.20340245590492 M471.47173198253273,227.20340245590492 L480.129805270223,231.05938823450757 M480.129805270223,231.05938823450757 L490.1621119200178,233.6258397733241 M490.1621119200178,233.6258397733241 L500.9848779802271,234.75313186281372 M500.9848779802271,234.75313186281372 L511.96808238851645,234.3755258563602 M511.96808238851645,234.3755258563602 L522.4723231880714,232.5150435903657 M522.4723231880714,232.5150435903657 L531.8862171671915,229.28016843808635 M531.8862171671915,229.28016843808635 L539.6621470266093,224.85945692679738 M539.6621470266093,224.85945692679738 L545.3482050422037,219.510454933688 M545.3482050422037,219.510454933688 L548.6144564692646,213.54458517164207 M548.6144564692646,213.54458517164207 L549.2719910378672,207.30892058311397 M549.2719910378672,207.30892058311397 L547.2836948058475,201.16592836901415 M547.2836948058475,201.16592836901415 L542.7661577667288,195.47239496862133 M542.7661577667288,195.47239496862133 L535.9826572473385,190.55873464774746 M531.6852996561506,192.9997977814031 L537.564155296537,197.25871543259942 M537.564155296537,197.25871543259942 L541.4788569178407,202.1934305522473 M541.4788569178407,202.1934305522473 L543.2013463584931,207.51750802296252 M543.2013463584931,207.51750802296252 L542.6307401960665,212.92169919299457 M542.6307401960665,212.92169919299457 L539.7993721248426,218.0918774227006 M539.7993721248426,218.0918774227006 L534.8711042185414,222.7273014848544 M534.8711042185414,222.7273014848544 L528.1319647877533,226.558158608716 M528.1319647877533,226.558158608716 L519.9736058317686,229.36134091130302 M519.9736058317686,229.36134091130302 L510.8705482842151,230.9735165428231 M510.8705482842151,230.9735165428231 L501.3525160838377,231.30072306905694 M501.3525160838377,231.30072306905694 L491.9734868658351,230.32388792904234 M491.9734868658351,230.32388792904234 L483.27931638995983,228.0999494384126 M483.27931638995983,228.0999494384126 L475.77583354828266,224.75850848729326 M475.77583354828266,224.75850848729326 L469.8993091470079,220.4942182131352 M469.8993091470079,220.4942182131352 L465.9910671852493,215.55536127308469 M465.9910671852493,215.55536127308469 L464.27768599149147,210.2293216270775 M464.27768599149147,210.2293216270775 L464.85796239820604,204.8257974364594 M464.85796239820604,204.8257974364594 L467.69734737846255,199.65876254395752 M467.69734737846255,199.65876254395752 L472.63014227915346,195.0282380764987 M472.63014227915346,195.0282380764987 L479.36928171119496,191.20291436712174 M479.36928171119496,191.20291436712174 L487.52311367421385,188.4046316620422 M487.52311367421385,188.4046316620422 L496.61815431184596,186.7955993690815 M496.61815431184596,186.7955993690815 L506.1265162655014,186.46905982159402 M506.1265162655014,186.46905982159402 L515.4964372347332,187.4439327847758 M515.4964372347332,187.4439327847758 L524.1841480513655,189.6637294547007 M524.1841480513655,189.6637294547007 L531.6852996561506,192.9997977814031 M531.7417327219613,12.449861070138013 L537.6324671926488,16.699710677807275 M537.6324671926488,16.699710677807275 L541.5550838340312,21.623920949524972 M541.5550838340312,21.623920949524972 L543.2810622667341,26.936667235534287 M543.2810622667341,26.936667235534287 L542.709313153445,32.32935939494723 M542.709313153445,32.32935939494723 L539.8722332661372,37.48853907212549 M539.8722332661372,37.48853907212549 L534.9340138512085,42.11410426817804 M534.9340138512085,42.11410426817804 L528.1812600008457,45.93681522047689 M528.1812600008457,45.93681522047689 L520.0064149279233,48.734037522214976 M520.0064149279233,48.734037522214976 L510.88495924378486,50.3427857469685 M510.88495924378486,50.3427857469685 L501.34768889790394,50.66929667741101 M501.34768889790394,50.66929667741101 L491.94970291832556,49.69453818304112 M491.94970291832556,49.69453818304112 L483.23796191902613,47.47532787358716 M483.23796191902613,47.47532787358716 L475.71931816768875,44.14099181746667 M475.71931816768875,44.14099181746667 L469.8309243647808,39.88577018865203 M469.8309243647808,39.88577018865203 L465.91479350894537,34.95741856048096 M465.91479350894537,34.95741856048096 L464.19796016130834,29.642710318974537 M464.19796016130834,29.642710318974537 L464.7794186300464,24.250685064262825 M464.7794186300464,24.250685064262825 L467.6245478506596,19.094648372185247 M467.6245478506596,19.094648372185247 L472.5673125693453,14.473982221996835 M472.5673125693453,14.473982221996835 L479.3200664209716,10.656804064356606 M479.3200664209716,10.656804064356606 L487.4903661915724,7.864480811299018 M487.4903661915724,7.864480811299018 L496.6037725415094,6.258875573006549 M496.6037725415094,6.258875573006549 L506.1313335294879,5.933031546599068 M506.1313335294879,5.933031546599068 L515.520174422109,6.9058280839281 M515.520174422109,6.9058280839281 L524.2254296361659,9.120897036620931 M524.2254296361659,9.120897036620931 L531.7417327219613,12.449861070138013 M531.6852996561506,192.9997977814031 L531.7417327219613,12.449861070138013" stroke="black"  stroke-width="4"  fill="red"/></svg>