<svg viewBox="0 0 800 800" xmlns="http://www.w3.org/2000/svg"><path d="M247.72693758432706,769.6961894672176 L247.66954853442107,734.7129724873544 M247.66954853442107,734.7129724873544 L254.00592953802635,739.3629532816236 M254.00592953802635,739.3629532816236 L258.21617141565946,744.7506831580918 M258.21617141565946,744.7506831580918 L260.05501596221313,750.5634151791928 M260.05501596221313,750.5634151791928 L259.41482250168156,756.4635056443847 M259.41482250168156,756.4635056443847 L256.3319611134185,762.1080079105642 M256.3319611134185,762.1080079105642 L250.9849514152445,767.1685959953327 M250.9849514152445,767.1685959953327 L243.68412018191913,771.3507669800938 M243.68412018191913,771.3507669800938 L234.85379864519345,774.4109736070483 M234.85379864519345,774.4109736070483 L225.00752251003246,776.170967312144 M225.00752251003246,776.170967312144 L214.71823712653512,776.5281716093285 M214.71823712653512,776.5281716093285 L204.58473917369832,775.4617766228532 M204.58473917369832,775.4617766228532 L195.19672290301406,773.033925073039 M195.19672290301406,773.033925073039 L187.10031375063969,769.3860850031355 M187.10031375063969,769.3860850031355 L180.76627625275236,764.7306982323765 M180.76627625275236,764.7306982323765 L176.56248582910263,759.338800832669 M176.56248582910263,759.338800832669 L174.7327227617604,753.5240944567839 M174.7327227617604,753.5240944567839 L175.38254727030966,747.6246751090381 M175.38254727030966,747.6246751090381 L178.47338291510238,741.9833356945355 M178.47338291510238,741.9833356945355 L183.82488325908625,736.9276776115389 M183.82488325908625,736.9276776115389 L191.125692788195,732.751074393375 M191.125692788195,732.751074393375 L199.95148524226747,729.6957977668981 M199.95148524226747,729.6957977668981 L209.78976246009452,727.9389669259292 M209.78976246009452,727.9389669259292 L220.069411560969,727.5824337467723 M220.069411560969,727.5824337467723 L230.19384342660743,728.6468543719742 M230.19384342660743,728.6468543719742 L239.57544073681703,731.0705383821837 M239.57544073681703,731.0705383821837 L247.66954853442107,734.7129724873544 M247.72693758432706,769.6961894672176 L239.63553926537136,766.0525105773407 M239.63553926537136,766.0525105773407 L230.2570841392942,763.6279981890768 M230.2570841392942,763.6279981890768 L220.13604492528216,762.5632137371107 M220.13604492528216,762.5632137371107 L209.85984229501327,762.9198687835576 M209.85984229501327,762.9198687835576 L200.02486562346402,764.6773001061415 M200.02486562346402,764.6773001061415 L191.20203642353752,767.7336209252079 M191.20203642353752,767.7336209252079 L183.90368091577113,771.9116513722313 M183.90368091577113,771.9116513722313 L178.55398273312696,776.9690367716781 M178.55398273312696,776.9690367716781 L175.4641924110234,782.612303214757 M175.4641924110234,782.612303214757 L174.81459516743104,788.5137373067263 M174.81459516743104,788.5137373067263 L176.6437536863254,794.3304290537939 M176.6437536863254,794.3304290537939 L180.846142360269,799.7241670686353 M180.846142360269,799.7241670686353 L187.17806200862583,804.3811427305197 M187.17806200862583,804.3811427305197 L195.27176014600423,808.0302276175596 M195.27176014600423,808.0302276175596 L204.65662993310372,810.4589075704291 M204.65662993310372,810.4589075704291 L214.7867291566912,811.5256663955125 M214.7867291566912,811.5256663955125 L225.07256160609987,811.1683402270121 M225.07256160609987,811.1683402270121 L234.91553182634925,809.4077460213275 M234.91553182634925,809.4077460213275 L243.7428870650434,806.346495172209 M243.7428870650434,806.346495172209 L251.0412642551964,802.1628969251872 M251.0412642551964,802.1628969251872 L256.3864747972565,797.1005814943927 M256.3864747972565,797.1005814943927 L259.46829620665983,791.4541521806623 M259.46829620665983,791.4541521806623 L260.10826886045186,785.552046967221 M260.10826886045186,785.552046967221 L258.2700349554499,779.7373295867819 M258.2700349554499,779.7373295867819 L254.06119915965763,774.3477591201815 M254.06119915965763,774.3477591201815 L247.72693758432706,769.6961894672176 M235.05765965176977,741.9327011800765 L238.75360227737488,744.6458436841101 M238.75360227737488,744.6458436841101 L241.208778675527,747.7892005513752 M241.208778675527,747.7892005513752 L242.28034767364116,751.1801935480862 M242.28034767364116,751.1801935480862 L241.90572894023953,754.6218321025116 M241.90572894023953,754.6218321025116 L240.10641736948867,757.9140777053304 M240.10641736948867,757.9140777053304 L236.98678791385015,760.8654857558936 M236.98678791385015,760.8654857558936 L232.72797202768388,763.3044083207592 M232.72797202768388,763.3044083207592 L227.57750550968913,765.0889258150867 M227.57750550968913,765.0889258150867 L221.83481052216018,766.1152075841352 M221.83481052216018,766.1152075841352 L215.83389812109579,766.3234962557017 M215.83389812109579,766.3234962557017 L209.92380618460518,765.7016652504808 M209.92380618460518,765.7016652504808 L204.4482294926921,764.2859338306192 M204.4482294926921,764.2859338306192 L199.72560865153096,762.1586819790389 M199.72560865153096,762.1586819790389 L196.0304634648978,759.4436999431596 M196.0304634648978,759.4436999431596 L193.577482363247,756.2989249570345 M193.577482363247,756.2989249570345 L192.50900358217774,752.9072601331742 M192.50900358217774,752.9072601331742 L192.8868995480919,749.4658499447487 M192.8868995480919,749.4658499447487 L194.6889245831679,746.174680591467 M194.6889245831679,746.174680591467 L197.81008210497347,743.2249501099283 M197.81008210497347,743.2249501099283 L202.06889060543983,740.7879221321127 M202.06889060543983,740.7879221321127 L207.21781597781165,739.0050822037327 M207.21781597781165,739.0050822037327 L212.95778910964214,737.9798766904211 M212.95778910964214,737.9798766904211 L218.9554224974331,737.771816386619 M218.9554224974331,737.771816386619 L224.86242945481817,738.3929755527872 M224.86242945481817,738.3929755527872 L230.33582190696993,739.8072888603821 M230.33582190696993,739.8072888603821 L235.05765965176977,741.9327011800765 M235.05765965176977,741.9327011800765 L234.9754272425552,695.2485968371531 M234.9754272425552,695.2485968371531 L238.67301934654483,697.9605006713228 M238.67301934654483,697.9605006713228 L241.12928950817783,701.1024226161492 M241.12928950817783,701.1024226161492 L242.20133283575709,704.4918678379131 M242.20133283575709,704.4918678379131 L241.82654117682424,707.9319357044437 M241.82654117682424,707.9319357044437 L240.02641922614927,711.2226789909266 M240.02641922614927,711.2226789909266 L236.90538884171718,714.1727404155433 M236.90538884171718,714.1727404155433 L232.64466276026192,716.6105502977614 M232.64466276026192,716.6105502977614 L227.4918878075218,718.3942537266662 M227.4918878075218,718.3942537266662 L221.7466204056751,719.4200673490346 M221.7466204056751,719.4200673490346 L215.74302133381602,719.6282610102751 M215.74302133381602,719.6282610102751 L209.83028486355855,719.0067136538471 M209.83028486355855,719.0067136538471 L204.35225968286585,717.5916280461638 M204.35225968286585,717.5916280461638 L199.62752887709797,715.465346645263 M199.62752887709797,715.465346645263 L195.93073492920394,712.7516032959313 M195.93073492920394,712.7516032959313 L193.47666203189905,709.6082632451064 M193.47666203189905,709.6082632451064 L192.40771168907037,706.2181462022866 M192.40771168907037,706.2181462022866 L192.7857835140762,702.7783066996849 M192.7857835140762,702.7783066996849 L194.58862135643983,699.4886396529776 M194.58862135643983,699.4886396529776 L197.71118117211873,696.5402557821704 M197.71118117211873,696.5402557821704 L201.97189985795373,694.1043404698196 M201.97189985795373,694.1043404698196 L207.1231322824231,692.3223145916476 M207.1231322824231,692.3223145916476 L212.86567538993665,691.2975772152547 M212.86567538993665,691.2975772152547 L218.86599251257,691.0896119197075 M218.86599251257,691.0896119197075 L224.7756412430516,691.7104874431761 M224.7756412430516,691.7104874431761 L230.25148023100738,693.1241549514542 M230.25148023100738,693.1241549514542 L234.9754272425552,695.2485968371531" stroke="black"  stroke-width="4"  fill="red"/>
<path d="M519.4641115178961,334.09269919339073 L519.5879195408008,205.21318577382777 M519.5879195408008,205.21318577382777 L537.3350803259971,217.47218167817675 M537.3350803259971,217.47218167817675 L550.5404900873698,231.4655513851971 M550.5404900873698,231.4655513851971 L558.6938967766805,246.65790410332204 M558.6938967766805,246.65790410332204 L561.4778124265167,262.4670032539111 M561.4778124265167,262.4670032539111 L558.7803402104576,278.2858741158931 M558.7803402104576,278.2858741158931 L550.7002167465707,293.5060543132584 M550.7002167465707,293.5060543132584 L537.5437733511476,307.5410708228862 M537.5437733511476,307.5410708228862 L519.8138073542988,319.8491925220667 M519.8138073542988,319.8491925220667 L498.1906752945825,329.9546255740365 M498.1906752945825,329.9546255740365 L473.50631303441384,337.46622277433715 M473.50631303441384,337.46622277433715 L446.71212221247526,342.0929363583122 M446.71212221247526,342.0929363583122 L418.8419547206846,343.65537457126914 M418.8419547206846,343.65537457126914 L390.9717872288939,342.0929363583122 M390.9717872288939,342.0929363583122 L364.1775964069553,337.46622277433715 M364.1775964069553,337.46622277433715 L339.4932341467867,329.9546255740365 M339.4932341467867,329.9546255740365 L317.87010208707005,319.84919252206635 M317.87010208707005,319.84919252206635 L300.1401360902214,307.5410708228862 M300.1401360902214,307.5410708228862 L286.9836926947985,293.5060543132584 M286.9836926947985,293.5060543132584 L278.90356923091167,278.2858741158931 M278.90356923091167,278.2858741158931 L276.2060970148524,262.4670032539111 M276.2060970148524,262.4670032539111 L278.99001266468866,246.65790410332204 M278.99001266468866,246.65790410332204 L287.1434193539994,231.4655513851971 M287.1434193539994,231.4655513851971 L300.3488291153722,217.47218167817675 M300.3488291153722,217.47218167817675 L318.0959899005687,205.21318577382743 M318.0959899005687,205.21318577382743 L339.70192737223493,195.15687856043888 M339.70192737223493,195.15687856043888 L364.3373233494196,187.6869282801465 M364.3373233494196,187.6869282801465 L391.05823086296846,183.0880422936907 M391.05823086296846,183.0880422936907 L418.84195472068456,181.53537583452265 M418.84195472068456,181.53537583452265 L446.6256785784007,183.0880422936907 M446.6256785784007,183.0880422936907 L473.34658609194963,187.6869282801465 M473.34658609194963,187.6869282801465 L497.98198206913423,195.15687856043888 M497.98198206913423,195.15687856043888 L519.5879195408008,205.21318577382777 M519.4641115178961,334.09269919339073 L497.88474496886533,324.0234296930341 M497.88474496886533,324.0234296930341 L473.27962757613375,316.5438477136183 M473.27962757613375,316.5438477136183 L446.5915495571158,311.93903062148445 M446.5915495571158,311.93903062148445 L418.84195472068456,310.38436148470277 M418.84195472068456,310.38436148470277 L391.0923598842534,311.93903062148445 M391.0923598842534,311.93903062148445 L364.4042818652354,316.5438477136183 M364.4042818652354,316.5438477136183 L339.79916447250383,324.0234296930341 M339.79916447250383,324.0234296930341 L318.21979792347275,334.09269919339107 M318.21979792347275,334.09269919339107 L300.4944817265385,346.36749000236085 M300.4944817265385,346.36749000236085 L287.3053483927442,360.37888039854914 M287.3053483927442,360.37888039854914 L279.16201767551587,375.59078718718746 M279.16201767551587,375.59078718718746 L276.38158011906495,391.4202224269596 M276.38158011906495,391.4202224269596 L279.0757868114593,407.2594299068056 M279.0757868114593,407.2594299068056 L287.1460145113291,422.4991656802141 M287.1460145113291,422.4991656802141 L300.28630189072004,436.5522051321266 M300.28630189072004,436.5522051321266 L317.9944655826447,448.87612439355706 M317.9944655826447,448.87612439355706 L339.5909844373718,458.9945223900086 M339.5909844373718,458.9945223900086 L364.2449477019483,466.5157535422766 M364.2449477019483,466.5157535422766 L391.00612882088325,471.1483997371859 M391.00612882088325,471.1483997371859 L418.8419547206846,472.71284115632375 M418.8419547206846,472.71284115632375 L446.677780620486,471.1483997371859 M446.677780620486,471.1483997371859 L473.43896173942085,466.5157535422766 M473.43896173942085,466.5157535422766 L498.09292500399744,458.9945223900086 M498.09292500399744,458.9945223900086 L519.6894438587258,448.87612439355615 M519.6894438587258,448.87612439355615 L537.3976075506491,436.5522051321266 M537.3976075506491,436.5522051321266 L550.53789493004,422.4991656802142 M550.53789493004,422.4991656802142 L558.6081226299098,407.2594299068056 M558.6081226299098,407.2594299068056 L561.3023293223043,391.4202224269596 M561.3023293223043,391.4202224269596 L558.5218917658533,375.59078718718746 M558.5218917658533,375.59078718718746 L550.378561048625,360.3788803985493 M550.378561048625,360.3788803985493 L537.1894277148308,346.36749000236085 M537.1894277148308,346.36749000236085 L519.4641115178961,334.09269919339073 M493.4156577491154,220.08685244958633 L508.1584590561359,230.5733443596676 M508.1584590561359,230.5733443596676 L518.4307971823293,242.66312694934606 M518.4307971823293,242.66312694934606 L523.715047576303,255.75177835025738 M523.715047576303,255.75177835025738 L523.742572532476,269.18399063320226 M523.742572532476,269.18399063320226 L518.5079203948922,282.286216001034 M518.5079203948922,282.286216001034 L508.26990535527415,294.40045804339496 M508.26990535527415,294.40045804339496 L493.5393538488011,304.9174504113162 M493.5393538488011,304.9174504113162 L475.05400305800003,313.3075673920208 M475.05400305800003,313.3075673920208 L453.74169067636245,319.1478328798905 M453.74169067636245,319.1478328798905 L430.6736453274395,322.1435790820024 M430.6736453274395,322.1435790820024 L407.0102641139297,322.1435790820024 M407.0102641139297,322.1435790820024 L383.9422187650067,319.1478328798905 M383.9422187650067,319.1478328798905 L362.6299063833691,313.3075673920208 M362.6299063833691,313.3075673920208 L344.1445555925679,304.9174504113162 M344.1445555925679,304.9174504113162 L329.414004086095,294.40045804339496 M329.414004086095,294.40045804339496 L319.17598904647707,282.286216001034 M319.17598904647707,282.286216001034 L313.9413369088932,269.18399063320226 M313.9413369088932,269.18399063320226 L313.968861865066,255.75177835025738 M313.968861865066,255.75177835025738 L319.2531122590397,242.66312694934606 M319.2531122590397,242.66312694934606 L329.5254503852332,230.5733443596676 M329.5254503852332,230.5733443596676 L344.2682516922539,220.08685244958633 M344.2682516922539,220.08685244958633 L362.7413527489167,211.72723594251704 M362.7413527489167,211.72723594251704 L384.01934206038067,205.91142994422142 M384.01934206038067,205.91142994422142 L407.03778910695695,202.92925774078975 M407.03778910695695,202.92925774078975 L430.64612033441216,202.92925774078975 M430.64612033441216,202.92925774078975 L453.6645673809885,205.91142994422142 M453.6645673809885,205.91142994422142 L474.94255669245246,211.72723594251704 M474.94255669245246,211.72723594251704 L493.4156577491154,220.08685244958633 M288.06524524522183,411.38444631655256 L383.76315323558174,466.0069983372711 M323.24556577959225,336.95603300285 L288.06524524522183,411.38444631655256 M453.8190748932959,317.0496477820274 L323.24556577959225,336.95603300285 M549.5169830824836,371.47152106065596 L453.8190748932959,317.0496477820274 M514.6417060745721,446.00027364349603 L549.5169830824836,371.47152106065596 M383.76315323558174,466.0069983372711 L514.6417060745721,446.00027364349603 M493.4156577491154,220.08685244958633 L492.694280959854,243.9472299796309 M492.694280959854,243.9472299796309 L491.97322039297376,267.79730410070533 M491.97322039297376,267.79730410070533 L491.2524662471263,291.63708694094123 M491.2524662471263,291.63708694094123 L490.5320231212266,315.46658243415686 M490.5320231212266,315.46658243415686 L489.81189561037525,339.2857945056944 M489.81189561037525,339.2857945056944 L504.28302409621216,349.69188729329693 M504.28302409621216,349.69188729329693 L514.1559559427326,361.72026479293555 M514.1559559427326,361.72026479293555 L518.8957992360695,374.72427155038304 M518.8957992360695,374.72427155038304 L518.2432791418757,388.0037867483839 M518.2432791418757,388.0037867483839 L512.2294615531162,400.8427716017687 M512.2294615531162,400.8427716017687 L501.1750002989528,412.54791437769944 M501.1750002989528,412.54791437769944 L485.67358489381076,422.4862357714413 M485.67358489381076,422.4862357714413 L466.5604096326397,430.1196309577042 M466.5604096326397,430.1196309577042 L444.8672762199618,435.03438170322045 M444.8672762199618,435.03438170322045 L421.76665069950997,436.96392231229254 M421.76665069950997,436.96392231229254 L398.5078386094023,435.80356218587025 M398.5078386094023,435.80356218587025 L376.34877482068873,431.61626208596573 M376.34877482068873,431.61626208596573 L356.4873584411312,424.62915794472326 M356.4873584411312,424.62915794472326 L339.9961598933142,415.2210233368995 M339.9961598933142,415.2210233368995 L327.7642174935819,403.90139377383497 M327.7642174935819,403.90139377383497 L320.4491142278485,391.2825998824589 M320.4491142278485,391.2825998824589 L318.4419068812164,378.0463179804668 M318.4419068812164,378.0463179804668 L321.8467585850606,364.90651872967084 M321.8467585850606,364.90651872967084 L330.47619272781174,352.57090075604845 M330.47619272781174,352.57090075604845 L343.86201466167205,341.7028718846767 M343.86201466167205,341.7028718846767 L361.28119839277304,332.8861380562335 M361.28119839277304,332.8861380562335 L381.7951470679056,326.5936902887221 M381.7951470679056,326.5936902887221 L404.30020251990373,323.1628108101452 M404.30020251990373,323.1628108101452 L427.5866694121629,322.77729817283625 M427.5866694121629,322.77729817283625 L450.4032453908614,325.45779161664666 M450.4032453908614,325.45779161664666 L471.5236409880332,331.06071564593515 M471.5236409880332,331.06071564593515 L489.81189561037525,339.2857945056944 M383.76315323558174,466.0069983372711 L383.7592237282383,454.2884238491153 M288.05061128601756,399.6722170151267 L383.7592237282383,454.2884238491153 M288.06524524522183,411.38444631655256 L288.05061128601756,399.6722170151267 M323.23488402207045,325.25247055599937 L288.05061128601756,399.6722170151267 M323.24556577959225,336.95603300285 L323.23488402207045,325.25247055599937 M453.8229816518221,305.3484074373609 L323.23488402207045,325.25247055599937 M453.8190748932959,317.0496477820274 L453.8229816518221,305.3484074373609 M549.5315942929594,359.763936437532 L453.8229816518221,305.3484074373609 M549.5169830824836,371.47152106065596 L549.5315942929594,359.763936437532 M514.6524333296368,434.2840217116388 L549.5315942929594,359.763936437532 M514.6417060745721,446.00027364349603 L514.6524333296368,434.2840217116388 M383.7592237282383,454.2884238491153 L514.6524333296368,434.2840217116388" stroke="black"  stroke-width="4"  fill="red"/>
<path d="M383.7984792296961,571.3561572035198 L425.0979300789979,565.029981171762 M425.09863007796554,553.3357274963903 L425.0979300789979,565.029981171762 M425.09863007796554,553.3357274963903 L466.392553962863,547.0118347221783 M466.38723463913743,558.7053593304349 L466.392553962863,547.0118347221783 M466.38723463913743,558.7053593304349 L514.5452687654524,551.3285987815802 M514.5452687654524,551.3285987815802 L514.6524333296368,434.2840217116388 M383.7592237282383,454.2884238491153 L514.6524333296368,434.2840217116388 M383.7984792296961,571.3561572035198 L383.7592237282383,454.2884238491153 M323.341594296861,442.17053035904286 L288.1968036637329,516.6766876456991 M453.7839532955198,422.24331514543053 L323.341594296861,442.17053035904286 M549.3856290595122,476.72209849002536 L453.7839532955198,422.24331514543053 M538.3943251617754,500.2586712793521 L549.3856290595122,476.72209849002536 M425.0979300789979,565.029981171762 L538.3943251617754,500.2586712793521 M288.1968036637329,516.6766876456991 L383.7984792296961,571.3561572035198 M432.92842693975996,488.64967258211004 L435.8909286173664,490.80767730983706 M435.8909286173664,490.80767730983706 L437.86293990406966,493.3078083394854 M437.86293990406966,493.3078083394854 L438.72973527689794,496.0048454772915 M438.72973527689794,496.0048454772915 L438.4407697868652,498.7420832954994 M438.4407697868652,498.7420832954994 L437.01265912701996,501.3604301223667 M437.01265912701996,501.3604301223667 L434.52825088801876,503.70765902121946 M434.52825088801876,503.70765902121946 L431.1318463838602,505.6472667909402 M431.1318463838602,505.6472667909402 L427.02083251508,507.0664273346571 M427.02083251508,507.0664273346571 L422.43420960775165,507.8825727492854 M422.43420960775165,507.8825727492854 L417.63868341421994,508.0482134111138 M417.63868341421994,508.0482134111138 L412.9131333283118,507.5537098337863 M412.9131333283118,507.5537098337863 L408.53235979865696,506.42783808148477 M408.53235979865696,506.42783808148477 L404.75107487119305,504.7361067660505 M404.75107487119305,504.7361067660505 L401.7890780613221,502.5769326489197 M401.7890780613221,502.5769326489197 L399.8184657176636,500.0759001231763 M399.8184657176636,500.0759001231763 L398.9536428831,497.3784359039595 M398.9536428831,497.3784359039595 L399.2447026220061,494.64134325853075 M399.2447026220061,494.64134325853075 L400.6745494733967,492.02368060126975 M400.6745494733967,492.02368060126975 L403.159938106269,489.67751813375173 M403.159938106269,489.67751813375173 L406.55634261047766,487.7391147507266 M406.55634261047766,487.7391147507266 L410.66637608544386,486.3210206385675 M410.66637608544386,486.3210206385675 L415.25126280119116,485.5055593935404 M415.25126280119116,485.5055593935404 L420.04469474575217,485.3400639045658 M420.04469474575217,485.3400639045658 L424.76827229332065,485.83414040011326 M424.76827229332065,485.83414040011326 L429.1476468799428,486.9591106559492 M429.1476468799428,486.9591106559492 L432.92842693975996,488.64967258211004 M538.3943251617754,500.2586712793521 L538.4076853880504,488.57189230525205 M538.4076853880504,488.57189230525205 L425.09863007796554,553.3357274963903 M527.4050867918752,512.1273098293294 L538.4076853880504,488.57189230525205 M466.392553962863,547.0118347221783 L527.4050867918752,512.1273098293294 M527.3929504340579,523.8168095558216 L466.38723463913743,558.7053593304349 M527.4050867918752,512.1273098293294 L527.3929504340579,523.8168095558216 M514.5452687654524,551.3285987815802 L527.3929504340579,523.8168095558216 M549.3856290595122,476.72209849002536 L549.5315942929594,359.763936437532 M514.6524333296368,434.2840217116388 L549.5315942929594,359.763936437532 M288.05061128601756,399.6722170151267 L383.7592237282383,454.2884238491153 M323.23488402207045,325.25247055599937 L288.05061128601756,399.6722170151267 M549.5315942929594,359.763936437532 L453.8229816518221,305.3484074373609 M453.8229816518221,305.3484074373609 L323.23488402207045,325.25247055599937 M451.5724946010243,361.06698030811464 L458.4581995608506,366.06903297830866 M458.4581995608506,366.06903297830866 L463.04335343311124,371.8648008187641 M463.04335343311124,371.8648008187641 L465.06084048903676,378.117868421648 M465.06084048903676,378.117868421648 L464.3925009922392,384.4650265453559 M464.3925009922392,384.4650265453559 L461.0762080582634,390.5373372837204 M461.0762080582634,390.5373372837204 L455.3038892939613,395.98158418701513 M455.3038892939613,395.98158418701513 L447.4105609014416,400.48087623032467 M447.4105609014416,400.48087623032467 L437.8549517570136,403.7731768428415 M437.8549517570136,403.7731768428415 L427.19285152818634,405.6666555841648 M427.19285152818634,405.6666555841648 L416.04470668369504,406.0509552549696 M416.04470668369504,406.0509552549696 L405.0593709361043,404.90367547860603 M405.0593709361043,404.90367547860603 L394.8761852187683,402.2916892785238 M394.8761852187683,402.2916892785238 L386.0876088136324,398.3672106186434 M386.0876088136324,398.3672106186434 L379.2046306910196,393.35885633619955 M379.2046306910196,393.35885633619955 L374.6270326460306,387.5582305061965 M374.6270326460306,387.5582305061965 L372.620199455038,381.30286144498376 M372.620199455038,381.30286144498376 L373.29985018194526,374.956485629224 M373.29985018194526,374.956485629224 L376.62552044912144,368.887861747797 M376.62552044912144,368.887861747797 L382.4031344131809,363.4493616363722 M382.4031344131809,363.4493616363722 L390.29646280716264,358.9565597995673 M390.29646280716264,358.9565597995673 L399.8467767534944,355.67000598221426 M399.8467767534944,355.67000598221426 L410.49949964808434,353.78021409941397 M410.49949964808434,353.78021409941397 L421.6363332596267,353.3966967357737 M421.6363332596267,353.3966967357737 L432.61101514009584,354.54167505200456 M432.61101514009584,354.54167505200456 L442.7866450305127,357.1488032621891 M442.7866450305127,357.1488032621891 L451.5724946010243,361.06698030811464 M288.1968036637329,516.6766876456991 L288.05061128601756,399.6722170151267 M323.341594296861,442.17053035904286 L323.23488402207045,325.25247055599937 M453.7839532955198,422.24331514543053 L453.8229816518221,305.3484074373609 M432.92842693975996,488.64967258211004 L432.9362996439869,430.19636260335346 M432.9362996439869,430.19636260335346 L435.90045741662385,432.35311847978704 M435.90045741662385,432.35311847978704 L437.8735713924647,434.85180279396684 M437.8735713924647,434.85180279396684 L438.7408518307125,437.5472794277197 M438.7408518307125,437.5472794277197 L438.4517254028792,440.2829336433948 M438.4517254028792,440.2829336433948 L437.0228169555319,442.89976580331717 M437.0228169555319,442.89976580331717 L434.5370202774678,445.245636998742 M434.5370202774678,445.245636998742 L431.13871728010486,447.18412293493463 M431.13871728010486,447.18412293493463 L427.02540519756303,448.60246271403224 M427.02540519756303,448.60246271403224 L422.4362180130888,449.41813613473835 M422.4362180130888,449.41813613473835 L417.63801067122773,449.5836810048827 M417.63801067122773,449.5836810048827 L412.9098185857006,449.089463405784 M412.9098185857006,449.089463405784 L408.52659593720705,447.96424278044265 M408.52659593720705,447.96424278044265 L404.74319723810936,446.27348989809565 M404.74319723810936,446.27348989809565 L401.779544897779,444.11556465553747 M401.779544897779,444.11556465553747 L399.8078314293587,441.61597886320914 M399.8078314293587,441.61597886320914 L398.9425257351772,438.92007515654734 M398.9425257351772,438.92007515654734 L399.233748753789,436.1845661107617 M399.233748753789,436.1845661107617 L400.6643953341874,433.56841810682545 M400.6643953341874,433.56841810682545 L403.15117350245333,431.22361332150604 M403.15117350245333,431.22361332150604 L406.5494764998665,429.28633174803326 M406.5494764998665,429.28633174803326 L410.6618070922636,427.86905837926366 M410.6618070922636,427.86905837926366 L415.2492561436511,427.0540691145394 M415.2492561436511,427.0540691145394 L420.045366894636,426.8886694143589 M420.045366894636,426.8886694143589 L424.77158423602174,427.38245994017916 M424.77158423602174,427.38245994017916 L429.15340637710676,428.50677908700106 M429.15340637710676,428.50677908700106 L432.9362996439869,430.19636260335346 M451.55420580719283,419.57949458229376 L451.5724946010243,361.06698030811464 M451.55420580719283,419.57949458229376 L458.43606109425644,424.5844559509738 M458.43606109425644,424.5844559509738 L463.0186498876236,430.38359335379187 M463.0186498876236,430.38359335379187 L465.03500625096484,436.640295564081 M465.03500625096484,436.640295564081 L464.36703717694553,442.9911421135932 M464.36703717694553,442.9911421135932 L461.0525953351511,449.0669807377799 M461.0525953351511,449.0669807377799 L455.2835016513839,454.51438995137056 M455.2835016513839,454.51438995137056 L447.39458540328366,459.0162949368208 M447.39458540328366,459.0162949368208 L437.84431905162427,462.3105072573692 M437.84431905162427,462.3105072573692 L427.18818125452333,464.20508535944566 M427.18818125452333,464.20508535944566 L416.04627106796346,464.5896081465162 M416.04627106796346,464.5896081465162 L405.0670787887164,463.44166227422204 M405.0670787887164,463.44166227422204 L394.88958729393715,460.82815948138796 M394.88958729393715,460.82815948138796 L386.1059242138097,456.9014018790085 M386.1059242138097,456.9014018790085 L379.2267927163613,451.8901387603732 M379.2267927163613,451.8901387603732 L374.65175130564114,446.08614326184795 M374.65175130564114,446.08614326184795 L372.6460369001477,439.82713954293706 M372.6460369001477,439.82713954293706 L373.32530456250043,433.4770753184687 M373.32530456250043,433.4770753184687 L376.64911325710057,427.40492363178697 M376.64911325710057,427.40492363178697 L382.42349622254653,421.96326133564753 M382.42349622254653,421.96326133564753 L390.3124124721055,417.46784669852826 M390.3124124721055,417.46784669852826 L399.8573895437436,414.17938129872437 M399.8573895437436,414.17938129872437 L410.5041604870043,412.2884901357365 M410.5041604870043,412.2884901357365 L421.6347720823979,411.90474967292533 M421.6347720823979,411.90474967292533 L432.60332240161324,413.05039403479515 M432.60332240161324,413.05039403479515 L442.77326651409714,415.6590387315738 M442.77326651409714,415.6590387315738 L451.55420580719283,419.57949458229376" stroke="black"  stroke-width="4"  fill="red"/>
<path d="M410.67499527781126,578.3432907418107 L383.59079116343634,575.9576520128605 M383.59079116343634,575.9576520128605 L357.80255646189175,570.6673082292957 M357.80255646189175,570.6673082292957 L334.25771165567727,562.6675664969223 M334.25771165567727,562.6675664969223 L313.8201492441197,552.2535632019503 M313.8201492441197,552.2535632019503 L297.2383537409731,539.8090849625264 M297.2383537409731,539.8090849625264 L285.11792391174714,525.7921416583839 M285.11792391174714,525.7921416583839 L277.89957088908045,510.7178402918393 M277.89957088908045,510.7178402918393 L275.84341831647424,495.1392237300945 M275.84341831647424,495.1392237300945 L279.02008308873917,479.6268155965304 M279.02008308873917,479.6268155965304 L287.30874217925094,464.7477111545816 M287.30874217925094,464.7477111545816 L300.40222896394516,451.044889769668 M300.40222896394516,451.044889769668 L317.8188256891582,439.0175849188628 M317.8188256891582,439.0175849188628 L338.92026653783756,429.10333901305415 M338.92026653783756,429.10333901305415 L362.9351950460364,421.66235642672393 M362.9351950460364,421.66235642672393 L388.9872866632993,416.9647153038946 M388.9872866632993,416.9647153038946 L416.12695170369096,415.18080207673637 M416.12695170369096,415.18080207673637 L443.365505044399,416.37529811038564 M443.365505044399,416.37529811038564 L469.7107337049602,420.5048923571825 M469.7107337049602,420.5048923571825 L494.20249355648025,427.4198202139303 M494.20249355648025,427.4198202139303 L515.94729882324,436.8691407126714 M515.94729882324,436.8691407126714 L534.1506120174936,448.5096069463759 M534.1506120174936,448.5096069463759 L548.1457203336392,461.9178688557325 M548.1457203336392,461.9178688557325 L557.4181986491196,476.60558782206317 M557.4181986491196,476.60558782206317 L561.6251162212893,492.03693260056144 M343.3494071346123,603.2026695938521 L352.0747427795684,606.9564474417105 M352.0747427795684,606.9564474417105 L360.91700123671365,608.275948952318 M360.91700123671365,608.275948952318 L369.9948740135596,607.1778489696464 M369.9948740135596,607.1778489696464 L382.6767212714176,601.9208048765089 M382.6767212714176,601.9208048765089 L396.06580766338857,592.4011235394236 M396.06580766338857,592.4011235394236 L410.67499527781126,578.3432907418107 M313.17329938001456,571.5811752859154 L323.5128471769031,585.5144015694282 M323.5128471769031,585.5144015694282 L333.51485011198287,595.9956871233844 M333.51485011198287,595.9956871233844 L338.44257090133874,599.999563182344 M338.44257090133874,599.999563182344 L343.3494071346123,603.2026695938521 M388.7125303621262,654.4148736478421 L385.3098527854706,655.890590589569 M385.3098527854706,655.890590589569 L381.8633218894276,656.440962111714 M381.8633218894276,656.440962111714 L378.32904201167537,656.0728409769711 M378.32904201167537,656.0728409769711 L373.4021024880817,654.1431305264938 M373.4021024880817,654.1431305264938 L365.32213723627166,648.0609914900688 M365.32213723627166,648.0609914900688 L358.500271642608,640.8216246164448 M358.500271642608,640.8216246164448 L350.80899783806797,631.0606686449711 M350.80899783806797,631.0606686449711 L343.1318870889341,620.1417781962972 M343.1318870889341,620.1417781962972 L334.435097907839,606.7994744047686 M334.435097907839,606.7994744047686 L324.5232691904193,590.7333892572894 M324.5232691904193,590.7333892572894 L313.17329938001456,571.5811752859154 M464.0527464471987,485.4198173614817 L446.1024968234036,535.9721478366642 M446.1024968234036,535.9721478366642 L431.68088801965644,574.6741332007742 M431.68088801965644,574.6741332007742 L421.9703358299165,598.9935447695614 M421.9703358299165,598.9935447695614 L413.5975189918095,618.0945363744605 M413.5975189918095,618.0945363744605 L402.83803828765207,638.5665939565968 M402.83803828765207,638.5665939565968 L397.9024938108847,645.7742754109238 M397.9024938108847,645.7742754109238 L394.3474531655399,649.9008287510728 M394.3474531655399,649.9008287510728 L391.5180176720217,652.4874800412432 M391.5180176720217,652.4874800412432 L388.7125303621262,654.4148736478421 M494.20816094538054,516.9713688280502 L485.3636624585126,510.64799245834143 M485.3636624585126,510.64799245834143 L476.40088783532,501.68745918794104 M476.40088783532,501.68745918794104 L470.29915547558915,494.18949431728356 M470.29915547558915,494.18949431728356 L464.0527464471987,485.4198173614817 M561.6251162212893,492.03693260056144 L550.982482748157,502.6007540787425 M550.982482748157,502.6007540787425 L541.0188850206066,510.78975513323303 M541.0188850206066,510.78975513323303 L524.4200503041645,519.8443792663004 M524.4200503041645,519.8443792663004 L511.1960382781081,522.0036180097532 M511.1960382781081,522.0036180097532 L502.64753625955547,520.6255713566798 M502.64753625955547,520.6255713566798 L494.20816094538054,516.9713688280502 M561.6251162212893,492.03693260056144 L464.0739190609923,436.43819216872987 M464.0739190609923,436.43819216872987 L313.12373083533095,522.557834473983 M313.12373083533095,522.557834473983 L410.67499527781126,578.3432907418107 M464.0527464471987,485.4198173614817 L464.0739190609923,436.43819216872987 M313.17329938001456,571.5811752859154 L313.12373083533095,522.557834473983" stroke="black"  stroke-width="4"  fill="red"/>
<path d="M463.99832667448413,611.3168339584752 L464.0739190609923,436.43819216872987 M313.30070459329977,697.5850600472522 L313.12373083533095,522.557834473983 M463.99832667448413,611.3168339584752 L313.30070459329977,697.5850600472522 M464.0739190609923,436.43819216872987 L313.12373083533095,522.557834473983 M624.9216798457776,703.3465457198889 L625.2672772382396,528.3094140657338 M624.9216798457776,703.3465457198889 L463.99832667448413,611.3168339584752 M625.2672772382396,528.3094140657338 L464.0739190609923,436.43819216872987 M474.2243583229554,789.9234237505121 L474.3173910856,614.7376943244376 M313.30070459329977,697.5850600472522 L474.2243583229554,789.9234237505121 M313.12373083533095,522.557834473983 L474.3173910856,614.7376943244376 M474.2243583229554,789.9234237505121 L624.9216798457776,703.3465457198889 M443.62648781067287,731.9661962854764 L391.37826246629845,702.009473903682 M523.9984798796506,685.8592349460629 L443.62648781067287,731.9661962854764 M471.7502947538933,655.9559522279317 L523.9984798796506,685.8592349460629 M437.5449449866054,675.5557653979859 L471.7502947538933,655.9559522279317 M432.90486150845123,663.6184534955012 L435.70541869013465,665.6339794928818 M435.70541869013465,665.6339794928818 L437.6441092600311,667.9584708149691 M437.6441092600311,667.9584708149691 L438.62172458030295,670.4731497046032 M438.62172458030295,670.4731497046032 L438.5881469941096,673.0494876048274 M438.5881469941096,673.0494876048274 L437.5449449866054,675.5557653979859 M425.61868794370326,682.3895622002178 L421.0280569384218,683.0022114634934 M421.0280569384218,683.0022114634934 L416.3146404019282,682.9788883427668 M416.3146404019282,682.9788883427668 L411.74317533431247,682.3209023832013 M411.74317533431247,682.3209023832013 L407.57040880392594,681.0652341490851 M407.57040880392594,681.0652341490851 L404.03065687492466,679.2824443308556 M404.03065687492466,679.2824443308556 L401.32262872654474,677.0726991393 M401.32262872654474,677.0726991393 L399.59826883534345,674.5601246827088 M399.59826883534345,674.5601246827088 L398.9542411931694,671.8858183404718 M398.9542411931694,671.8858183404718 L399.4265316135573,669.1999160725844 M399.4265316135573,669.1999160725844 L400.98846253215766,666.6531602683131 M400.98846253215766,666.6531602683131 L403.5522281450871,664.3884390013449 M403.5522281450871,664.3884390013449 L406.97385468993025,662.5327829730958 M406.97385468993025,662.5327829730958 L411.0612942001814,661.1902529715691 M411.0612942001814,661.1902529715691 L415.5852040455974,660.4361215596837 M415.5852040455974,660.4361215596837 L420.29179939394544,660.3126658943763 M420.29179939394544,660.3126658943763 L424.9170662705707,660.8268059206504 M424.9170662705707,660.8268059206504 L429.20154583959095,661.9497210262261 M429.20154583959095,661.9497210262261 L432.90486150845123,663.6184534955012 M391.37826246629845,702.009473903682 L425.61868794370326,682.3895622002178 M474.3173910856,614.7376943244376 L625.2672772382396,528.3094140657338 M432.92842693975996,488.64967258211004 L435.8909286173664,490.80767730983706 M435.8909286173664,490.80767730983706 L437.86293990406966,493.3078083394854 M437.86293990406966,493.3078083394854 L438.72973527689794,496.0048454772915 M438.72973527689794,496.0048454772915 L438.4407697868652,498.7420832954994 M438.4407697868652,498.7420832954994 L437.01265912701996,501.3604301223667 M437.01265912701996,501.3604301223667 L434.52825088801876,503.70765902121946 M434.52825088801876,503.70765902121946 L431.1318463838602,505.6472667909402 M431.1318463838602,505.6472667909402 L427.02083251508,507.0664273346571 M427.02083251508,507.0664273346571 L422.43420960775165,507.8825727492854 M422.43420960775165,507.8825727492854 L417.63868341421994,508.0482134111138 M417.63868341421994,508.0482134111138 L412.9131333283118,507.5537098337863 M412.9131333283118,507.5537098337863 L408.53235979865696,506.42783808148477 M408.53235979865696,506.42783808148477 L404.75107487119305,504.7361067660505 M404.75107487119305,504.7361067660505 L401.7890780613221,502.5769326489197 M401.7890780613221,502.5769326489197 L399.8184657176636,500.0759001231763 M399.8184657176636,500.0759001231763 L398.9536428831,497.3784359039595 M398.9536428831,497.3784359039595 L399.2447026220061,494.64134325853075 M399.2447026220061,494.64134325853075 L400.6745494733967,492.02368060126975 M400.6745494733967,492.02368060126975 L403.159938106269,489.67751813375173 M403.159938106269,489.67751813375173 L406.55634261047766,487.7391147507266 M406.55634261047766,487.7391147507266 L410.66637608544386,486.3210206385675 M410.66637608544386,486.3210206385675 L415.25126280119116,485.5055593935404 M415.25126280119116,485.5055593935404 L420.04469474575217,485.3400639045658 M420.04469474575217,485.3400639045658 L424.76827229332065,485.83414040011326 M424.76827229332065,485.83414040011326 L429.1476468799428,486.9591106559492 M429.1476468799428,486.9591106559492 L432.92842693975996,488.64967258211004 M431.4411898924923,578.6906476871484 L416.3225306095435,570.0468585229825 M562.2645800958344,503.87407843097714 L431.4411898924923,578.6906476871484 M547.1459551678336,495.25538288017617 L562.2645800958344,503.87407843097714 M416.3225306095435,570.0468585229825 L547.1459551678336,495.25538288017617 M567.396556504304,608.1551614663256 L566.8921777723951,603.5554424871007 M566.8921777723951,603.5554424871007 L565.3943174639519,599.8086357864746 M565.3943174639519,599.8086357864746 L562.9898276262097,597.1325657627885 M562.9898276262097,597.1325657627885 L559.8182651687789,595.6829771936514 M559.8182651687789,595.6829771936514 L556.0638273837217,595.5442770537269 M556.0638273837217,595.5442770537269 L551.9446719456321,596.7249106117303 M551.9446719456321,596.7249106117303 L547.7002485759228,599.1563568196837 M547.7002485759228,599.1563568196837 L543.5773679521708,602.6973922442073 M543.5773679521708,602.6973922442073 L539.8158274120556,607.1422784472721 M539.8158274120556,607.1422784472721 L536.6344303416779,612.232404644268 M536.6344303416779,612.232404644268 L534.21822583015,617.6718080441206 M534.21822583015,617.6718080441206 L532.7077157108395,623.1440914277464 M532.7077157108395,623.1440914277464 L532.1906742640824,628.3310267177645 M532.1906742640824,628.3310267177645 L532.6970470417511,632.9310032810513 M532.6970470417511,632.9310032810513 L534.1972350208266,636.6766394635581 M534.1972350208266,636.6766394635581 L536.6038529212285,639.3503790240079 M536.6038529212285,639.3503790240079 L539.7768563162772,640.7970110765211 M539.7768563162772,640.7970110765211 L543.5317178267896,640.9328058995404 M543.5317178267896,640.9328058995404 L547.650182687611,639.7499838734852 M547.650182687611,639.7499838734852 L551.8929593921803,637.3175673409237 M551.8929593921803,637.3175673409237 L556.0136144874446,633.7770020211024 M556.0136144874446,633.7770020211024 L559.7728604892718,629.33391872787 M559.7728604892718,629.33391872787 L562.9524196426687,624.2465151211691 M562.9524196426687,624.2465151211691 L565.3676639183384,618.8101303458805 M565.3676639183384,618.8101303458805 L566.8783114562129,613.3404700746152 M566.8783114562129,613.3404700746152 L567.396556504304,608.1551614663256 M387.0260912686381,696.6022752488416 L391.37826246629845,702.009473903682 M443.62648781067287,731.9661962854764 L491.0134174537263,664.1052699761209 M456.60844364709385,621.38615059875 L491.0134174537263,664.1052699761209 M456.60844364709385,621.38615059875 L456.5995184622726,646.0719105187928 M456.5995184622726,646.0719105187928 L441.4926947364069,637.4260026079103 M441.4926947364069,637.4260026079103 L441.49682009236926,618.4043505353748 M387.0260912686381,696.6022752488416 L441.49682009236926,618.4043505353748 M523.9984798796506,685.8592349460629 L571.4583889450437,617.9928026893003 M491.0134174537263,664.1052699761209 L571.4583889450437,617.9928026893003 M471.7502947538933,655.9559522279317 L467.400365801491,650.5545170052068 M467.400365801491,650.5545170052068 L521.9552339570301,572.3503757231699 M521.9552339570301,572.3503757231699 L521.9364742359292,591.3634129641581 M521.9364742359292,591.3634129641581 L537.0432768610149,599.9938783097431 M537.0432768610149,599.9938783097431 L537.0711924803693,575.3192988190708 M571.4583889450437,617.9928026893003 L537.0711924803693,575.3192988190708 M437.5449449866054,675.5557653979859 L438.4021139545907,672.9774541881378 M438.4021139545907,672.9774541881378 L438.7301143778317,670.133385999881 M438.7301143778317,670.133385999881 L438.5201168799824,667.1004917973032 M467.400365801491,650.5545170052068 L438.5201168799824,667.1004917973032 M438.5201168799824,667.1004917973032 L438.6337862293919,664.8731548576043 M438.6337862293919,664.8731548576043 L437.7047020297961,663.944727721677 M437.7047020297961,663.944727721677 L436.4361458123528,663.940968190614 M436.4361458123528,663.940968190614 L435.02391239009245,664.3731742962889 M435.02391239009245,664.3731742962889 L433.4992877075864,665.0940488639259 M433.4992877075864,665.0940488639259 L431.7576941395315,666.1184451183466 M431.7576941395315,666.1184451183466 L429.8249154054192,667.4312386048646 M429.8249154054192,667.4312386048646 L427.7295722206765,669.0129663407458 M427.7295722206765,669.0129663407458 L425.5026990618103,670.8401892215923 M425.5026990618103,670.8401892215923 L423.1772796776028,672.8858653821609 M423.1772796776028,672.8858653821609 L419.98310800166814,675.9004310899377 M419.98310800166814,675.9004310899377 L417.9566039056947,677.9291245573572 M417.9566039056947,677.9291245573572 L415.93937500975886,680.0373742593274 M415.93937500975886,680.0373742593274 L419.20508050535926,681.3202862579362 M419.20508050535926,681.3202862579362 L422.460889715663,682.1114750452714 M422.460889715663,682.1114750452714 L425.61868794370326,682.3895622002178 M432.90486150845123,663.6184534955012 L432.92842693975996,488.64967258211004 M415.93937500975886,680.0373742593274 L387.0260912686381,696.6022752488416 M416.32450237562534,651.8374601998125 L431.4313277531947,660.4882024129138 M431.4313277531947,660.4882024129138 L431.4411898924923,578.6906476871484 M416.32450237562534,651.8374601998125 L416.3225306095435,570.0468585229825 M431.4313277531947,660.4882024129138 L456.5995184622726,646.0719105187928 M456.60844364709385,621.38615059875 L481.6765944234154,607.0340335887245 M514.4650525321786,577.9209577142708 L513.9448110690819,573.2671750811827 M513.9448110690819,573.2671750811827 L512.4059242363878,569.4911996981227 M512.4059242363878,569.4911996981227 L509.93996778583914,566.8183653090349 M509.93996778583914,566.8183653090349 L506.69383436977245,565.408291515133 M506.69383436977245,565.408291515133 L502.8610097600026,565.3453711818547 M502.8610097600026,565.3453711818547 L498.6700654534229,566.6335393722983 M498.6700654534229,566.6335393722983 L494.37103254501966,569.1962491410765 M494.37103254501966,569.1962491410765 L490.2204727311449,572.8806700215662 M490.2204727311449,572.8806700215662 L486.4661407301745,577.4669950992455 M486.4661407301745,577.4669950992455 L483.33215984618334,582.6815392552933 M483.33215984618334,582.6815392552933 L481.00560632902557,588.212986827104 M481.00560632902557,588.212986827104 L479.62531742910085,593.7311846497366 M479.62531742910085,593.7311846497366 L479.2735890344101,598.9068402695054 M479.2735890344101,598.9068402695054 L479.97128189118837,603.4310545612473 M479.97128189118837,603.4310545612473 L481.6765944234154,607.0340335887245 M512.0338937785571,589.653752277153 L513.3680623180101,585.6279226964234 M513.3680623180101,585.6279226964234 L514.1869814079166,581.6758797808872 M514.1869814079166,581.6758797808872 L514.4650525321786,577.9209577142708 M512.0338937785571,589.653752277153 L537.0711924803693,575.3192988190708 M537.0432768610149,599.9938783097431 L562.1524779963311,585.6113755315697 M562.1524779963311,585.6113755315697 L562.2645800958344,503.87407843097714 M562.1524779963311,585.6113755315697 L547.0456868931813,576.9857275035245 M547.0456868931813,576.9857275035245 L547.1459551678336,495.25538288017617 M547.0456868931813,576.9857275035245 L521.9364742359292,591.3634129641581 M492.6830227325986,589.1056361574007 L521.9552339570301,572.3503757231699 M492.6830227325986,589.1056361574007 L493.86496711527985,587.2382822850591 M493.86496711527985,587.2382822850591 L494.9511888160959,585.3086401500453 M494.9511888160959,585.3086401500453 L495.93310526039653,583.3319860164224 M495.93310526039653,583.3319860164224 L506.56958208567306,570.1199273890184 M506.56958208567306,570.1199273890184 L506.5975245737584,536.8326956425951 M506.5975245737584,536.8326956425951 L481.7807262114618,534.3773126066329 M481.7807262114618,534.3773126066329 L456.9301713351483,565.2375709218863 M456.9301713351483,565.2375709218863 L456.9180368709485,598.534121484349 M456.9180368709485,598.534121484349 L467.55515192090246,599.5741438686268 M467.55515192090246,599.5741438686268 L468.53596163086314,600.4278444268459 M468.53596163086314,600.4278444268459 L469.62121885856004,601.1149560410586 M469.62121885856004,601.1149560410586 L470.80233423211115,601.6300276867961 M441.49682009236926,618.4043505353748 L470.80233423211115,601.6300276867961 M441.4926947364069,637.4260026079103 L416.32450237562534,651.8374601998125 M567.396556504304,608.1551614663256 L514.4650525321786,577.9209577142708 M481.6765944234154,607.0340335887245 L493.09474983501997,614.4729938859841 M493.09474983501997,614.4729938859841 L500.6874774133947,617.5181226815836 M500.6874774133947,617.5181226815836 L505.20730123192334,618.3268485776634 M505.20730123192334,618.3268485776634 L508.4985790050799,618.211551421849 M508.4985790050799,618.211551421849 L511.10424098947146,617.4662328682467 M511.10424098947146,617.4662328682467 L513.0510743290187,616.2800688220228 M513.0510743290187,616.2800688220228 L514.5947723002159,614.6211896963065 M514.5947723002159,614.6211896963065 L515.7156881930998,612.5108122641491 M515.7156881930998,612.5108122641491 L516.3995934875198,609.975777954307 M516.3995934875198,609.975777954307 L516.637796354378,607.0484839787292 M516.637796354378,607.0484839787292 L516.2577341773465,602.6003211847467 M516.2577341773465,602.6003211847467 L514.713855043484,596.421144621605 M514.713855043484,596.421144621605 L512.0338937785571,589.653752277153 M470.80233423211115,601.6300276867961 L471.49638881751224,601.667452882845 M471.49638881751224,601.667452882845 L452.5676802269662,612.5022379793577 M452.5676802269662,612.5022379793577 L422.36231438321084,655.8558134178526 M422.36231438321084,655.8558134178526 L479.65515040016686,623.0448370364231 M479.65515040016686,623.0448370364231 L509.89373863370184,579.6888254691497 M509.89373863370184,579.6888254691497 L490.9811771238046,590.5143679832678 M490.9811771238046,590.5143679832678 L492.6830227325986,589.1056361574007 M490.9811771238046,590.5143679832678 L492.6262625046982,588.1368564192665 M492.6262625046982,588.1368564192665 L494.1158273224934,585.6354022758088 M494.1158273224934,585.6354022758088 L495.42951952104914,583.0442510602495 M495.42951952104914,583.0442510602495 L495.93310526039653,583.3319860164224 M506.06596207346115,569.8322806046194 L495.42951952104914,583.0442510602495 M506.56958208567306,570.1199273890184 L506.06596207346115,569.8322806046194 M506.08959996039147,541.5103535717082 L506.06596207346115,569.8322806046194 M506.08959996039147,541.5103535717082 L478.8952052710694,525.9865946678234 M478.8980567835613,521.0221450209793 L478.8952052710694,525.9865946678234 M506.5975245737584,536.8326956425951 L478.8980567835613,521.0221450209793 M454.0768330123781,518.5606366886782 L478.8980567835613,521.0221450209793 M481.7807262114618,534.3773126066329 L454.0768330123781,518.5606366886782 M429.2306869001893,549.4095637166572 L454.0768330123781,518.5606366886782 M456.9301713351483,565.2375709218863 L429.2306869001893,549.4095637166572 M429.23019336257005,554.3754041033596 L429.2306869001893,549.4095637166572 M429.23019336257005,554.3754041033596 L456.4246043077281,569.9163020787685 M456.41441647249667,598.2461571595968 L456.4246043077281,569.9163020787685 M456.9180368709485,598.534121484349 L456.41441647249667,598.2461571595968 M467.0515659608165,599.2862274120247 L456.41441647249667,598.2461571595968 M467.0515659608165,599.2862274120247 L467.55515192090246,599.5741438686268 M467.0515659608165,599.2862274120247 L468.3638498776729,600.3749409736353 M468.3638498776729,600.3749409736353 L469.85224709627147,601.1723302081348 M469.85224709627147,601.1723302081348 L471.49638881751224,601.667452882845 M452.5807189361465,572.1148165152906 L456.4246043077281,569.9163020787685 M452.5676802269662,612.5022379793577 L452.5807189361465,572.1148165152906 M422.3657196954741,554.8462570394067 L452.5807189361465,572.1148165152906 M422.36231438321084,655.8558134178526 L422.3657196954741,554.8462570394067 M479.7139387277164,522.0678804219381 L422.3657196954741,554.8462570394067 M479.65515040016686,623.0448370364231 L479.7139387277164,522.0678804219381 M468.64129931139445,551.7466647584035 L468.13229170161543,547.1490217946591 M468.13229170161543,547.1490217946591 L466.63006872944476,543.4028887296931 M466.63006872944476,543.4028887296931 L464.2217361638419,540.7260504772063 M464.2217361638419,540.7260504772063 L461.0470745486055,539.2742959495633 M461.0470745486055,539.2742959495633 L457.2904615092879,539.1321575182069 M457.2904615092879,539.1321575182069 L453.17018152200956,540.3082797535676 M453.17018152200956,540.3082797535676 L448.92574971859653,542.7344035883481 M448.92574971859653,542.7344035883481 L444.80397726771736,546.269614900112 M444.80397726771736,546.269614900112 L441.04459705003353,550.7085139194248 M441.04459705003353,550.7085139194248 L437.86628651888503,555.7928383282991 M437.86628651888503,555.7928383282991 L435.45391516331136,561.2269629964287 M435.45391516331136,561.2269629964287 L433.94776173794884,566.6947979982306 M433.94776173794884,566.6947979982306 L433.43534714689036,571.8783741254766 M433.43534714689036,571.8783741254766 L433.9463479469983,576.4762761144469 M433.9463479469983,576.4762761144469 L435.45089620041375,580.221242768623 M435.45089620041375,580.221242768623 L437.86135345271305,582.8957563904273 M437.86135345271305,582.8957563904273 L441.03745241643236,584.3445606230366 M441.03745241643236,584.3445606230366 L444.79448620107166,584.4837989229175 M444.79448620107166,584.4837989229175 L448.9140739227457,583.3054911807099 M448.9140739227457,583.3054911807099 L453.15685905119665,580.8783970800312 M453.15685905119665,580.8783970800312 L457.2764076445304,577.3436530157342 M457.2764076445304,577.3436530157342 L461.03349629290125,572.9065517875256 M461.03349629290125,572.9065517875256 L464.2099724938368,567.8249437615088 M464.2099724938368,567.8249437615088 L466.6213869964815,562.3938318437512 M466.6213869964815,562.3938318437512 L468.12768024449844,556.9286157590918 M468.12768024449844,556.9286157590918 L468.64129931139445,551.7466647584035 M509.92891775902933,539.3144515635198 L479.7139387277164,522.0678804219381 M509.89373863370184,579.6888254691497 L509.92891775902933,539.3144515635198 M506.08959996039147,541.5103535717082 L509.92891775902933,539.3144515635198 M429.23019336257005,554.3754041033596 L478.8952052710694,525.9865946678234 M468.64129931139445,551.7466647584035 L456.56367434200973,544.8479872834998 M456.56367434200973,544.8479872834998 L456.0541014064988,540.2505986585547 M456.0541014064988,540.2505986585547 L454.5513457898448,536.5045484939315 M454.5513457898448,536.5045484939315 L452.14254423836945,533.8276168445061 M452.14254423836945,533.8276168445061 L448.9675045893933,532.3755979879766 M448.9675045893933,532.3755979879766 L445.2106264655107,532.2330395988556 M445.2106264655107,532.2330395988556 L441.09020979543584,533.4086105904839 M441.09020979543584,533.4086105904839 L436.8457776612552,535.8340839072566 M436.8457776612552,535.8340839072566 L432.72414125090745,539.3685832317013 M432.72414125090745,539.3685832317013 L428.96502553219955,543.8067501959586 M428.96502553219955,543.8067501959586 L425.7870925399508,548.8903650891475 M425.7870925399508,548.8903650891475 L423.37518979490875,554.3238440743216 M423.37518979490875,554.3238440743216 L421.8695687799498,559.7911348133371 M421.8695687799498,559.7911348133371 L421.35771943533456,564.9742997707806 M421.35771943533456,564.9742997707806 L421.8692854558289,569.5719475966425 M421.8692854558289,569.5719475966425 L423.3743660610783,573.3168318521388 M423.3743660610783,573.3168318521388 L425.78529188633945,575.991439583591 M425.78529188633945,575.991439583591 L428.96176844522086,577.4405089055657 M428.96176844522086,577.4405089055657 L432.7190669506465,577.5801677972565 M432.7190669506465,577.5801677972565 L436.838791149485,576.4024116611224 M436.838791149485,576.4024116611224 L441.0815766083186,573.9759680860933 M441.0815766083186,573.9759680860933 L445.20098936607127,570.4419356603073 M445.20098936607127,570.4419356603073 L448.9578138788075,566.0055658617912 M448.9578138788075,566.0055658617912 L452.1339129793284,560.924666592822 M452.1339129793284,560.924666592822 L454.5448592846253,555.4941996398911 M454.5448592846253,555.4941996398911 L456.050620415464,550.0295273049154 M456.050620415464,550.0295273049154 L456.56367434200973,544.8479872834998" stroke="black"  stroke-width="4"  fill="red"/>
<path d="M467.17406962607777,352.1803137950071 L467.3367163985382,-0.24197667160029823 M467.3367163985382,-0.24197667160029823 L477.54158044492084,7.117380491901656 M477.54158044492084,7.117380491901656 L484.3389971844295,15.645364905255235 M484.3389971844295,15.645364905255235 L487.3325054397323,24.847268899424478 M487.3325054397323,24.847268899424478 L486.3461355169833,34.18874489291039 M486.3461355169833,34.18874489291039 L481.43508660307344,43.12675284159462 M481.43508660307344,43.12675284159462 L472.88300723494103,51.14116257123197 M472.88300723494103,51.14116257123197 L461.1859173033367,57.76513482856859 M461.1859173033367,57.76513482856859 L447.02360752124014,62.61249681131477 M447.02360752124014,62.61249681131477 L431.22013259631797,65.40046351671657 M431.22013259631797,65.40046351671657 L414.6956942557536,65.96632019971975 M414.6956942557536,65.96632019971975 L398.41276517923393,64.2770357449345 M398.41276517923393,64.2770357449345 L383.31964737658143,60.43121492837855 M383.31964737658143,60.43121492837855 L370.29491462902575,54.65327288703219 M370.29491462902575,54.65327288703219 L360.0960387731904,47.280172367934995 M360.0960387731904,47.280172367934995 L353.315214743748,38.741593042191255 M353.315214743748,38.741593042191255 L350.34510253505414,29.534669738430864 M350.34510253505414,29.534669738430864 L351.35631210004095,20.194899900069743 M351.35631210004095,20.194899900069743 L356.28795378509915,11.264932713223345 M356.28795378509915,11.264932713223345 L364.8516614997718,3.2630563121171576 M364.8516614997718,3.2630563121171576 L376.5487514384271,-3.3467612814783365 M376.5487514384271,-3.3467612814783365 L390.699432881994,-8.181589928577353 M390.699432881994,-8.181589928577353 L406.4823150307673,-10.96151586690263 M406.4823150307673,-10.96151586690263 L422.98191371540184,-11.525666395512474 M422.98191371540184,-11.525666395512474 L439.24144673475723,-9.841401257347854 M439.24144673475723,-9.841401257347854 L454.31797182904324,-6.0061753627098255 M454.31797182904324,-6.0061753627098255 L467.3367163985382,-0.24197667160029823 M467.17406962607777,352.1803137950071 L454.199002098613,346.39568641808097 M454.199002098613,346.39568641808097 L439.17304165235686,342.546865806167 M439.17304165235686,342.546865806167 L422.9680317570228,340.8566298424043 M422.9680317570228,340.8566298424043 L406.5237593781281,341.42278036180454 M406.5237593781281,341.42278036180454 L390.793805529794,344.21256090337323 M390.793805529794,344.21256090337323 L376.6905901601362,349.06452617727234 M376.6905901601362,349.06452617727234 L365.0327521791659,355.69776669054943 M365.0327521791659,355.69776669054943 L356.4978011451269,363.72799126078036 M356.4978011451269,363.72799126078036 L351.5827429965841,372.68958456103485 M351.5827429965841,372.68958456103485 L350.5749682821495,382.0624205796458 M350.5749682821495,382.0624205796458 L353.5351528162457,391.30192845216226 M353.5351528162457,391.30192845216226 L360.29325018779207,399.87071697035236 M360.29325018779207,399.87071697035236 L370.45791167473095,407.26989550470483 M370.45791167473095,407.26989550470483 L383.43892725860275,413.06826860214386 M383.43892725860275,413.06826860214386 L398.4813692395867,416.9276859632349 M398.4813692395867,416.9276859632349 L414.70961843494405,418.6229421092717 M414.70961843494405,418.6229421092717 L431.1785640402881,418.0550851412276 M431.1785640402881,418.0550851412276 L446.9289726900535,415.25726244583205 M446.9289726900535,415.25726244583205 L461.0437384866485,410.3927616747077 M461.0437384866485,410.3927616747077 L472.701576460662,403.7453640564626 M472.701576460662,403.7453640564626 L481.2249770598601,395.7026039960798 M481.2249770598601,395.7026039960798 L486.11958041190553,386.7329685471878 M486.11958041190553,386.7329685471878 L487.10268191339986,377.3584260791891 M487.10268191339986,377.3584260791891 L484.1192580896946,368.1239383819518 M484.1192580896946,368.1239383819518 L477.3446791817435,359.5657466034622 M477.3446791817435,359.5657466034622 L467.17406962607777,352.1803137950071 M451.5724946010243,361.06698030811464 L458.4581995608506,366.06903297830866 M458.4581995608506,366.06903297830866 L463.04335343311124,371.8648008187641 M463.04335343311124,371.8648008187641 L465.06084048903676,378.117868421648 M465.06084048903676,378.117868421648 L464.3925009922392,384.4650265453559 M464.3925009922392,384.4650265453559 L461.0762080582634,390.5373372837204 M461.0762080582634,390.5373372837204 L455.3038892939613,395.98158418701513 M455.3038892939613,395.98158418701513 L447.4105609014416,400.48087623032467 M447.4105609014416,400.48087623032467 L437.8549517570136,403.7731768428415 M437.8549517570136,403.7731768428415 L427.19285152818634,405.6666555841648 M427.19285152818634,405.6666555841648 L416.04470668369504,406.0509552549696 M416.04470668369504,406.0509552549696 L405.0593709361043,404.90367547860603 M405.0593709361043,404.90367547860603 L394.8761852187683,402.2916892785238 M394.8761852187683,402.2916892785238 L386.0876088136324,398.3672106186434 M386.0876088136324,398.3672106186434 L379.2046306910196,393.35885633619955 M379.2046306910196,393.35885633619955 L374.6270326460306,387.5582305061965 M374.6270326460306,387.5582305061965 L372.620199455038,381.30286144498376 M372.620199455038,381.30286144498376 L373.29985018194526,374.956485629224 M373.29985018194526,374.956485629224 L376.62552044912144,368.887861747797 M376.62552044912144,368.887861747797 L382.4031344131809,363.4493616363722 M382.4031344131809,363.4493616363722 L390.29646280716264,358.9565597995673 M390.29646280716264,358.9565597995673 L399.8467767534944,355.67000598221426 M399.8467767534944,355.67000598221426 L410.49949964808434,353.78021409941397 M410.49949964808434,353.78021409941397 L421.6363332596267,353.3966967357737 M421.6363332596267,353.3966967357737 L432.61101514009584,354.54167505200456 M432.61101514009584,354.54167505200456 L442.7866450305127,357.1488032621891 M442.7866450305127,357.1488032621891 L451.5724946010243,361.06698030811464 M451.6826582558539,8.613314684067461 L458.59155200324744,13.597711710939791 M458.59155200324744,13.597711710939791 L463.1921568551424,19.373026440607475 M463.1921568551424,19.373026440607475 L465.21645478627045,25.604032061306555 M465.21645478627045,25.604032061306555 L464.54588409707407,31.92880146437193 M464.54588409707407,31.92880146437193 L461.2184410436123,37.97969790024143 M461.2184410436123,37.97969790024143 L455.4266958191706,43.40474949952687 M455.4266958191706,43.40474949952687 L447.50679057023893,47.888180882803624 M447.50679057023893,47.888180882803624 L437.9189987097729,51.168877333596754 M437.9189987097729,51.168877333596754 L427.2209832998339,53.05568289348702 M427.2209832998339,53.05568289348702 L416.03528348808027,53.438628235365115 M416.03528348808027,53.438628235365115 L405.01294206435887,52.295391700008906 M405.01294206435887,52.295391700008906 L394.7954567544246,49.69261129844239 M394.7954567544246,49.69261129844239 L385.97728457895516,45.78196592060846 M385.97728457895516,45.78196592060846 L379.0711360622398,40.79126836814163 M379.0711360622398,40.79126836814163 L374.47813800427446,35.01109648664573 M374.47813800427446,35.01109648664573 L372.46456580205944,28.777789804485963 M372.46456580205944,28.777789804485963 L373.1465240194979,22.45380257446601 M373.1465240194979,22.45380257446601 L376.483407659498,16.40659235976574 M376.483407659498,16.40659235976574 L382.2804838016485,10.987286561366147 M382.2804838016485,10.987286561366147 L390.20038905206195,6.510344265419974 M390.20038905206195,6.510344265419974 L399.78284999650293,3.2353936188156354 M399.78284999650293,3.2353936188156354 L410.47142481885265,1.3522742816903133 M410.47142481885265,1.3522742816903133 L421.6457370994865,0.9701111120767223 M421.6457370994865,0.9701111120767223 L432.65735279207655,2.1110465841611017 M432.65735279207655,2.1110465841611017 L442.86723130843836,4.7089698335382195 M442.86723130843836,4.7089698335382195 L451.6826582558539,8.613314684067461 M451.5724946010243,361.06698030811464 L451.6826582558539,8.613314684067461" stroke="black"  stroke-width="4"  fill="red"/></svg>