<svg version="1.1" xmlns="http://www.w3.org/2000/svg" viewBox="-11.050001 -17.856948328934795 22.100002 32.92527691734715" fill="none" stroke="black" stroke-width="0.6%" vector-effect="non-scaling-stroke">
    <path d="M 9.1763 4.90741 L 9.1763 0.90822" />
    <path d="M 9.49507 0.22727 A 10.05 8.17707 360 0 1 7.56982 8.28552 A 10.05 8.17707 360 0 1 -7.56982 8.28552 A 10.05 8.17707 360 0 1 -9.49507 0.22727" />
    <path d="M 2.45878 10.37304 L 9.1763 4.90741" />
    <path d="M -6.71751 8.37248 L 2.45878 10.37304 L 2.45878 5.56113" />
    <path d="M -9.17463 0.91134 L -6.71751 8.37248 L -6.71751 3.70176" />
    <path d="M -10 -2.32548 A 10 8.13639 180 0 0 10 -2.32548" />
    <path d="M -2.25965 13.23298 A 3 2.44092 180 0 0 2.25965 13.23298 L 7.56982 8.28552" />
    <path d="M -7.07107 -14.47385 A 10 8.13639 360 0 1 10 -8.72056 L 10 -2.32548" />
    <path d="M 10 -8.72056 A 10 8.13639 360 0 1 -10 -8.72056 L -10 -2.32548" />
    <path d="M -10 -8.72056 A 10 8.13639 360 0 1 -7.07107 -14.47385" />
    <path d="M -5.40937 -13.12183 A 7.65 6.22434 360 0 1 7.64532 -8.50278 A 7.65 6.22434 360 0 1 -7.64532 -8.50278 A 7.65 6.22434 360 0 1 -5.40937 -13.12183 Z" />
    <path d="M -5.23259 -7.16429 A 7.4 6.02093 360 0 1 -4 -7.97237" />
    <path d="M 4 -7.97237 A 7.4 6.02093 360 0 1 6.61877 -5.59949" />
    <path d="M -6.61877 -5.59949 A 7.4 6.02093 360 0 1 -5.23259 -7.16429" />
    <path d="M -2.82843 -13.92873 A 4 3.25456 360 0 1 4 -11.62741 L 4 -3.41488" />
    <path d="M 4 -11.62741 A 4 3.25456 360 0 1 -4 -11.62741 L -4 -3.41488" />
    <path d="M -4 -11.62741 A 4 3.25456 360 0 1 -2.82843 -13.92873" />
    <path d="M -2.19203 -13.41093 A 3.1 2.52228 360 0 1 3.1 -11.62741 A 3.1 2.52228 360 0 1 -3.1 -11.62741 A 3.1 2.52228 360 0 1 -2.19203 -13.41093 Z" />
    <path d="M -2.25965 13.23298 L -7.56982 8.28552" />
</svg>