<svg version="1.1" xmlns="http://www.w3.org/2000/svg" viewBox="-11.050001 -16.888766878361906 22.100002 32.90960079542388" fill="none" stroke="black" stroke-width="0.6%" vector-effect="non-scaling-stroke">
    <path d="M 9.1763 7.10087 L 9.1763 3.94617" />
    <path d="M 9.68815 2.64728 A 10.05 8.72273 360 0 1 5.73337 12.13086 A 10.05 8.72273 360 0 1 -5.73337 12.13086 A 10.05 8.72273 360 0 1 -9.68815 2.64728" />
    <path d="M 2.45878 12.93122 L 9.1763 7.10087" />
    <path d="M -6.71751 10.79717 L 2.45878 12.93122 L 2.45878 8.90956" />
    <path d="M -8.4754 5.10307 L -6.71751 10.79717 L -6.71751 6.92613" />
    <path d="M -10 0.49668 A 10 8.67933 180 0 0 10 0.49668" />
    <path d="M -1.71145 14.55556 A 3 2.6038 180 0 0 1.71145 14.55556 L 5.73337 12.13086" />
    <path d="M -7.07107 -11.10403 A 10 8.67933 360 0 1 -3.9546 -12.93863" />
    <path d="M 3.9546 -12.93863 A 10 8.67933 360 0 1 10 -4.96681 A 10 8.67933 360 0 1 -10 -4.96681 A 10 8.67933 360 0 1 -7.07107 -11.10403" />
    <path d="M -5.40937 -9.66178 A 7.65 6.63969 360 0 1 -4 -10.62654" />
    <path d="M 4 -10.62654 A 7.65 6.63969 360 0 1 7.6427 -4.67675 A 7.65 6.63969 360 0 1 -7.6427 -4.67675 A 7.65 6.63969 360 0 1 -5.40937 -9.66178" />
    <path d="M -5.23259 -4.54154 A 7.4 6.4227 360 0 1 -4 -5.40354" />
    <path d="M 4 -5.40354 A 7.4 6.4227 360 0 1 6.95314 -2.19808" />
    <path d="M -6.95314 -2.19808 A 7.4 6.4227 360 0 1 -5.23259 -4.54154" />
    <path d="M -4 0 A 4 3.47173 180 0 0 -3.90776 0.74125" />
    <path d="M 3.90776 0.74125 A 4 3.47173 180 0 0 4 0" />
    <path d="M -2.82843 -14.87192 A 4 3.47173 360 0 1 4 -12.41703 L 4 0" />
    <path d="M 4 -12.41703 A 4 3.47173 360 0 1 -4 -12.41703 L -4 0" />
    <path d="M -4 -12.41703 A 4 3.47173 360 0 1 -2.82843 -14.87192" />
    <path d="M -2.03151 -7.93634 C -2.03 -7.93 -2.03 -7.92 -2.03252 -7.91315 C -2.03 -7.91 -2.03 -7.9 -2.03556 -7.89104 C -2.04 -7.88 -2.04 -7.88 -2.04062 -7.87006 C -2.04 -7.86 -2.05 -7.86 -2.0477 -7.85024 C -2.05 -7.84 -2.05 -7.84 -2.05679 -7.83164 C -2.06 -7.83 -2.06 -7.82 -2.06787 -7.81432 C -2.07 -7.81 -2.08 -7.8 -2.08093 -7.79832 C -2.09 -7.79 -2.09 -7.79 -2.09595 -7.78372 C -2.1 -7.78 -2.11 -7.77 -2.11705 -7.76779 C -2.12 -7.76 -2.13 -7.76 -2.14104 -7.75418 C -2.15 -7.75 -2.16 -7.75 -2.16784 -7.74304 C -2.18 -7.74 -2.19 -7.74 -2.1974 -7.73451 C -2.21 -7.73 -2.22 -7.73 -2.22964 -7.72873 C -2.24 -7.73 -2.25 -7.73 -2.26447 -7.72587 C -2.28 -7.73 -2.29 -7.73 -2.30182 -7.72609 C -2.31 -7.73 -2.33 -7.73 -2.34156 -7.72958 C -2.35 -7.73 -2.35 -7.73 -2.35906 -7.73207 C -2.36 -7.73 -2.37 -7.73 -2.37702 -7.73521 C -2.38 -7.74 -2.39 -7.74 -2.39542 -7.739 C -2.4 -7.74 -2.41 -7.74 -2.41424 -7.74346 C -2.42 -7.75 -2.43 -7.75 -2.43344 -7.74861 C -2.44 -7.75 -2.45 -7.75 -2.45301 -7.75446 C -2.46 -7.76 -2.47 -7.76 -2.47291 -7.76101 C -2.48 -7.76 -2.49 -7.77 -2.49312 -7.76828 C -2.5 -7.77 -2.51 -7.77 -2.51362 -7.77627 C -2.52 -7.78 -2.53 -7.78 -2.53437 -7.78499 C -2.54 -7.79 -2.55 -7.79 -2.55534 -7.79443 C -2.56 -7.8 -2.57 -7.8 -2.57652 -7.80461 C -2.58 -7.81 -2.59 -7.81 -2.59786 -7.81551 C -2.61 -7.82 -2.61 -7.82 -2.61935 -7.82715 C -2.63 -7.83 -2.63 -7.84 -2.64095 -7.8395 C -2.65 -7.84 -2.66 -7.85 -2.66263 -7.85258 C -2.67 -7.86 -2.68 -7.86 -2.68436 -7.86637 C -2.69 -7.87 -2.7 -7.88 -2.70612 -7.88085 C -2.72 -7.89 -2.74 -7.9 -2.74962 -7.91189 C -2.78 -7.93 -2.81 -7.96 -2.83572 -7.98179 C -2.89 -8.03 -2.95 -8.09 -2.99881 -8.1484 C -3.41 -8.66 -3.51 -9.21 -3.4069 -9.29415 C -3.4 -9.3 -3.4 -9.3 -3.39492 -9.30253 C -3.39 -9.3 -3.39 -9.31 -3.38326 -9.30763 C -3.38 -9.31 -3.37 -9.31 -3.3703 -9.31078 C -3.37 -9.31 -3.36 -9.31 -3.356 -9.31195 C -3.35 -9.31 -3.35 -9.31 -3.34034 -9.31111 C -3.33 -9.31 -3.33 -9.31 -3.32329 -9.30824 C -3.32 -9.31 -3.31 -9.31 -3.30483 -9.30332 C -3.3 -9.3 -3.29 -9.3 -3.28493 -9.29635 C -3.28 -9.29 -3.27 -9.29 -3.26358 -9.28731 C -3.26 -9.28 -3.25 -9.28 -3.24074 -9.27622 C -3.23 -9.27 -3.22 -9.27 -3.21642 -9.26306 C -3.21 -9.26 -3.2 -9.25 -3.19058 -9.24785 C -3.18 -9.24 -3.17 -9.24 -3.16322 -9.23059 C -3.15 -9.22 -3.14 -9.22 -3.13433 -9.21131 C -3.12 -9.2 -3.11 -9.2 -3.10391 -9.19001 C -3.09 -9.18 -3.08 -9.17 -3.07196 -9.16672 C -3.06 -9.16 -3.05 -9.15 -3.03848 -9.14146 C -3.03 -9.13 -3.02 -9.12 -3.00381 -9.11451 C -2.99 -9.11 -2.98 -9.1 -2.96791 -9.08586 C -2.96 -9.08 -2.94 -9.07 -2.93092 -9.05564 C -2.92 -9.05 -2.91 -9.03 -2.89295 -9.02398 C -2.88 -9.01 -2.87 -9 -2.85417 -8.991 C -2.84 -8.98 -2.83 -8.97 -2.81473 -8.95687 C -2.8 -8.95 -2.79 -8.93 -2.7748 -8.92171 C -2.76 -8.91 -2.75 -8.9 -2.73456 -8.88568 C -2.72 -8.87 -2.71 -8.86 -2.69418 -8.84893 C -2.68 -8.84 -2.67 -8.82 -2.65386 -8.81162 C -2.63 -8.79 -2.6 -8.76 -2.57417 -8.73593 C -2.52 -8.69 -2.47 -8.63 -2.42405 -8.58474 C -2.18 -8.32 -2.03 -8.1 -2.03151 -7.93634 Z" />
    <path d="M -2.03151 -5.45293 C -2.03 -5.45 -2.03 -5.44 -2.03252 -5.42975 C -2.03 -5.42 -2.03 -5.41 -2.03556 -5.40764 C -2.04 -5.4 -2.04 -5.39 -2.04062 -5.38665 C -2.04 -5.38 -2.05 -5.37 -2.0477 -5.36683 C -2.05 -5.36 -2.05 -5.35 -2.05679 -5.34823 C -2.06 -5.34 -2.06 -5.34 -2.06787 -5.33091 C -2.07 -5.33 -2.08 -5.32 -2.08093 -5.31491 C -2.09 -5.31 -2.09 -5.3 -2.09595 -5.30031 C -2.1 -5.29 -2.11 -5.29 -2.11705 -5.28438 C -2.12 -5.28 -2.13 -5.27 -2.14104 -5.27078 C -2.15 -5.27 -2.16 -5.26 -2.16784 -5.25963 C -2.18 -5.26 -2.19 -5.25 -2.1974 -5.2511 C -2.21 -5.25 -2.22 -5.25 -2.22964 -5.24532 C -2.24 -5.24 -2.25 -5.24 -2.26447 -5.24246 C -2.28 -5.24 -2.29 -5.24 -2.30182 -5.24269 C -2.31 -5.24 -2.33 -5.24 -2.34156 -5.24617 C -2.35 -5.25 -2.35 -5.25 -2.35906 -5.24866 C -2.36 -5.25 -2.37 -5.25 -2.37702 -5.2518 C -2.38 -5.25 -2.39 -5.25 -2.39542 -5.25559 C -2.4 -5.26 -2.41 -5.26 -2.41424 -5.26006 C -2.42 -5.26 -2.43 -5.26 -2.43344 -5.26521 C -2.44 -5.27 -2.45 -5.27 -2.45301 -5.27105 C -2.46 -5.27 -2.47 -5.28 -2.47291 -5.27761 C -2.48 -5.28 -2.49 -5.28 -2.49312 -5.28487 C -2.5 -5.29 -2.51 -5.29 -2.51362 -5.29286 C -2.52 -5.3 -2.53 -5.3 -2.53437 -5.30158 C -2.54 -5.3 -2.55 -5.31 -2.55534 -5.31103 C -2.56 -5.31 -2.57 -5.32 -2.57652 -5.3212 C -2.58 -5.32 -2.59 -5.33 -2.59786 -5.33211 C -2.61 -5.34 -2.61 -5.34 -2.61935 -5.34374 C -2.63 -5.35 -2.63 -5.35 -2.64095 -5.3561 C -2.65 -5.36 -2.66 -5.36 -2.66263 -5.36917 C -2.67 -5.37 -2.68 -5.38 -2.68436 -5.38296 C -2.69 -5.39 -2.7 -5.39 -2.70612 -5.39745 C -2.72 -5.41 -2.74 -5.42 -2.74962 -5.42848 C -2.78 -5.45 -2.81 -5.47 -2.83572 -5.49839 C -2.89 -5.55 -2.95 -5.6 -2.99881 -5.665 C -3.41 -6.18 -3.51 -6.73 -3.4069 -6.81074 C -3.4 -6.81 -3.4 -6.82 -3.39492 -6.81912 C -3.39 -6.82 -3.39 -6.82 -3.38326 -6.82422 C -3.38 -6.83 -3.37 -6.83 -3.3703 -6.82738 C -3.37 -6.83 -3.36 -6.83 -3.356 -6.82855 C -3.35 -6.83 -3.35 -6.83 -3.34034 -6.8277 C -3.33 -6.83 -3.33 -6.83 -3.32329 -6.82483 C -3.32 -6.82 -3.31 -6.82 -3.30483 -6.81991 C -3.3 -6.82 -3.29 -6.82 -3.28493 -6.81294 C -3.28 -6.81 -3.27 -6.81 -3.26358 -6.80391 C -3.26 -6.8 -3.25 -6.8 -3.24074 -6.79281 C -3.23 -6.79 -3.22 -6.78 -3.21642 -6.77965 C -3.21 -6.77 -3.2 -6.77 -3.19058 -6.76444 C -3.18 -6.76 -3.17 -6.75 -3.16322 -6.74718 C -3.15 -6.74 -3.14 -6.73 -3.13433 -6.7279 C -3.12 -6.72 -3.11 -6.71 -3.10391 -6.7066 C -3.09 -6.7 -3.08 -6.69 -3.07196 -6.68332 C -3.06 -6.68 -3.05 -6.67 -3.03848 -6.65806 C -3.03 -6.65 -3.02 -6.64 -3.00381 -6.6311 C -2.99 -6.62 -2.98 -6.61 -2.96791 -6.60245 C -2.96 -6.59 -2.94 -6.58 -2.93092 -6.57223 C -2.92 -6.56 -2.91 -6.55 -2.89295 -6.54057 C -2.88 -6.53 -2.87 -6.52 -2.85417 -6.5076 C -2.84 -6.5 -2.83 -6.49 -2.81473 -6.47346 C -2.8 -6.46 -2.79 -6.45 -2.7748 -6.4383 C -2.76 -6.43 -2.75 -6.41 -2.73456 -6.40227 C -2.72 -6.39 -2.71 -6.38 -2.69418 -6.36552 C -2.68 -6.35 -2.67 -6.34 -2.65386 -6.32821 C -2.63 -6.3 -2.6 -6.28 -2.57417 -6.25253 C -2.52 -6.2 -2.47 -6.15 -2.42405 -6.10134 C -2.18 -5.84 -2.03 -5.61 -2.03151 -5.45293 Z" />
    <path d="M -2.19203 -14.31957 A 3.1 2.69059 360 0 1 3.1 -12.41703 A 3.1 2.69059 360 0 1 -3.1 -12.41703 A 3.1 2.69059 360 0 1 -2.19203 -14.31957 Z" />
    <path d="M 1.36774 -13.34154 C 1.37 -13.35 1.37 -13.36 1.36882 -13.36477 C 1.37 -13.37 1.37 -13.38 1.37206 -13.38705 C 1.37 -13.39 1.38 -13.4 1.37745 -13.40833 C 1.38 -13.42 1.38 -13.42 1.38499 -13.42855 C 1.39 -13.44 1.39 -13.44 1.39466 -13.44766 C 1.4 -13.45 1.4 -13.46 1.40645 -13.4656 C 1.41 -13.47 1.42 -13.48 1.42032 -13.4823 C 1.43 -13.49 1.43 -13.49 1.43626 -13.49769 C 1.44 -13.5 1.45 -13.51 1.45458 -13.51195 C 1.46 -13.52 1.47 -13.52 1.47495 -13.52471 C 1.48 -13.53 1.49 -13.53 1.49734 -13.53587 C 1.51 -13.54 1.51 -13.54 1.52169 -13.54535 C 1.53 -13.55 1.54 -13.55 1.54794 -13.55306 C 1.56 -13.56 1.57 -13.56 1.57602 -13.5589 C 1.59 -13.56 1.6 -13.56 1.60586 -13.56279 C 1.62 -13.56 1.63 -13.56 1.63739 -13.56463 C 1.65 -13.56 1.66 -13.56 1.67053 -13.56431 C 1.68 -13.56 1.69 -13.56 1.70518 -13.56174 C 1.72 -13.56 1.73 -13.56 1.74126 -13.55682 C 1.75 -13.55 1.77 -13.55 1.77866 -13.54944 C 1.79 -13.55 1.8 -13.54 1.81729 -13.5395 C 1.83 -13.54 1.84 -13.53 1.85703 -13.52691 C 1.87 -13.52 1.88 -13.52 1.89776 -13.51155 C 1.91 -13.51 1.93 -13.5 1.93938 -13.49334 C 1.95 -13.49 1.95 -13.49 1.9603 -13.48322 C 1.97 -13.48 1.97 -13.48 1.98134 -13.4724 C 1.99 -13.47 2 -13.46 2.00245 -13.46087 C 2.01 -13.46 2.02 -13.45 2.02362 -13.44865 C 2.03 -13.44 2.04 -13.44 2.04481 -13.43572 C 2.05 -13.43 2.06 -13.43 2.066 -13.42212 C 2.07 -13.42 2.08 -13.41 2.08715 -13.40783 C 2.09 -13.4 2.1 -13.4 2.10824 -13.39288 C 2.12 -13.39 2.12 -13.38 2.12924 -13.37728 C 2.14 -13.37 2.14 -13.37 2.15013 -13.36104 C 2.16 -13.35 2.18 -13.34 2.19146 -13.32671 C 2.22 -13.3 2.25 -13.28 2.27165 -13.25122 C 2.38 -13.15 2.47 -13.02 2.53792 -12.8914 C 2.78 -12.44 2.82 -12.05 2.74721 -11.98726 C 2.74 -11.98 2.74 -11.98 2.73536 -11.97937 C 2.73 -11.98 2.73 -11.98 2.72164 -11.97471 C 2.72 -11.97 2.71 -11.97 2.70598 -11.97328 C 2.7 -11.97 2.69 -11.97 2.68831 -11.97511 C 2.68 -11.98 2.68 -11.98 2.66855 -11.98019 C 2.66 -11.98 2.65 -11.99 2.64662 -11.98853 C 2.64 -11.99 2.63 -12 2.62243 -12.00013 C 2.61 -12 2.61 -12.01 2.59592 -12.01497 C 2.59 -12.02 2.59 -12.02 2.58393 -12.02225 C 2.58 -12.02 2.58 -12.03 2.57145 -12.03015 C 2.57 -12.03 2.56 -12.04 2.55849 -12.03865 C 2.55 -12.04 2.55 -12.04 2.54503 -12.04777 C 2.54 -12.05 2.54 -12.05 2.53108 -12.05748 C 2.53 -12.06 2.52 -12.06 2.51665 -12.06778 C 2.51 -12.07 2.51 -12.07 2.50175 -12.07867 C 2.5 -12.08 2.49 -12.09 2.48636 -12.09014 C 2.48 -12.09 2.48 -12.1 2.47052 -12.10216 C 2.47 -12.11 2.46 -12.11 2.45421 -12.11473 C 2.45 -12.12 2.44 -12.12 2.43745 -12.12784 C 2.43 -12.13 2.43 -12.14 2.42026 -12.14147 C 2.41 -12.15 2.41 -12.15 2.40263 -12.1556 C 2.4 -12.16 2.39 -12.17 2.38459 -12.17022 C 2.37 -12.18 2.36 -12.19 2.34731 -12.20085 C 2.33 -12.21 2.32 -12.22 2.30854 -12.23322 C 2.3 -12.24 2.28 -12.26 2.26842 -12.26717 C 2.25 -12.28 2.24 -12.29 2.2271 -12.30254 C 2.21 -12.31 2.2 -12.33 2.18475 -12.33917 C 2.16 -12.36 2.13 -12.39 2.09776 -12.41554 C 2.07 -12.44 2.04 -12.47 2.00912 -12.49494 C 1.64 -12.83 1.36 -13.14 1.36774 -13.34154 Z" />
    <path d="M 1.36774 -10.85813 C 1.37 -10.87 1.37 -10.87 1.36882 -10.88137 C 1.37 -10.89 1.37 -10.9 1.37206 -10.90365 C 1.37 -10.91 1.38 -10.92 1.37745 -10.92492 C 1.38 -10.93 1.38 -10.94 1.38499 -10.94515 C 1.39 -10.95 1.39 -10.96 1.39466 -10.96426 C 1.4 -10.97 1.4 -10.98 1.40645 -10.98219 C 1.41 -10.99 1.42 -10.99 1.42032 -10.99889 C 1.43 -11 1.43 -11.01 1.43626 -11.01428 C 1.44 -11.02 1.45 -11.02 1.45458 -11.02855 C 1.46 -11.03 1.47 -11.04 1.47495 -11.0413 C 1.48 -11.05 1.49 -11.05 1.49734 -11.05246 C 1.51 -11.06 1.51 -11.06 1.52169 -11.06194 C 1.53 -11.06 1.54 -11.07 1.54794 -11.06965 C 1.56 -11.07 1.57 -11.07 1.57602 -11.0755 C 1.59 -11.08 1.6 -11.08 1.60586 -11.07939 C 1.62 -11.08 1.63 -11.08 1.63739 -11.08122 C 1.65 -11.08 1.66 -11.08 1.67053 -11.08091 C 1.68 -11.08 1.69 -11.08 1.70518 -11.07834 C 1.72 -11.08 1.73 -11.08 1.74126 -11.07341 C 1.75 -11.07 1.77 -11.07 1.77866 -11.06603 C 1.79 -11.06 1.8 -11.06 1.81729 -11.0561 C 1.83 -11.05 1.84 -11.05 1.85703 -11.0435 C 1.87 -11.04 1.88 -11.03 1.89776 -11.02815 C 1.91 -11.02 1.93 -11.02 1.93938 -11.00994 C 1.95 -11.01 1.96 -11 1.96636 -10.99677 C 1.98 -10.99 1.98 -10.99 1.99352 -10.98242 C 2 -10.98 2.01 -10.97 2.02078 -10.96692 C 2.03 -10.96 2.04 -10.96 2.04809 -10.95026 C 2.06 -10.94 2.07 -10.94 2.07538 -10.93246 C 2.08 -10.93 2.09 -10.92 2.1026 -10.91355 C 2.11 -10.91 2.12 -10.9 2.12967 -10.89354 C 2.14 -10.89 2.15 -10.88 2.15656 -10.87248 C 2.17 -10.87 2.17 -10.86 2.1832 -10.85039 C 2.19 -10.84 2.2 -10.84 2.20954 -10.82732 C 2.22 -10.82 2.23 -10.81 2.23554 -10.80332 C 2.24 -10.8 2.25 -10.79 2.26113 -10.77842 C 2.28 -10.76 2.29 -10.74 2.31094 -10.72617 C 2.33 -10.71 2.34 -10.69 2.35866 -10.67106" />
    <path d="M 1.7881 -10.21914 C 1.77 -10.23 1.76 -10.25 1.74099 -10.26611 C 1.73 -10.28 1.71 -10.3 1.69595 -10.31241 C 1.68 -10.33 1.67 -10.34 1.65318 -10.35796 C 1.64 -10.37 1.63 -10.39 1.61286 -10.4027 C 1.6 -10.42 1.59 -10.43 1.57515 -10.44658 C 1.56 -10.46 1.55 -10.48 1.54022 -10.48954 C 1.53 -10.5 1.52 -10.52 1.50822 -10.53154 C 1.5 -10.55 1.49 -10.56 1.47926 -10.57253 C 1.47 -10.59 1.46 -10.6 1.45346 -10.61247 C 1.45 -10.63 1.44 -10.64 1.43092 -10.6513 C 1.42 -10.66 1.42 -10.68 1.41172 -10.68899 C 1.41 -10.7 1.4 -10.71 1.39594 -10.72547 C 1.39 -10.74 1.39 -10.75 1.38362 -10.76069 C 1.38 -10.77 1.38 -10.78 1.3748 -10.79458 C 1.37 -10.81 1.37 -10.82 1.36951 -10.82709 C 1.37 -10.84 1.37 -10.85 1.36774 -10.85813" />
    <path d="M -1.71145 14.55556 L -5.73337 12.13086" />
    <path d="M -10 -4.96681 L -10 0.49668" />
    <path d="M 10 -4.96681 L 10 0.49668" />
</svg>