<svg viewBox="0 0 800 800" xmlns="http://www.w3.org/2000/svg"><path d="M187.7777438892996,758.7061325375666 L193.62373187893962,763.0208756005704 M193.62373187893962,763.0208756005704 L197.50000138593245,768.0202630250488 M197.50000138593245,768.0202630250488 L199.18070039903225,773.414119864339 M199.18070039903225,773.414119864339 L198.56738487567094,778.8891373147653 M198.56738487567094,778.8891373147653 L195.69485764491952,784.1270793008205 M195.69485764491952,784.1270793008205 L190.7293709398387,788.8232648954677 M190.7293709398387,788.8232648954677 L183.95916694314218,792.7043170986157 M183.95916694314218,792.7043170986157 L175.77763304104607,795.5442467685034 M175.77763304104607,795.5442467685034 L166.66068824199127,797.177553409781 M166.66068824199127,797.177553409781 L157.13886233825136,797.5090450182919 M157.13886233825136,797.5090450182919 L147.7663412327571,796.5194067127203 M147.7663412327571,796.5194067127203 L139.08861385980094,794.2663160563044 M139.08861385980094,794.2663160563044 L131.6105265825202,790.881086881346 M131.6105265825202,790.881086881346 L125.76691334046251,786.5608989422805 M125.76691334046251,786.5608989422805 L121.8971391744787,781.5573140077996 M121.8971391744787,781.5573140077996 L120.22556812158831,776.1614686096151 M120.22556812158831,776.1614686096151 L120.84855310430493,770.6871271079017 M120.84855310430493,770.6871271079017 L123.7290761519003,765.452370727942 M123.7290761519003,765.452370727942 L128.69905327789775,760.7611506216136 M128.69905327789775,760.7611506216136 L135.4692135973957,756.8857062193338 M135.4692135973957,756.8857062193338 L143.64617972883974,754.050742042596 M143.64617972883974,754.050742042596 L152.75507908557745,752.420621009398 M152.75507908557745,752.420621009398 L162.2672249978325,752.0898053412036 M162.2672249978325,752.0898053412036 L171.6306491185308,753.0774550849063 M171.6306491185308,753.0774550849063 L180.30194653861867,755.3263482201165 M180.30194653861867,755.3263482201165 L187.7777438892996,758.7061325375666 M183.38831210624497,741.2779508382757 L188.33587330808436,744.9284095925376 M188.33587330808436,744.9284095925376 L191.61610623159194,749.1579701186492 M191.61610623159194,749.1579701186492 L193.03793065627067,753.7211112182163 M193.03793065627067,753.7211112182163 L192.51823788045363,758.3527130656613 M192.51823788045363,758.3527130656613 L190.08654676698035,762.783619486086 M190.08654676698035,762.783619486086 L185.88374545578972,766.7560892235795 M185.88374545578972,766.7560892235795 L180.15382926249208,770.0389448800527 M180.15382926249208,770.0389448800527 L173.22973888063166,772.4410917820447 M173.22973888063166,772.4410917820447 L165.514170850265,773.8226106492095 M165.514170850265,773.8226106492095 L157.45608573266094,774.1029847109909 M157.45608573266094,774.1029847109909 L149.52428421438438,773.2659307236087 M149.52428421438438,773.2659307236087 L142.18037616163656,771.3601705109503 M142.18037616163656,771.3601705109503 L135.85150690764254,768.496744491362 M135.85150690764254,768.496744491362 L130.9056467286007,764.8423873482386 M130.9056467286007,764.8423873482386 L127.630066397608,760.6098215125298 M127.630066397608,760.6098215125298 L126.21478033210508,756.0452566501788 M126.21478033210508,756.0452566501788 L126.74139929838913,751.4141387627086 M126.74139929838913,751.4141387627086 L129.178817804063,746.9855131611466 M129.178817804063,746.9855131611466 L133.38483558276295,743.0165985857515 M133.38483558276295,743.0165985857515 L139.1147204829615,739.7377579685343 M139.1147204829615,739.7377579685343 L146.03553897924942,737.3391662279979 M146.03553897924942,737.3391662279979 L153.74534406285593,735.9599281925354 M153.74534406285593,735.9599281925354 L161.7964954448305,735.680038067279 M161.7964954448305,735.680038067279 L169.72178079675672,736.5156683173518 M169.72178079675672,736.5156683173518 L177.06108310482267,738.4184232045985 M177.06108310482267,738.4184232045985 L183.38831210624497,741.2779508382757 M183.38831210624497,741.2779508382757 L185.58333531208433,749.993261875393 M185.58333531208433,749.993261875393 L187.7777438892996,758.7061325375666 M174.74961458076638,746.2243271123033 L177.89788410805141,748.5477867941222 M177.89788410805141,748.5477867941222 L179.98475245928526,751.2396816568267 M179.98475245928526,751.2396816568267 L180.8888051255746,754.1436563375471 M180.8888051255746,754.1436563375471 L180.5572728593919,757.0909940539095 M180.5572728593919,757.0909940539095 L179.0091864040014,759.9103865269924 M179.0091864040014,759.9103865269924 L176.334283740111,762.4379226901617 M176.334283740111,762.4379226901617 L172.68798884877077,764.5265408851391 M172.68798884877077,764.5265408851391 L168.28210645479774,766.054779697256 M168.28210645479774,766.054779697256 L163.37288637580022,766.9336545648604 M163.37288637580022,766.9336545648604 L158.2457981119018,767.1120282440567 M158.2457981119018,767.1120282440567 L153.19905486223422,766.5795157728286 M153.19905486223422,766.5795157728286 L148.52617664077604,765.3671157185316 M148.52617664077604,765.3671157185316 L144.49892207319826,763.5453766398525 M144.49892207319826,763.5453766398525 L141.35134137600062,761.2203382776746 M141.35134137600062,761.2203382776746 L139.26635714409252,758.5272263834117 M139.26635714409252,758.5272263834117 L138.3649522362312,755.622675137682 M138.3649522362312,755.622675137682 L138.6992893339122,752.6755334049645 M138.6992893339122,752.6755334049645 L140.2496951397884,749.857064564671 M140.2496951397884,749.857064564671 L142.9259003451499,747.3309681015812 M142.9259003451499,747.3309681015812 L146.5721825639663,745.2439758260416 M146.5721825639663,745.2439758260416 L150.9767399741313,743.7171767184007 M150.9767399741313,743.7171767184007 L155.88362630473745,742.8392254836551 M155.88362630473745,742.8392254836551 L161.00790668187616,742.6610477896181 M161.00790668187616,742.6610477896181 L166.0520111605817,743.1929836987346 M166.0520111605817,743.1929836987346 L170.72302423409286,744.4041667283973 M170.72302423409286,744.4041667283973 L174.74961458076638,746.2243271123033 M174.74961458076638,746.2243271123033 L174.638966920523,716.3536420454792 M174.638966920523,716.3536420454792 L177.78828930595,718.6763105339528 M177.78828930595,718.6763105339528 L179.87585277676317,721.3672888451503 M179.87585277676317,721.3672888451503 L180.78020232707297,724.2702748879574 M180.78020232707297,724.2702748879574 L180.44855130227504,727.2166093350667 M180.44855130227504,727.2166093350667 L178.89993718721,730.035042215049 M178.89993718721,730.035042215049 L176.22412848387756,732.5617182226403 M176.22412848387756,732.5617182226403 L172.576601781303,734.6496257053117 M172.576601781303,734.6496257053117 L168.16923335799757,736.1773445323802 M168.16923335799757,736.1773445323802 L163.25835949864125,737.0559203778869 M163.25835949864125,737.0559203778869 L158.1295459373712,737.2342333699344 M158.1295459373712,737.2342333699344 L153.0811063047776,736.7019020740894 M153.0811063047776,736.7019020740894 L148.40665935282374,735.4899145277302 M148.40665935282374,735.4899145277302 L144.37805499273975,733.6687953210563 M144.37805499273975,733.6687953210563 L141.2294219049578,731.3445481588561 M141.2294219049578,731.3445481588561 L139.1437438242208,728.6523528212135 M139.1437438242208,728.6523528212135 L138.24204381515432,725.7487902158193 M138.24204381515432,725.7487902158193 L138.57650155791163,722.8026517515316 M138.57650155791163,722.8026517515316 L140.1274365814033,719.9851425004581 M140.1274365814033,719.9851425004581 L142.80454869872682,717.4599061868979 M142.80454869872682,717.4599061868979 L146.45206271598693,715.3736246168334 M146.45206271598693,715.3736246168334 L150.85810526031335,713.8473454881924 M150.85810526031335,713.8473454881924 L155.76664379880546,712.9696932716641 M155.76664379880546,712.9696932716641 L160.89264758377092,712.7915762639525 M160.89264758377092,712.7915762639525 L165.93844667165834,713.3233310001083 M165.93844667165834,713.3233310001083 L170.61102722406272,714.5341015269461 M170.61102722406272,714.5341015269461 L174.638966920523,716.3536420454792" stroke="black"  stroke-width="4"  fill="red"/>
<path d="M355.78977071395104,662.4617474407723 L355.7401270353264,632.6397767614407 M355.7401270353264,632.6397767614407 L360.691399867073,636.273516310843 M360.691399867073,636.273516310843 L363.98112441734696,640.4837131267079 M363.98112441734696,640.4837131267079 L365.4177364103294,645.025932477293 M365.4177364103294,645.025932477293 L364.9171572954311,649.6363345111317 M364.9171572954311,649.6363345111317 L362.5079108279307,654.0469304436668 M362.5079108279307,654.0469304436668 L358.32953353604773,658.001188510822 M358.32953353604773,658.001188510822 L352.62455292666965,661.2690194440141 M352.62455292666965,661.2690194440141 L345.7245560334027,663.6601485679037 M345.7245560334027,663.6601485679037 L338.0307884443538,665.0353266613388 M338.0307884443538,665.0353266613388 L329.99089232653137,665.3144345812843 M329.99089232653137,665.3144345812843 L322.0727220577987,664.4811979691742 M322.0727220577987,664.4811979691742 L314.7369800090014,662.5841809288056 M314.7369800090014,662.5841809288056 L308.41040120925345,659.733876839917 M308.41040120925345,659.733876839917 L303.4608070193718,656.0962650061525 M303.4608070193718,656.0962650061525 L300.1757036418259,651.8830830000641 M300.1757036418259,651.8830830000641 L298.7455966824475,647.3394494263837 M298.7455966824475,647.3394494263837 L299.2530744940085,642.7295281137735 M299.2530744940085,642.7295281137735 L301.6680328985326,638.3211977242732 M301.6680328985326,638.3211977242732 L305.84962682652576,634.370471002961 M305.84962682652576,634.370471002961 L311.5545918891091,631.1066282463554 M311.5545918891091,631.1066282463554 L318.45134461393945,628.7190304648815 M318.45134461393945,628.7190304648815 L326.13938260161217,627.3461179141 M326.13938260161217,627.3461179141 L334.17237627343525,627.0674907225242 M334.17237627343525,627.0674907225242 L342.0840525340186,627.8993130990733 M342.0840525340186,627.8993130990733 L349.41519668504253,629.7933449539817 M349.41519668504253,629.7933449539817 L355.7401270353264,632.6397767614407 M355.78977071395104,662.4617474407723 L349.46695764035263,659.6143429376141 M349.46695764035263,659.6143429376141 L342.1382689838424,657.7196637770919 M342.1382689838424,657.7196637770919 L334.229243989217,656.887557099093 M334.229243989217,656.887557099093 L326.1989436541404,657.1662795214453 M326.1989436541404,657.1662795214453 L318.5134849375474,658.5396612967711 M318.5134849375474,658.5396612967711 L311.6190478425736,660.9280750264977 M311.6190478425736,660.9280750264977 L305.9160003906197,664.1930330427134 M305.9160003906197,664.1930330427134 L301.73581459995927,668.1451095157569 M301.73581459995927,668.1451095157569 L299.3216728499255,672.5549457149982 M299.3216728499255,672.5549457149982 L298.81437241930905,677.1664413807022 M298.81437241930905,677.1664413807022 L300.2440067746728,681.7116263525156 M300.2440067746728,681.7116263525156 L303.52801466669905,685.9262466449125 M303.52801466669905,685.9262466449125 L308.4759538836802,689.5651000606674 M308.4759538836802,689.5651000606674 L314.8004143062641,692.416376868485 M314.8004143062641,692.416376868485 L322.13369778085234,694.3140412323754 M322.13369778085234,694.3140412323754 L330.04921243024614,695.1475621544195 M330.04921243024614,695.1475621544195 L338.0864105815449,694.8683590008131 M338.0864105815449,694.8683590008131 L345.7775950539773,693.4927116692429 M345.7775950539773,693.4927116692429 L352.67527413706154,691.1007665759165 M352.67527413706154,691.1007665759165 L358.3783371201732,687.8318203591889 M358.3783371201732,687.8318203591889 L362.5553084273576,683.8762125191174 M362.5553084273576,683.8762125191174 L364.9637420681372,679.4641107632501 M364.9637420681372,679.4641107632501 L365.4641484280966,674.8521343734336 M365.4641484280966,674.8521343734336 L364.028013403599,670.3083636331994 M364.028013403599,670.3083636331994 L360.7393874419503,666.0967285489348 M360.7393874419503,666.0967285489348 L355.78977071395104,662.4617474407723 M347.13905210304563,637.5634981845069 L350.28966967751825,639.8763247949732 M350.28966967751825,639.8763247949732 L352.3825922934859,642.5558889527698 M352.3825922934859,642.5558889527698 L353.29605455730166,645.4465512851164 M353.29605455730166,645.4465512851164 L352.9767096743468,648.3803865777514 M352.9767096743468,648.3803865777514 L351.44288103277495,651.1868713927105 M351.44288103277495,651.1868713927105 L348.7835433794563,653.7028081957126 M348.7835433794563,653.7028081957126 L345.1531027756331,655.7818751818743 M345.1531027756331,655.7818751818743 L340.76257186860374,657.3030925678344 M340.76257186860374,657.3030925678344 L335.86719399471656,658.1779495949767 M335.86719399471656,658.1779495949767 L330.75169789835394,658.3555059089341 M330.75169789835394,658.3555059089341 L325.71362198428125,657.8254241701571 M325.71362198428125,657.8254241701571 L321.0459499169724,656.6185795992357 M321.0459499169724,656.6185795992357 L317.0201373633221,654.8051972641078 M317.0201373633221,654.8051972641078 L313.8701995681357,652.4908025391038 M313.8701995681357,652.4908025391038 L311.77914833937257,649.8100295015555 M311.77914833937257,649.8100295015555 L310.86832034051076,646.9187944681046 M310.86832034051076,646.9187944681046 L311.19045891032596,643.9851538467633 M311.19045891032596,643.9851538467633 L312.72660065284566,641.1795864840078 M312.72660065284566,641.1795864840078 L315.38724091083327,638.665079729842 M315.38724091083327,638.665079729842 L319.0176752186942,636.5876277901951 M319.0176752186942,636.5876277901951 L323.4068923714323,635.0678404504483 M323.4068923714323,635.0678404504483 L328.2999499911198,634.1939008807947 M328.2999499911198,634.1939008807947 L333.41265088260707,634.0165392396351 M333.41265088260707,634.0165392396351 L338.4480969968232,634.5460482671606 M338.4480969968232,634.5460482671606 L343.11390710227926,635.7516839639509 M343.11390710227926,635.7516839639509 L347.13905210304563,637.5634981845069 M347.13905210304563,637.5634981845069 L347.1040103084522,617.6699451341741 M347.1040103084522,617.6699451341741 L350.255330777519,619.9822441425542 M350.255330777519,619.9822441425542 L352.3487194806788,622.661197106006 M352.3487194806788,622.661197106006 L353.2623838715645,625.5512001753915 M353.2623838715645,625.5512001753915 L352.94296530015276,628.4843664455279 M352.94296530015276,628.4843664455279 L351.4087913309226,631.2902113603861 M351.4087913309226,631.2902113603861 L348.74885669863147,633.805574578458 M348.74885669863147,633.805574578458 L345.11760210145377,635.8841676260652 M345.11760210145377,635.8841676260652 L340.7260874987468,637.405038267183 M340.7260874987468,637.405038267183 L335.82961343915605,638.2796958908912 M335.82961343915605,638.2796958908912 L330.7129724687188,638.4572117359404 M330.7129724687188,638.4572117359404 L325.6737696363305,637.9272508151575 M325.6737696363305,637.9272508151575 L321.005054191435,636.7206813229104 M321.005054191435,636.7206813229104 L316.97834251575284,634.9077123437203 M316.97834251575284,634.9077123437203 L313.8277021315262,632.5938452276731 M313.8277021315262,632.5938452276731 L311.7361856540291,629.9136833897666 M311.7361856540291,629.9136833897666 L310.825156707371,627.0231076217858 M310.825156707371,627.0231076217858 L311.1473702155847,624.0901360220904 M311.1473702155847,624.0901360220904 L312.6838583200225,621.2852085554157 M312.6838583200225,621.2852085554157 L315.34509613862116,618.7712753799142 M315.34509613862116,618.7712753799142 L318.97634443561003,616.6942973717457 M318.97634443561003,616.6942973717457 L323.3665446949028,615.1748567705752 M323.3665446949028,615.1748567705752 L328.2606974612322,614.3011166003357 M328.2606974612322,614.3011166003357 L333.37454197583327,614.1237954272314 M333.37454197583327,614.1237954272314 L338.41111383208874,614.6531836392721 M338.41111383208874,614.6531836392721 L343.07796648300047,615.858544262685 M343.07796648300047,615.858544262685 L347.1040103084522,617.6699451341741" stroke="black"  stroke-width="4"  fill="red"/>
<path d="M589.582200255562,289.8990434036997 L589.6877407826585,180.03530873529215 M589.6877407826585,180.03530873529215 L604.8163621739803,190.4855272192182 M604.8163621739803,190.4855272192182 L616.0733540396159,202.41421794606921 M616.0733540396159,202.41421794606921 L623.0237504633044,215.36498540108963 M623.0237504633044,215.36498540108963 L625.3969078579721,228.84150023531785 M625.3969078579721,228.84150023531785 L623.0974394323291,242.32634499475492 M623.0974394323291,242.32634499475492 L616.2095135178781,255.30083406940767 M616.2095135178781,255.30083406940767 L604.9942631803852,267.26502674028416 M604.9942631803852,267.26502674028416 L589.8802995388836,277.7571226579894 M589.8802995388836,277.7571226579894 L571.4475946017153,286.3715299138323 M571.4475946017153,286.3715299138323 L550.4053346345981,292.77481387924587 M550.4053346345981,292.77481387924587 L527.5645448689432,296.71886999871435 M527.5645448689432,296.71886999871435 L503.80653550624345,298.0507752232884 M503.80653550624345,298.0507752232884 L480.0485261435437,296.71886999871435 M480.0485261435437,296.71886999871435 L457.20773637788875,292.77481387924587 M457.20773637788875,292.77481387924587 L436.16547641077153,286.3715299138323 M436.16547641077153,286.3715299138323 L417.73277147360307,277.75712265798916 M417.73277147360307,277.75712265798916 L402.61880783210165,267.26502674028416 M402.61880783210165,267.26502674028416 L391.40355749460883,255.30083406940767 M391.40355749460883,255.30083406940767 L384.5156315801578,242.32634499475475 M384.5156315801578,242.32634499475475 L382.21616315451473,228.84150023531785 M382.21616315451473,228.84150023531785 L384.5893205491827,215.36498540108963 M384.5893205491827,215.36498540108963 L391.5397169728712,202.41421794606921 M391.5397169728712,202.41421794606921 L402.7967088385065,190.4855272192182 M402.7967088385065,190.4855272192182 L417.9253302298288,180.03530873529198 M417.9253302298288,180.03530873529198 L436.34337758792054,171.4627789505232 M436.34337758792054,171.4627789505232 L457.3438960976198,165.09499702921377 M457.3438960976198,165.09499702921377 L480.1222152833127,161.17466263020495 M480.1222152833127,161.17466263020495 L503.80653550624345,159.85108736698018 M503.80653550624345,159.85108736698018 L527.4908557291742,161.17466263020495 M527.4908557291742,161.17466263020495 L550.2691749148671,165.09499702921377 M550.2691749148671,165.09499702921377 L571.2696934245664,171.4627789505232 M571.2696934245664,171.4627789505232 L589.6877407826585,180.03530873529215 M589.582200255562,289.8990434036997 L571.1868033615888,281.3154638778328 M571.1868033615888,281.3154638778328 L550.2120959236433,274.93947138520116 M550.2120959236433,274.93947138520116 L527.461762340788,271.0140809970503 M527.461762340788,271.0140809970503 L503.80653550624345,269.68879854517957 M503.80653550624345,269.68879854517957 L480.1513086716989,271.0140809970503 M480.1513086716989,271.0140809970503 L457.4009750888435,274.93947138520116 M457.4009750888435,274.93947138520116 L436.4262676508981,281.3154638778328 M436.4262676508981,281.3154638778328 L418.0308707569245,289.8990434036999 M418.0308707569245,289.8990434036999 L402.9208708515554,300.36272630228984 M402.9208708515554,300.36272630228984 L391.67775387629933,312.3067788206373 M391.67775387629933,312.3067788206373 L384.7359467457732,325.27421520276283 M384.7359467457732,325.27421520276283 L382.36575426242985,338.76806559829913 M382.36575426242985,338.76806559829913 L384.66243898245557,352.27024636971964 M384.66243898245557,352.27024636971964 L391.5419292226596,365.2614056548713 M391.5419292226596,365.2614056548713 L402.7434073149636,377.2409620379203 M402.7434073149636,377.2409620379203 L417.8387855150727,387.74652463579366 M417.8387855150727,387.74652463579366 L436.24880394440083,396.37198389814034 M436.24880394440083,396.37198389814034 L457.2651501949211,402.7834803553197 M457.2651501949211,402.7834803553197 L480.0778007384758,406.73259374709073 M480.0778007384758,406.73259374709073 L503.80653550624345,408.0662066108892 M503.80653550624345,408.0662066108892 L527.535270274011,406.73259374709073 M527.535270274011,406.73259374709073 L550.3479208175659,402.7834803553197 M550.3479208175659,402.7834803553197 L571.3642670680861,396.37198389814034 M571.3642670680861,396.37198389814034 L589.7742854974153,387.746524635793 M589.7742854974153,387.746524635793 L604.8696636975235,377.2409620379203 M604.8696636975235,377.2409620379203 L616.0711417898274,365.2614056548713 M616.0711417898274,365.2614056548713 L622.9506320300313,352.27024636971964 M622.9506320300313,352.27024636971964 L625.247316750057,338.76806559829913 M625.247316750057,338.76806559829913 L622.8771242667137,325.27421520276283 M622.8771242667137,325.27421520276283 L615.9353171361875,312.3067788206373 M615.9353171361875,312.3067788206373 L604.6922001609314,300.36272630228984 M604.6922001609314,300.36272630228984 L589.582200255562,289.8990434036997 M567.3771163175186,192.71441130058653 L579.9446622997158,201.65365334335402 M579.9446622997158,201.65365334335402 L588.701348295622,211.959625420601 M588.701348295622,211.959625420601 L593.2059236761559,223.1170862654113 M593.2059236761559,223.1170862654113 L593.2293874090758,234.567416632962 M593.2293874090758,234.567416632962 L588.767092213619,245.7364486473135 M588.767092213619,245.7364486473135 L580.0396650376485,256.0632712596713 M580.0396650376485,256.0632712596713 L567.4825614353252,265.02851351083893 M567.4825614353252,265.02851351083893 L551.7246677201188,272.1806943450747 M551.7246677201188,272.1806943450747 L533.5569219664244,277.15924648984856 M533.5569219664244,277.15924648984856 L513.8924962847227,279.7129794854972 M513.8924962847227,279.7129794854972 L493.7205747277642,279.7129794854972 M493.7205747277642,279.7129794854972 L474.0561490460625,277.15924648984856 M474.0561490460625,277.15924648984856 L455.88840329236814,272.1806943450747 M455.88840329236814,272.1806943450747 L440.13050957716155,265.0285135108386 M440.13050957716155,265.0285135108386 L427.5734059748384,256.0632712596713 M427.5734059748384,256.0632712596713 L418.84597879886786,245.7364486473135 M418.84597879886786,245.7364486473135 L414.3836836034111,234.567416632962 M414.3836836034111,234.567416632962 L414.40714733633104,223.1170862654113 M414.40714733633104,223.1170862654113 L418.911722716865,211.959625420601 M418.911722716865,211.959625420601 L427.6684087127711,201.65365334335402 M427.6684087127711,201.65365334335402 L440.2359546949684,192.71441130058653 M440.2359546949684,192.71441130058653 L455.9834060869118,185.58823068821553 M455.9834060869118,185.58823068821553 L474.1218930346523,180.63052911000088 M474.1218930346523,180.63052911000088 L493.7440384921008,178.08836731096696 M493.7440384921008,178.08836731096696 L513.8690325203861,178.08836731096696 M513.8690325203861,178.08836731096696 L533.4911779778346,180.63052911000088 M533.4911779778346,180.63052911000088 L551.6296649255751,185.58823068821553 M551.6296649255751,185.58823068821553 L567.3771163175186,192.71441130058653 M392.3255302680691,355.7866292013954 L473.90350408883836,402.3497904276435 M422.315101908948,292.3399010509926 L392.3255302680691,355.7866292013954 M533.6228883783942,275.37064219766444 L422.315101908948,292.3399010509926 M615.2008623686547,321.7627342175691 L533.6228883783942,275.37064219766444 M585.4713260131675,385.2949968842721 L615.2008623686547,321.7627342175691 M473.90350408883836,402.3497904276435 L585.4713260131675,385.2949968842721 M567.3771163175186,192.71441130058653 L566.7621764712347,213.0542629689816 M566.7621764712347,213.0542629689816 L566.1475061896851,233.3853314649452 M566.1475061896851,233.3853314649452 L565.5330971176803,253.70762712713983 M565.5330971176803,253.70762712713983 L564.9189531755794,274.02115330896095 M564.9189531755794,274.02115330896095 L564.3050782804903,294.32591335657844 M564.3050782804903,294.32591335657844 L576.6410359368845,303.19661892193994 M576.6410359368845,303.19661892193994 L585.0572468303433,313.4502460427195 M585.0572468303433,313.4502460427195 L589.0977407159288,324.53555130279943 M589.0977407159288,324.53555130279943 L588.541497969567,335.8557145741232 M588.541497969567,335.8557145741232 L583.4150008065553,346.8003464082925 M583.4150008065553,346.8003464082925 L573.991591562482,356.77843110205026 M573.991591562482,356.77843110205026 L560.777362676382,365.25038351466435 M560.777362676382,365.25038351466435 L544.4842780747349,371.7574945450465 M544.4842780747349,371.7574945450465 L525.9919002705287,375.9470888222139 M525.9919002705287,375.9470888222139 L506.29970152214383,377.5919316050767 M506.29970152214383,377.5919316050767 L486.472656149531,376.6027790728659 M486.472656149531,376.6027790728659 L467.58309457384297,373.0333023193706 M467.58309457384297,373.0333023193706 L450.6521695465357,367.07712406336657 M450.6521695465357,367.07712406336657 L436.5941969987717,359.05713099500565 M436.5941969987717,359.05713099500565 L426.1670403574474,349.40767821648205 M426.1670403574474,349.40767821648205 L419.93125824642846,338.650748840094 M419.93125824642846,338.650748840094 L418.22020821602547,327.3674399239387 M418.22020821602547,327.3674399239387 L421.12268444557674,316.16637793834593 M421.12268444557674,316.16637793834593 L428.4788719252061,305.65084273754985 M428.4788719252061,305.65084273754985 L439.8896566980554,296.38635834734305 M439.8896566980554,296.38635834734305 L454.73869304833875,288.8705066788417 M454.73869304833875,288.8705066788417 L472.22587122311285,283.50649036932816 M472.22587122311285,283.50649036932816 L491.4103744484394,280.5818266837464 M491.4103744484394,280.5818266837464 L511.26099424157314,280.2531952591479 M511.26099424157314,280.2531952591479 L530.7110540909207,282.53819007855344 M530.7110540909207,282.53819007855344 L548.715199795798,287.31441977238455 M548.715199795798,287.31441977238455 L564.3050782804903,294.32591335657844 M473.90350408883836,402.3497904276435 L473.900154368307,392.3602558297939 M392.3130555048697,345.80250357734485 L473.900154368307,392.3602558297939 M392.3255302680691,355.7866292013954 L392.3130555048697,345.80250357734485 M422.30599621213844,282.3631635135839 L392.3130555048697,345.80250357734485 M422.315101908948,292.3399010509926 L422.30599621213844,282.3631635135839 M533.6262187066268,265.3958841433514 L422.30599621213844,282.3631635135839 M533.6228883783942,275.37064219766444 L533.6262187066268,265.3958841433514 M615.2133177396312,311.78256796371704 L533.6262187066268,265.3958841433514 M615.2008623686547,321.7627342175691 L615.2133177396312,311.78256796371704 M585.4804704944964,375.3074421566301 L615.2133177396312,311.78256796371704 M585.4713260131675,385.2949968842721 L585.4804704944964,375.3074421566301 M473.900154368307,392.3602558297939 L585.4804704944964,375.3074421566301" stroke="black"  stroke-width="4"  fill="red"/>
<path d="M473.93361784036716,492.1550025216907 L531.2114336620317,483.38128949861766 M531.2144998381971,473.41287697101654 L531.2114336620317,483.38128949861766 M531.2144998381971,473.41287697101654 L573.6688574632342,466.911271662966 M573.6610430029415,476.87893450487513 L573.6688574632342,466.911271662966 M573.6610430029415,476.87893450487513 L585.3891177345968,475.0824492031426 M585.3891177345968,475.0824492031426 L585.4804704944964,375.3074421566301 M473.900154368307,392.3602558297939 L585.4804704944964,375.3074421566301 M473.93361784036716,492.1550025216907 L473.900154368307,392.3602558297939 M422.39696171165747,382.03032052968695 L392.43767764356113,445.5433217671774 M533.592948865148,365.0433050854135 L422.39696171165747,382.03032052968695 M615.0888892307645,411.48391026479123 L533.592948865148,365.0433050854135 M599.8396019206091,444.13845060661424 L615.0888892307645,411.48391026479123 M598.2019499119958,443.2043509607218 L599.8396019206091,444.13845060661424 M529.5737793312067,482.44551713299916 L598.2019499119958,443.2043509607218 M531.2114336620317,483.38128949861766 L529.5737793312067,482.44551713299916 M392.43767764356113,445.5433217671774 L473.93361784036716,492.1550025216907 M515.8145917537267,421.65160721306086 L518.3399853529694,423.4912049313448 M518.3399853529694,423.4912049313448 L520.0210323946367,425.6224492601727 M520.0210323946367,425.6224492601727 L520.7599347564278,427.92154680203066 M520.7599347564278,427.92154680203066 L520.513605242272,430.25491353662494 M520.513605242272,430.25491353662494 L519.2962079504341,432.48693128269116 M519.2962079504341,432.48693128269116 L517.1783665624932,434.48783372333014 M517.1783665624932,434.48783372333014 L514.2830911741023,436.14125828802156 M514.2830911741023,436.14125828802156 L510.77864485122166,437.3510260260422 M510.77864485122166,437.3510260260422 L506.86876415145275,438.0467516763374 M506.86876415145275,438.0467516763374 L502.7808032076028,438.18795256419446 M502.7808032076028,438.18795256419446 L498.75249361032525,437.7664114800409 M498.75249361032525,437.7664114800409 L495.01808984098784,436.80665866763803 M495.01808984098784,436.80665866763803 L491.7947219607559,435.3645371431406 M491.7947219607559,435.3645371431406 L489.26975873755566,433.5239425752895 M489.26975873755566,433.5239425752895 L487.5899042291578,431.39192976336324 M487.5899042291578,431.39192976336324 L486.85268336363225,429.0924681546527 M486.85268336363225,429.0924681546527 L487.1007981266338,426.7592251730373 M487.1007981266338,426.7592251730373 L488.3196754402549,424.5277906494407 M488.3196754402549,424.5277906494407 L490.4383525679442,422.5277972914486 M490.4383525679442,422.5277972914486 L493.3336279563779,420.8753994098728 M493.3336279563779,420.8753994098728 L496.83723853955854,419.66654075468927 M496.83723853955854,419.66654075468927 L500.7456392175139,418.97139832685923 M500.7456392175139,418.97139832685923 L504.8318149124352,418.8303211920448 M504.8318149124352,418.8303211920448 L508.85844301338324,419.2514982090311 M508.85844301338324,419.2514982090311 L512.5916542494615,420.21048253801956 M512.5916542494615,420.21048253801956 L515.8145917537267,421.65160721306086 M529.5766622181864,472.4772124815156 L531.2144998381971,473.41287697101654 M529.5737793312067,482.44551713299916 L529.5766622181864,472.4772124815156 M599.8503368985312,434.1745658371525 L598.2125016015113,433.24057406142265 M588.5289435376486,458.41249071695484 L599.8503368985312,434.1745658371525 M573.6688574632342,466.911271662966 L588.5289435376486,458.41249071695484 M598.2125016015113,433.24057406142265 L529.5766622181864,472.4772124815156 M588.5194687358801,468.3791732581983 L573.6610430029415,476.87893450487513 M588.5289435376486,458.41249071695484 L588.5194687358801,468.3791732581983 M585.3891177345968,475.0824492031426 L588.5194687358801,468.3791732581983 M599.8396019206091,444.13845060661424 L599.8503368985312,434.1745658371525 M615.0888892307645,411.48391026479123 L615.2133177396312,311.78256796371704 M585.4804704944964,375.3074421566301 L615.2133177396312,311.78256796371704 M392.3130555048697,345.80250357734485 L473.900154368307,392.3602558297939 M422.30599621213844,282.3631635135839 L392.3130555048697,345.80250357734485 M615.2133177396312,311.78256796371704 L533.6262187066268,265.3958841433514 M533.6262187066268,265.3958841433514 L422.30599621213844,282.3631635135839 M531.7077841497035,312.8933516892338 L537.5775243639498,317.15736675861547 M537.5775243639498,317.15736675861547 L541.4861527802905,322.0979867480049 M541.4861527802905,322.0979867480049 L543.2059657802633,327.4284333159587 M543.2059657802633,327.4284333159587 L542.6362377358569,332.83908763563613 M542.6362377358569,332.83908763563613 L539.8092537000393,338.01544746260095 M539.8092537000393,338.01544746260095 L534.888622947204,342.65641235595604 M534.888622947204,342.65641235595604 L528.1599310616032,346.4918475940812 M528.1599310616032,346.4918475940812 L520.0142228742918,349.2983793022254 M520.0142228742918,349.2983793022254 L510.92528298409786,350.9124810358329 M510.92528298409786,350.9124810358329 L501.42201287744456,351.2400784634319 M501.42201287744456,351.2400784634319 L492.05752988248094,350.26207631556144 M492.05752988248094,350.26207631556144 L483.376842129677,348.0354807052165 M483.376842129677,348.0354807052165 L475.88499334263537,344.69004689063274 M475.88499334263537,344.69004689063274 L470.0175776290965,340.4206599926506 M470.0175776290965,340.4206599926506 L466.11539020078055,335.4758987952402 M466.11539020078055,335.4758987952402 L464.40465912049467,330.1434903421082 M464.40465912049467,330.1434903421082 L464.98402945754,324.7335029032296 M464.98402945754,324.7335029032296 L467.8190072296721,319.56028594871657 M467.8190072296721,319.56028594871657 L472.7441518917063,314.92421992563516 M472.7441518917063,314.92421992563516 L479.47284377855334,311.0943172838588 M479.47284377855334,311.0943172838588 L487.614038058082,308.29268444879636 M487.614038058082,308.29268444879636 L496.69498421107744,306.6817255889922 M496.69498421107744,306.6817255889922 L506.1886120226717,306.35479504152374 M506.1886120226717,306.35479504152374 L515.5440130960824,307.3308353026781 M515.5440130960824,307.3308353026781 L524.218259861162,309.55328970470384 M524.218259861162,309.55328970470384 L531.7077841497035,312.8933516892338 M392.43767764356113,445.5433217671774 L392.3130555048697,345.80250357734485 M422.39696171165747,382.03032052968695 L422.30599621213844,282.3631635135839 M533.592948865148,365.0433050854135 L533.6262187066268,265.3958841433514 M598.2019499119958,443.2043509607218 L598.2125016015113,433.24057406142265 M515.8145917537267,421.65160721306086 L515.8213028644794,371.82290467063274 M515.8213028644794,371.82290467063274 L518.3481082069867,373.66143780181915 M518.3481082069867,373.66143780181915 L520.0300952393757,375.79144887362895 M520.0300952393757,375.79144887362895 L520.7694110966645,378.08921615904273 M520.7694110966645,378.08921615904273 L520.5229443905893,380.42123294682347 M520.5229443905893,380.42123294682347 L519.3048670223598,382.65195951042824 M519.3048670223598,382.65195951042824 L517.1858420553009,384.6517045726352 M517.1858420553009,384.6517045726352 L514.2889482905821,386.30417282691076 M514.2889482905821,386.30417282691076 L510.78254284836424,387.51324090162586 M510.78254284836424,387.51324090162586 L506.8704762227139,388.20856419926133 M506.8704762227139,388.20856419926133 L502.78022972578526,388.3496834292049 M502.78022972578526,388.3496834292049 L498.74966794786684,387.9283861280654 M498.74966794786684,387.9283861280654 L495.01317641969854,386.9691883708277 M495.01317641969854,386.9691883708277 L491.7880066483843,385.5279009146027 M491.7880066483843,385.5279009146027 L489.26163216318974,383.6883709536934 M489.26163216318974,383.6883709536934 L487.58083899762704,381.5575914140836 M487.58083899762704,381.5575914140836 L486.8432065169461,379.25946006906474 M486.8432065169461,379.25946006906474 L487.09146046823116,376.9275670317994 M487.09146046823116,376.9275670317994 L488.3110195132865,374.6974236790538 M488.3110195132865,374.6974236790538 L490.4308811546643,372.6985876813967 M490.4308811546643,372.6985876813967 L493.3277749194259,371.0471460897984 M493.3277749194259,371.0471460897984 L496.83334368737343,369.83898707982297 M496.83334368737343,369.83898707982297 L500.7439286361677,369.144246993043 M500.7439286361677,369.144246993043 L504.83238788780335,369.00325151367844 M504.83238788780335,369.00325151367844 L508.8612662890497,369.42418475489796 M508.8612662890497,369.42418475489796 L512.596563950402,370.38261404401965 M512.596563950402,370.38261404401965 L515.8213028644794,371.82290467063274 M531.6921938115684,362.7725231140388 L524.2068553040006,359.4305185554048 M524.2068553040006,359.4305185554048 L515.537455397678,357.2067714197524 M515.537455397678,357.2067714197524 L506.1872811923769,356.23016338596005 M506.1872811923769,356.23016338596005 L496.6989573574437,356.5572841149975 M496.6989573574437,356.5572841149975 L487.6230849635295,358.16918005955336 M487.6230849635295,358.16918005955336 L479.48644011912637,360.97244242891185 M479.48644011912637,360.97244242891185 L472.7615093782621,364.8045723602929 M472.7615093782621,364.8045723602929 L467.8391189908599,369.443333997388 M467.8391189908599,369.443333997388 L465.0057281219535,374.6195582402604 M465.0057281219535,374.6195582402604 L464.42668432945715,380.03268987440276 M464.42668432945715,380.03268987440276 L466.1364616976287,385.3681967025859 M466.1364616976287,385.3681967025859 L470.03646971525706,390.31583038421536 M470.03646971525706,390.31583038421536 L475.90060636143147,394.5876969284893 M475.90060636143147,394.5876969284893 L483.3882667695697,397.9350734345638 M483.3882667695697,397.9350734345638 L492.06410046497126,400.16296186902974 M492.06410046497126,400.16296186902974 L501.42334644159,401.1415318324098 M501.42334644159,401.1415318324098 L510.9213017950561,400.81374420866916 M510.9213017950561,400.81374420866916 L520.0051589921222,399.1987053216312 M520.0051589921222,399.1987053216312 L528.1463126994272,396.3905439721393 M528.1463126994272,396.3905439721393 L534.8712434390478,392.55288132350927 M534.8712434390478,392.55288132350927 L539.7891249621355,387.9092207090884 M539.7891249621355,387.9092207090884 L542.6145310287718,382.7298535250843 M542.6145310287718,382.7298535250843 L543.18394330515,377.3160549955695 M543.18394330515,377.3160549955695 L541.4650941675226,371.9825100954373 M541.4650941675226,371.9825100954373 L537.5586523605155,367.03901771232483 M537.5586523605155,367.03901771232483 L531.6921938115684,362.7725231140388 M531.6921938115684,362.7725231140388 L531.7077841497035,312.8933516892338" stroke="black"  stroke-width="4"  fill="red"/>
<path d="M496.8445859964055,498.1112058372985 L473.75657351423695,496.0775608197323 M473.75657351423695,496.0775608197323 L451.7733141144769,491.56779111063884 M451.7733141144769,491.56779111063884 L431.70243927979476,484.74838684861254 M431.70243927979476,484.74838684861254 L414.2803768086033,475.87093794709403 M414.2803768086033,475.87093794709403 L400.14517460968676,465.2626044803777 M400.14517460968676,465.2626044803777 L389.8130771995254,453.3138183686925 M389.8130771995254,453.3138183686925 L383.65977012857576,440.4636841487238 M383.65977012857576,440.4636841487238 L381.9069965908671,427.1836449009917 M381.9069965908671,427.1836449009917 L384.6149541739659,413.9600452299891 M384.6149541739659,413.9600452299891 L391.68064691996784,401.27630722430496 M391.68064691996784,401.27630722430496 L402.84222970244593,389.59529530164343 M402.84222970244593,389.59529530164343 L417.68906075166234,379.3425825636365 M417.68906075166234,379.3425825636365 L435.6770484233205,370.89115337421026 M435.6770484233205,370.89115337421026 L456.1486475448691,364.54806505205386 M456.1486475448691,364.54806505205386 L478.35683257795716,360.5435465355557 M478.35683257795716,360.5435465355557 L501.4921228958244,359.0228442589887 M501.4921228958244,359.0228442589887 L524.7117108471905,360.0410960495283 M524.7117108471905,360.0410960495283 L547.169781447751,363.5613812723725 M547.169781447751,363.5613812723725 L568.0478569036234,369.4560326343136 M568.0478569036234,369.4560326343136 L586.5842825375896,377.51113474112253 M586.5842825375896,377.51113474112253 L602.1017524425918,387.4340857190098 M602.1017524425918,387.4340857190098 L614.0319252520995,398.8639995174773 M614.0319252520995,398.8639995174773 L621.9362776999096,411.3845903901935 M621.9362776999096,411.3845903901935 L625.5224774275273,424.53908735669376 M625.5224774275273,424.53908735669376 L616.4501320326551,433.544249225866 M616.4501320326551,433.544249225866 L607.9566327321199,440.52498817481717 M607.9566327321199,440.52498817481717 L593.8069054038111,448.2436301597466 M593.8069054038111,448.2436301597466 L582.5340559808558,450.0842798185031 M582.5340559808558,450.0842798185031 L575.2468593375756,448.9095597420774 M575.2468593375756,448.9095597420774 L568.0526880865932,445.7945236406995 M568.0526880865932,445.7945236406995 L560.5131683502555,440.40414214982127 M560.5131683502555,440.40414214982127 L552.8728237604249,432.76570820802107 M552.8728237604249,432.76570820802107 L547.6713833825056,426.3740451636298 M547.6713833825056,426.3740451636298 L542.3466129367066,418.89830726987054 M542.3466129367066,418.89830726987054 L527.044867844915,461.99179571372196 M527.044867844915,461.99179571372196 L514.7511233926958,494.9834212899382 M514.7511233926958,494.9834212899382 L506.47333353338547,515.7145779260359 M506.47333353338547,515.7145779260359 L499.3359002585224,531.9972765326991 M499.3359002585224,531.9972765326991 L490.1639480848421,549.4487445173598 M490.1639480848421,549.4487445173598 L485.95662812798867,555.5929545772995 M485.95662812798867,555.5929545772995 L482.92612287674615,559.1106475699884 M482.92612287674615,559.1106475699884 L480.5141619523648,561.3156463590344 M480.5141619523648,561.3156463590344 L478.12261573022374,562.9586589230843 M478.12261573022374,562.9586589230843 L475.2219928420317,564.2166383352485 M475.2219928420317,564.2166383352485 L472.28398705784895,564.6858042195202 M472.28398705784895,564.6858042195202 L469.2711793863209,564.3719982343783 M469.2711793863209,564.3719982343783 L465.07119474807024,562.7270106696913 M465.07119474807024,562.7270106696913 L458.1834037019872,557.54227268004 M458.1834037019872,557.54227268004 L452.3680835503203,551.371052287689 M452.3680835503203,551.371052287689 L445.81163371509155,543.0502955707628 M445.81163371509155,543.0502955707628 L439.2672572196818,533.7424540737106 M439.2672572196818,533.7424540737106 L431.85365273198926,522.3687664741478 M431.85365273198926,522.3687664741478 L423.4042840821848,508.67318314232284 M423.4042840821848,508.67318314232284 L413.7289676671908,492.3468198729822 M413.7289676671908,492.3468198729822 L422.54294675206415,504.22424115485364 M422.54294675206415,504.22424115485364 L431.0691846890041,513.1590450234479 M431.0691846890041,513.1590450234479 L435.2698353196389,516.5721613932677 M435.2698353196389,516.5721613932677 L439.4526828466832,519.3026592324626 M439.4526828466832,519.3026592324626 L447.1137788442929,522.5660852212417 M447.1137788442929,522.5660852212417 L454.8837725565235,523.6293541948004 M454.8837725565235,523.6293541948004 L460.1787842328214,523.1241529957156 M460.1787842328214,523.1241529957156 L465.60480972817425,521.6445523600128 M465.60480972817425,521.6445523600128 L450.7214330092375,495.70827209651924 M450.7214330092375,495.70827209651924 L461.0921083600967,498.34412775764525 M461.0921083600967,498.34412775764525 L471.8591666247892,500.39850697605027 M471.8591666247892,500.39850697605027 L482.9227523010518,501.8522541012426 M482.9227523010518,501.8522541012426 L487.0568571158117,507.7763418309952 M487.0568571158117,507.7763418309952 L496.8445859964055,498.1112058372985 M625.5224774275273,424.53908735669376 L542.3646615959726,377.14377133920493 M542.3646615959726,377.14377133920493 L413.68671280994835,450.5567233353932 M413.68671280994835,450.5567233353932 L496.8445859964055,498.1112058372985 M542.3466129367066,418.89830726987054 L542.3646615959726,377.14377133920493 M413.7289676671908,492.3468198729822 L413.68671280994835,450.5567233353932 M465.59003996855853,487.2126528201263 L465.60480972817425,521.6445523600128 M465.59003996855853,487.2126528201263 L487.055298827185,499.4896804886355 M487.0568571158117,507.7763418309952 L487.055298827185,499.4896804886355 M465.59003996855853,487.2126528201263 L450.7214330092375,495.70827209651924 M482.9227523010518,501.8522541012426 L487.055298827185,499.4896804886355" stroke="black"  stroke-width="4"  fill="red"/>
<path d="M542.300222635319,526.2196034166691 L542.3646615959726,377.14377133920493 M413.83757463020885,599.7592161127311 L413.68671280994835,450.5567233353932 M542.300222635319,526.2196034166691 L413.83757463020885,599.7592161127311 M542.3646615959726,377.14377133920493 L413.68671280994835,450.5567233353932 M679.4798263261396,604.6706121635041 L679.7744318784116,455.45967491727265 M679.4798263261396,604.6706121635041 L542.300222635319,526.2196034166691 M679.7744318784116,455.45967491727265 L542.3646615959726,377.14377133920493 M413.83757463020885,599.7592161127311 L551.0174345329228,678.4733361496708 M413.68671280994835,450.5567233353932 L551.096740595457,529.1357262791153 M551.0174345329228,678.4733361496708 L551.096740595457,529.1357262791153 M465.617805357947,551.9405240236263 L487.0674724868852,564.2267218216155 M465.59003996855853,487.2126528201263 L465.617805357947,551.9405240236263 M465.59003996855853,487.2126528201263 L487.055298827185,499.4896804886355 M487.0674724868852,564.2267218216155 L487.055298827185,499.4896804886355 M551.0174345329228,678.4733361496708 L679.4798263261396,604.6706121635041 M548.5166888223932,564.048160837073 L588.5145230895769,586.9401817431716 M520.1221846174476,580.3181683783271 L548.5166888223932,564.048160837073 M515.7945033298652,570.8042786616611 L518.0515780513383,572.4050054820389 M518.0515780513383,572.4050054820389 L519.6694213679722,574.2422509138108 M519.6694213679722,574.2422509138108 L520.5753461750829,576.2335893314073 M520.5753461750829,576.2335893314073 L520.728595213911,578.2896585030911 M520.728595213911,578.2896585030911 L520.1221846174476,580.3181683783271 M508.42749130061435,587.0192097870511 L504.2935954378178,587.3828547832759 M504.2935954378178,587.3828547832759 L500.13006228470164,587.1557967885144 M500.13006228470164,587.1557967885144 L496.1902470596773,586.3518611159535 M496.1902470596773,586.3518611159535 L492.713869695912,585.0199975769727 M492.713869695912,585.0199975769727 L489.9124010109354,583.2412873686342 M489.9124010109354,583.2412873686342 L487.9561920621379,581.1239914447117 M487.9561920621379,581.1239914447117 L486.96411061696375,578.7969479828687 M486.96411061696375,578.7969479828687 L486.99634595983235,576.4017138384745 M486.99634595983235,576.4017138384745 L488.05077149111867,574.0839492247736 M488.05077149111867,574.0839492247736 L490.0631219916747,571.9845582149561 M490.0631219916747,571.9845582149561 L492.91093268942996,570.2311319463649 M492.91093268942996,570.2311319463649 L496.421008498852,568.9302083544312 M496.421008498852,568.9302083544312 L500.3799584200455,568.1608148188113 M500.3799584200455,568.1608148188113 L504.54715497311753,567.9696831195479 M504.54715497311753,567.9696831195479 L508.6693426919077,568.3684214513682 M508.6693426919077,568.3684214513682 L512.4959918077104,569.3328128822905 M512.4959918077104,569.3328128822905 L515.7945033298652,570.8042786616611 M480.00330443556135,603.3062254472109 L508.42749130061435,587.0192097870511 M520.0011670161537,626.2391548872914 L480.00330443556135,603.3062254472109 M588.5145230895769,586.9401817431716 L520.0011670161537,626.2391548872914 M538.5342360847751,631.9488011567473 L559.9867731651727,644.2473233243521 M615.6569334504035,612.2854440257598 L559.9867731651727,644.2473233243521 M594.2044260660936,600.0047608162809 L615.6569334504035,612.2854440257598 M578.1611404221762,609.2105379831075 L594.2044260660936,600.0047608162809 M564.8665893559006,601.5967699137561 L578.1611404221762,609.2105379831075 M564.8665893559006,601.5967699137561 L545.5829433196791,612.6580627938615 M558.8774994365205,620.275659294236 L545.5829433196791,612.6580627938615 M538.5342360847751,631.9488011567473 L558.8774994365205,620.275659294236 M551.096740595457,529.1357262791153 L679.7744318784116,455.45967491727265 M515.8145917537267,421.65160721306086 L518.3399853529694,423.4912049313448 M518.3399853529694,423.4912049313448 L520.0210323946367,425.6224492601727 M520.0210323946367,425.6224492601727 L520.7599347564278,427.92154680203066 M520.7599347564278,427.92154680203066 L520.513605242272,430.25491353662494 M520.513605242272,430.25491353662494 L519.2962079504341,432.48693128269116 M519.2962079504341,432.48693128269116 L517.1783665624932,434.48783372333014 M517.1783665624932,434.48783372333014 L514.2830911741023,436.14125828802156 M514.2830911741023,436.14125828802156 L510.77864485122166,437.3510260260422 M510.77864485122166,437.3510260260422 L506.86876415145275,438.0467516763374 M506.86876415145275,438.0467516763374 L502.7808032076028,438.18795256419446 M502.7808032076028,438.18795256419446 L498.75249361032525,437.7664114800409 M498.75249361032525,437.7664114800409 L495.01808984098784,436.80665866763803 M495.01808984098784,436.80665866763803 L491.7947219607559,435.3645371431406 M491.7947219607559,435.3645371431406 L489.26975873755566,433.5239425752895 M489.26975873755566,433.5239425752895 L487.5899042291578,431.39192976336324 M487.5899042291578,431.39192976336324 L486.85268336363225,429.0924681546527 M486.85268336363225,429.0924681546527 L487.1007981266338,426.7592251730373 M487.1007981266338,426.7592251730373 L488.3196754402549,424.5277906494407 M488.3196754402549,424.5277906494407 L490.4383525679442,422.5277972914486 M490.4383525679442,422.5277972914486 L493.3336279563779,420.8753994098728 M493.3336279563779,420.8753994098728 L496.83723853955854,419.66654075468927 M496.83723853955854,419.66654075468927 L500.7456392175139,418.97139832685923 M500.7456392175139,418.97139832685923 L504.8318149124352,418.8303211920448 M504.8318149124352,418.8303211920448 L508.85844301338324,419.2514982090311 M508.85844301338324,419.2514982090311 L512.5916542494615,420.21048253801956 M512.5916542494615,420.21048253801956 L515.8145917537267,421.65160721306086 M598.2019499119958,443.2043509607218 L615.3896956764498,453.00806209582476 M529.5737793312067,482.44551713299916 L598.2019499119958,443.2043509607218 M546.7615525797106,492.26678584015383 L529.5737793312067,482.44551713299916 M615.3896956764498,453.00806209582476 L546.7615525797106,492.26678584015383 M630.4423593163071,523.5244260485241 L630.0124001264828,519.6033815622862 M630.0124001264828,519.6033815622862 L628.73554453376,516.4094047517802 M628.73554453376,516.4094047517802 L626.6858298309539,514.1281806903637 M626.6858298309539,514.1281806903637 L623.9822217317123,512.8924744891806 M623.9822217317123,512.8924744891806 L620.7817397799859,512.7742391314669 M620.7817397799859,512.7742391314669 L617.2703531514924,513.7806738123213 M617.2703531514924,513.7806738123213 L613.6521814922617,515.8533675552085 M613.6521814922617,515.8533675552085 L610.1376193178776,518.8719340132059 M610.1376193178776,518.8719340132059 L606.9310826009182,522.6609908267201 M606.9310826009182,522.6609908267201 L604.2190909558461,527.0000844429019 M604.2190909558461,527.0000844429019 L602.1593900436078,531.6369204769611 M602.1593900436078,531.6369204769611 L600.8717510809927,536.3017851535665 M600.8717510809927,536.3017851535665 L600.4309975212386,540.723403976642 M600.4309975212386,540.723403976642 L600.8626565414584,544.6446680411999 M600.8626565414584,544.6446680411999 L602.1414963641175,547.8376470399618 M602.1414963641175,547.8376470399618 L604.1930251404349,550.1168844908775 M604.1930251404349,550.1168844908775 L606.8978615713478,551.3500704004388 M606.8978615713478,551.3500704004388 L610.098704729132,551.4658291118872 M610.098704729132,551.4658291118872 L613.609502672925,550.4575288647607 M613.609502672925,550.4575288647607 L617.22627062743,548.3840079656991 M617.22627062743,548.3840079656991 L620.7389356432604,545.3658422498903 M620.7389356432604,545.3658422498903 L623.9435163740511,541.5783223323671 M623.9435163740511,541.5783223323671 L626.6539412811824,537.2415495965938 M626.6539412811824,537.2415495965938 L628.7128236374317,532.6072867982596 M628.7128236374317,532.6072867982596 L630.000579742921,527.944658201794 M630.000579742921,527.944658201794 L630.4423593163071,523.5244260485241 M630.3291747685898,603.1205520187884 L629.899593948558,599.2071889850456 M629.899593948558,599.2071889850456 L628.6238728553096,596.0209063989719 M628.6238728553096,596.0209063989719 L626.5759831508376,593.7469422470353 M626.5759831508376,593.7469422470353 L623.8747847646614,592.5176394739505 M623.8747847646614,592.5176394739505 L620.6771573841006,592.4045786410841 M620.6771573841006,592.4045786410841 L617.1689043435201,593.4146574917925 M617.1689043435201,593.4146574917925 L613.5539630863027,595.4892529007751 M613.5539630863027,595.4892529007751 L610.0425401750936,598.5078676275897 M610.0425401750936,598.5078676275897 L606.8388688501357,602.2951162045044 M606.8388688501357,602.2951162045044 L604.1293019006662,606.6306504674374 M604.1293019006662,606.6306504674374 L602.0714438332038,611.2623830753664 M602.0714438332038,611.2623830753664 L600.7849586408486,615.9208973606344 M600.7849586408486,615.9208973606344 L600.344602741153,620.3352883774262 M600.344602741153,620.3352883774262 L600.775880357343,624.2488677677215 M600.775880357343,624.2488677677215 L602.0535821372248,627.4341521440776 M602.0535821372248,627.4341521440776 L604.1032826745543,629.7061322024814 M604.1032826745543,629.7061322024814 L606.8057071967976,630.9329195392266 M606.8057071967976,630.9329195392266 L610.0036951358259,631.0435098072318 M610.0036951358259,631.0435098072318 L613.5113605405156,630.0315713044533 M613.5113605405156,630.0315713044533 L617.1249005979291,627.9561531315387 M617.1249005979291,627.9561531315387 L620.6344297377814,624.9379410110027 M620.6344297377814,624.9379410110027 L623.8361485700584,621.1522282387984 M623.8361485700584,621.1522282387984 L626.5441515810799,616.8190110598758 M626.5441515810799,616.8190110598758 L628.6011925566986,612.1898460556936 M628.6011925566986,612.1898460556936 L629.8877946853152,607.5335616732688 M629.8877946853152,607.5335616732688 L630.3291747685898,603.1205520187884 M551.4085743300304,527.388719537289 L529.9589094049329,515.1230978406563 M487.0674724868852,564.2267218216155 L551.4085743300304,527.388719537289 M529.9589094049329,515.1230978406563 L465.617805357947,551.9405240236263 M529.9779077374924,450.42273618031203 L465.59003996855853,487.2126528201263 M529.9775011545019,451.8073875151532 L529.9779077374924,450.42273618031203 M529.9775011545019,451.8073875151532 L514.3199686643441,460.75406520162926 M514.3199686643441,460.75406520162926 L498.6578661318326,501.18587135788596 M498.6578661318326,501.18587135788596 L514.3125442199835,523.6882733396513 M514.3125442199835,523.6882733396513 L529.9590233392386,514.735085326729 M529.9589094049329,515.1230978406563 L529.9590233392386,514.735085326729 M551.4431643874733,462.6791881728544 L529.9779077374924,450.42273618031203 M487.055298827185,499.4896804886355 L551.4431643874733,462.6791881728544 M551.4085743300304,527.388719537289 L551.4087817689395,527.0006521102756 M551.4087817689395,527.0006521102756 L535.7623059579903,535.9588422128766 M535.7623059579903,535.9588422128766 L520.115208993553,513.4569908241302 M520.115208993553,513.4569908241302 L535.7848949512647,473.0157156956532 M535.7848949512647,473.0157156956532 L551.4424241260979,464.0640360233225 M551.4424241260979,464.0640360233225 L551.4431643874733,462.6791881728544 M598.1281540776379,512.8884739211766 L598.2019499119958,443.2043509607218 M615.3024434287743,522.7000874544003 L615.3896956764498,453.00806209582476 M615.3024434287743,522.7000874544003 L588.5145230895769,586.9401817431716 M598.1281540776379,512.8884739211766 L548.5166888223932,564.048160837073 M520.1221846174476,580.3181683783271 L519.1074483379992,580.5152214216705 M519.1074483379992,580.5152214216705 L517.8165323027943,581.036317069498 M517.8165323027943,581.036317069498 L516.3742607352885,581.7736593584757 M516.3742607352885,581.7736593584757 L514.69442348765,582.7509647394045 M514.69442348765,582.7509647394045 L512.8087735944387,583.9497554524269 M512.8087735944387,583.9497554524269 L510.75296550753535,585.3473452350706 M510.75296550753535,585.3473452350706 L509.6056869492674,586.1611195425021 M509.6056869492674,586.1611195425021 L508.42749130061435,587.0192097870511 M529.5536171685892,552.1612502902434 L480.00330443556135,603.3062254472109 M547.4123792059031,541.9335010507548 L529.5536171685892,552.1612502902434 M547.4123792059031,541.9335010507548 L547.2104610616691,542.5078835209738 M547.2104610616691,542.5078835209738 L578.4970276872853,524.5898163183838 M578.4970276872853,524.5898163183838 L580.2929936938876,523.102706445801 M598.1281540776379,512.8884739211766 L580.2929936938876,523.102706445801 M554.7501220167071,541.6749694494454 L555.7778200631848,541.0863518695481 M554.7501220167071,541.6749694494454 L555.4787254062408,541.1590729926754 M555.4787254062408,541.1590729926754 L555.7778200631848,541.0863518695481 M515.7945033298652,570.8042786616611 L515.8145917537267,421.65160721306086 M546.7279339393356,561.9904217909316 L546.7615525797106,492.26678584015383 M529.5536171685892,552.1612502902434 L529.5737793312067,482.44551713299916 M546.7279339393356,561.9904217909316 L520.0011670161537,626.2391548872914 M546.7279339393356,561.9904217909316 L615.3024434287743,522.7000874544003 M597.479514001921,552.3321204541919 L576.5105524209632,553.1888937322373 M585.2642374981892,581.6329962672783 L597.479514001921,552.3321204541919 M576.5105524209632,553.1888937322373 L543.3078266867337,583.3839572596687 M569.105535954429,596.3292068100282 L585.2642374981892,581.6329962672783 M543.3078266867337,583.3839572596687 L531.1145949268462,612.6879404106253 M569.105535954429,596.3292068100282 L541.3446775942523,612.2520874301742 M531.1145949268462,612.6879404106253 L541.3446775942523,612.2520874301742 M560.0118888071311,604.4885517545024 L538.5497569315191,592.1956388741289 M559.9867731651727,644.2473233243521 L560.0118888071311,604.4885517545024 M538.5497569315191,592.1956388741289 L538.5342360847751,631.9488011567473 M615.6569334504035,612.2854440257598 L615.7069004026185,572.5412564660971 M615.7069004026185,572.5412564660971 L602.3144173583969,580.223337826744 M604.9912999461353,588.6214417453962 L604.6882995342244,585.2950987898728 M604.6882995342244,585.2950987898728 L603.7836850592471,582.456966179253 M603.7836850592471,582.456966179253 L602.3144173583969,580.223337826744 M577.7047576410902,594.3397199481129 L575.9638767879524,599.1781223614755 M575.9638767879524,599.1781223614755 L575.0960250351256,603.8945978025384 M575.0960250351256,603.8945978025384 L575.1550998287156,608.1957384450745 M575.1550998287156,608.1957384450745 L576.1372911134245,611.8140471099136 M576.1372911134245,611.8140471099136 L577.9813540204177,614.5246556827312 M577.9813540204177,614.5246556827312 L580.5724631744916,616.1591996962037 M580.5724631744916,616.1591996962037 L583.7493912409692,616.6162345436812 M583.7493912409692,616.6162345436812 L587.3145704542505,615.867692759256 M587.3145704542505,615.867692759256 L591.0463868977138,613.9602137807276 M591.0463868977138,613.9602137807276 L594.7129512279171,611.0125163800662 M594.7129512279171,611.0125163800662 L598.0864873208106,607.2078458104145 M598.0864873208106,607.2078458104145 L600.9574479594044,602.782588656537 M600.9574479594044,602.782588656537 L603.1475011918052,598.0117049609805 M603.1475011918052,598.0117049609805 L604.520575660606,593.191479541098 M604.520575660606,593.191479541098 L604.9912999461353,588.6214417453962 M577.7047576410902,594.3397199481129 L560.0118888071311,604.4885517545024 M594.2153436963633,589.2584764657548 L615.2412246850746,601.2919923524485 M615.2412246850746,601.2919923524485 L615.2775392724368,572.2956868730994 M615.7069004026185,572.5412564660971 L615.2775392724368,572.2956868730994 M594.2153436963633,589.2584764657548 L594.2044260660936,600.0047608162809 M578.1611404221762,609.2105379831075 L594.2153436963633,589.2584764657548 M616.6203801891779,599.5776985353309 L615.2412246850746,601.2919923524485 M569.105535954429,596.3292068100282 L564.8665893559006,601.5967699137561 M616.6203801891779,599.5776985353309 L585.2642374981892,581.6329962672783 M545.5829433196791,612.6580627938615 L541.3446775942523,612.2520874301742 M541.4446504777902,618.6080381710943 L531.1145949268462,612.6879404106253 M541.4446504777902,618.6080381710943 L558.8774994365205,620.275659294236 M541.4565302845122,590.5292123642366 L541.4446504777902,618.6080381710943 M541.4565302845122,590.5292123642366 L538.5497569315191,592.1956388741289 M595.1611914106375,484.7533192140985 L580.2929936938876,523.102706445801 M579.548712511209,462.22510102701256 L595.1611914106375,484.7533192140985 M548.2400488201288,480.13061287945425 L579.548712511209,462.22510102701256 M532.56596171264,520.5773819669286 L548.2400488201288,480.13061287945425 M547.4123792059031,541.9335010507548 L532.56596171264,520.5773819669286 M596.0591773380804,503.8849287442132 L595.6276053628214,499.96460638718816 M595.6276053628214,499.96460638718816 L594.3492294857268,496.7708633396133 M594.3492294857268,496.7708633396133 L592.298175415471,494.48937097253804 M592.298175415471,494.48937097253804 L589.5934868123873,493.25290981175084 M589.5934868123873,493.25290981175084 L586.3922460926003,493.13347654851475 M586.3922460926003,493.13347654851475 L582.8804666623616,494.13833981504666 M582.8804666623616,494.13833981504666 L579.2622910153938,496.2091798897334 M579.2622910153938,496.2091798897334 L575.7481138994708,499.22571815206663 M575.7481138994708,499.22571815206663 L572.5423288902549,503.0126901808681 M572.5423288902549,503.0126901808681 L569.8314117824548,507.3497637621666 M569.8314117824548,507.3497637621666 L567.7730457116495,511.98476207612634 M567.7730457116495,511.98476207612634 L566.4869242106156,516.6480783276011 M566.4869242106156,516.6480783276011 L566.0477824801158,521.0685281296 M566.0477824801158,521.0685281296 L566.4810539890311,524.9890705675507 M566.4810539890311,524.9890705675507 L567.7614132648066,528.1818172343994 M567.7614132648066,528.1818172343994 L569.8142802332325,530.461325022575 M569.8142802332325,530.461325022575 L572.5201959178214,531.6952680585016 M572.5201959178214,531.6952680585016 L575.7217968050545,531.8122264810482 M575.7217968050545,531.8122264810482 L579.2329869614973,530.8054986789489 M579.2329869614973,530.8054986789489 L582.8497588990942,528.7338314678352 M582.8497588990942,528.7338314678352 L586.3620394373324,525.7176929519576 M586.3620394373324,525.7176929519576 L589.5658694937143,521.9322560360068 M589.5658694937143,521.9322560360068 L592.2752211126196,517.597501173116 M592.2752211126196,517.597501173116 L594.3327698060716,512.9650740492747 M594.3327698060716,512.9650740492747 L595.6190092881893,508.3039924173595 M595.6190092881893,508.3039924173595 L596.0591773380804,503.8849287442132 M630.4423593163071,523.5244260485241 L596.0591773380804,503.8849287442132 M630.3291747685898,603.1205520187884 L604.9912999461353,588.6214417453962 M577.2753959978132,594.0939068450826 L577.7047576410902,594.3397199481129 M601.8850560233875,579.9776824311978 L599.49261248258,578.2356531197478 M599.49261248258,578.2356531197478 L596.5281413838857,577.5734303596633 M596.5281413838857,577.5734303596633 L593.1624102077076,578.0293642594654 M593.1624102077076,578.0293642594654 L589.5893879596554,579.5774304622804 M589.5893879596554,579.5774304622804 L586.0150661242972,582.12846877722 M586.0150661242972,582.12846877722 L582.6455675297966,585.5355528248751 M582.6455675297966,585.5355528248751 L579.6752352693836,589.6021952203313 M579.6752352693836,589.6021952203313 L577.2753959978132,594.0939068450826 M601.8850560233875,579.9776824311978 L602.3144173583969,580.223337826744 M529.9590233392386,514.735085326729 L551.4087817689395,527.0006521102756 M551.4424241260979,464.0640360233225 L529.9775011545019,451.8073875151532 M579.548712511209,462.22510102701256 L545.1994723063625,442.61939571304964 M513.8907929574418,460.5089023509295 L545.1994723063625,442.61939571304964 M514.3199686643441,460.75406520162926 L513.8907929574418,460.5089023509295 M548.2400488201288,480.13061287945425 L535.7848949512647,473.0157156956532 M498.2288420317781,500.9405191714761 L513.8907929574418,460.5089023509295 M498.6578661318326,501.18587135788596 L498.2288420317781,500.9405191714761 M513.8836716309372,523.4429321229977 L498.2288420317781,500.9405191714761 M514.3125442199835,523.6882733396513 L513.8836716309372,523.4429321229977 M547.2104610616691,542.5078835209738 L535.7623059579903,535.9588422128766 M545.1702532503057,505.5404049140832 L513.8836716309372,523.4429321229977 M578.4970276872853,524.5898163183838 L545.1702532503057,505.5404049140832 M532.56596171264,520.5773819669286 L520.115208993553,513.4569908241302 M560.8241030053059,465.14846720110666 L545.1702532503057,505.5404049140832 M595.1611914106375,484.7533192140985 L560.8241030053059,465.14846720110666 M555.2641734651268,541.0363532028483 L555.7778200631848,541.0863518695481 M554.7501220167071,541.6749694494454 L555.2641734651268,541.0363532028483 M555.4787254062408,541.1590729926754 L555.2641734651268,541.0363532028483 M589.6076022170977,560.6801668943039 L616.6663709467689,563.303444551807 M616.6663709467689,563.303444551807 L597.479514001921,552.3321204541919 M589.6076022170977,560.6801668943039 L576.5105524209632,553.1888937322373 M616.6663709467689,563.303444551807 L616.6203801891779,599.5776985353309 M562.4947104961459,594.3707896348026 L589.6076022170977,560.6801668943039 M562.4947104961459,594.3707896348026 L543.3078266867337,583.3839572596687 M562.4892993807803,602.5752860203543 L562.4947104961459,594.3707896348026 M562.4892993807803,602.5752860203543 L541.4565302845122,590.5292123642366 M577.2753959978132,594.0939068450826 L562.4892993807803,602.5752860203543 M615.2775392724368,572.2956868730994 L601.8850560233875,579.9776824311978 M545.1994723063625,442.61939571304964 L560.8241030053059,465.14846720110666 M514.530590247858,491.6191582524031 L514.9662747629598,495.5386177311085 M514.9662747629598,495.5386177311085 L516.2489071690688,498.73101428691865 M516.2489071690688,498.73101428691865 L518.3037754053937,501.0109249681577 M518.3037754053937,501.0109249681577 L521.0113043290514,502.24600023348574 M521.0113043290514,502.24600023348574 L524.2140368752914,502.3647541167521 M524.2140368752914,502.3647541167521 L527.7258114084084,501.36038046940524 M527.7258114084084,501.36038046940524 L531.3425865998519,499.29148913291704 M531.3425865998519,499.29148913291704 L534.8542890802711,496.27838688564435 M534.8542890802711,496.27838688564435 L538.056993240917,492.4960703297571 M538.056993240917,492.4960703297571 L540.7647364938535,488.16433876315654 M540.7647364938535,488.16433876315654 L542.8202876192752,483.5346624709657 M542.8202876192752,483.5346624709657 L544.1042562825633,478.8758995941024 M544.1042562825633,478.8758995941024 L544.5420121146931,474.4585880358062 M544.5420121146931,474.4585880358062 L544.1080266858128,470.5393493889168 M544.1080266858128,470.5393493889168 L542.8273764312221,467.34595859395813 M542.8273764312221,467.34595859395813 L540.7743193318877,465.0640663754749 M540.7743193318877,465.0640663754749 L538.0680156180092,463.826476230201 M538.0680156180092,463.826476230201 L534.8656416857048,463.70525021109853 M534.8656416857048,463.70525021109853 L531.3532769994302,464.70776086794524 M531.3532769994302,464.70776086794524 L527.7350980948231,466.77582509938605 M527.7350980948231,466.77582509938605 L524.2214999093642,469.78932560361767 M524.2214999093642,469.78932560361767 L521.016842345086,473.573174603153 M521.016842345086,473.573174603153 L518.3075354740665,477.9072216508104 M518.3075354740665,477.9072216508104 L516.2511687351614,482.53946606921005 M516.2511687351614,482.53946606921005 L514.967319305797,487.20046137707936 M514.967319305797,487.20046137707936 L514.530590247858,491.6191582524031 M514.530590247858,491.6191582524031 L505.95110681757876,486.71476867009665 M505.95110681757876,486.71476867009665 L506.38719283349974,490.63404759532744 M506.38719283349974,490.63404759532744 L507.6702033902775,493.82638561161366 M507.6702033902775,493.82638561161366 L509.7254044702925,496.10636313755083 M509.7254044702925,496.10636313755083 L512.4332016103178,497.34162670490525 M512.4332016103178,497.34162670490525 L515.6361221918557,497.4606793534892 M515.6361221918557,497.4606793534892 L519.1479936621861,496.45669753969156 M519.1479936621861,496.45669753969156 L522.7647690792905,494.38826830651294 M522.7647690792905,494.38826830651294 L526.2763750607164,491.3756715761692 M526.2763750607164,491.3756715761692 L529.4788915857391,487.5938745977119 M529.4788915857391,487.5938745977119 L532.1863669602327,483.262646504495 M532.1863669602327,483.262646504495 L534.2415854985168,478.6334283718964 M534.2415854985168,478.6334283718964 L535.5251761714107,473.97505175694823 M535.5251761714107,473.97505175694823 L535.9625305573876,469.55803214706407 M535.9625305573876,469.55803214706407 L535.5281435528454,465.63897417844635 M535.5281435528454,465.63897417844635 L534.2471149396936,462.44564227936536 M534.2471149396936,462.44564227936536 L532.1937247033525,460.16368372245705 M532.1937247033525,460.16368372245705 L529.4871524615626,458.9259058153672 M529.4871524615626,458.9259058153672 L526.2845902355544,458.804381481347 M526.2845902355544,458.804381481347 L522.7721284660047,459.8065005620398 M522.7721284660047,459.8065005620398 L519.1539493354735,461.8741026956054 M519.1539493354735,461.8741026956054 L515.6404477946045,464.88709743513635 M515.6404477946045,464.88709743513635 L512.4359781240564,468.67042641301595 M512.4359781240564,468.67042641301595 L509.7269394429607,473.0039694483895 M509.7269394429607,473.0039694483895 L507.67090558469596,477.6357551970695 M507.67090558469596,477.6357551970695 L506.3874343540116,482.29636387853486 M506.3874343540116,482.29636387853486 L505.95110681757876,486.71476867009665" stroke="black"  stroke-width="4"  fill="red"/>
<path d="M545.0073944095724,305.3178856901943 L545.0627421512468,185.39064952080284 M545.0627421512468,185.39064952080284 L553.7443658991914,191.67754580384357 M553.7443658991914,191.67754580384357 L559.5271479237496,198.96276360380537 M559.5271479237496,198.96276360380537 L562.073808312533,206.82368647718644 M562.073808312533,206.82368647718644 L561.2346481843352,214.8038358540389 M561.2346481843352,214.8038358540389 L557.0566322684351,222.43930877272035 M557.0566322684351,222.43930877272035 L549.7810741872049,229.28577475831057 M549.7810741872049,229.28577475831057 L539.8299574200375,234.9444291083574 M539.8299574200375,234.9444291083574 L527.7816033178729,239.08537844406735 M527.7816033178729,239.08537844406735 L514.337061281748,241.46705025435998 M514.337061281748,241.46705025435998 L500.2791745199228,241.9504436640108 M500.2791745199228,241.9504436640108 L486.42674675510324,240.50734149114854 M486.42674675510324,240.50734149114854 L473.5865265189018,237.2219779298578 M473.5865265189018,237.2219779298578 L462.5059434838486,232.286062197858 M462.5059434838486,232.286062197858 L453.8294038246678,225.98744903692486 M453.8294038246678,225.98744903692486 L448.0607093296363,218.69319855975274 M448.0607093296363,218.69319855975274 L445.5339126337916,210.8279964812481 M445.5339126337916,210.8279964812481 L446.3941620953484,202.84930168447656 M446.3941620953484,202.84930168447656 L450.5896616694714,195.22068390565428 M450.5896616694714,195.22068390565428 L457.87509244023715,188.38490319114285 M457.87509244023715,188.38490319114285 L467.8262092133668,182.73831637914586 M467.8262092133668,182.73831637914586 L479.8646906327696,178.60805232055904 M479.8646906327696,178.60805232055904 L493.29174900644335,176.23323565456658 M493.29174900644335,176.23323565456658 L507.32854642333143,175.75129682436622 M507.32854642333143,175.75129682436622 L521.1611104862868,177.19011978613068 M521.1611104862868,177.19011978613068 L533.9872431943988,180.4664506621152 M533.9872431943988,180.4664506621152 L545.0627421512468,185.39064952080284 M545.0073944095724,305.3178856901943 L533.9467584844397,300.38676242295094 M533.9467584844397,300.38676242295094 L521.1378326295496,297.105823542331 M521.1378326295496,297.105823542331 L507.32382247229486,295.66497673493126 M507.32382247229486,295.66497673493126 L493.3058522804887,296.1475934735844 M493.3058522804887,296.1475934735844 L479.8968051007889,298.52575041311434 M479.8968051007889,298.52575041311434 L467.87447610347675,302.6618230233255 M467.87447610347675,302.6618230233255 L457.936716526599,308.3163491493667 M457.936716526599,308.3163491493667 L450.66107146143713,315.1617385995851 M450.66107146143713,315.1617385995851 L446.47121513762096,322.8010761670709 M446.47121513762096,322.8010761670709 L445.61213450568425,330.79097884529483 M445.61213450568425,330.79097884529483 L448.1355528488677,338.6672255383455 M448.1355528488677,338.6672255383455 L453.8965135849137,345.97171547017376 M453.8965135849137,345.97171547017376 L462.56141030096325,352.279167800599 M462.56141030096325,352.279167800599 L473.6271166649391,357.22200864925776 M473.6271166649391,357.22200864925776 L486.45009225442385,360.5119807610641 M486.45009225442385,360.5119807610641 L500.28391282393034,361.9571070381695 M500.28391282393034,361.9571070381695 L514.3229157829476,361.4730356321604 M514.3229157829476,361.4730356321604 L527.7493997205736,359.08802313404874 M527.7493997205736,359.08802313404874 L539.7815749145905,354.9412646009588 M539.7815749145905,354.9412646009588 L549.719334485538,349.27467020756774 M549.719334485538,349.27467020756774 L556.9851333472577,342.4185948404996 M556.9851333472577,342.4185948404996 L561.1575529173533,334.7724017188564 M561.1575529173533,334.7724017188564 L561.9956007935948,326.7810443726421 M561.9956007935948,326.7810443726421 L559.4523720470374,318.9090771433341 M559.4523720470374,318.9090771433341 L553.6773615749669,311.613620434614 M553.6773615749669,311.613620434614 L545.0073944095724,305.3178856901943 M531.7452721814708,192.95548076581045 L537.6229033922557,197.2135113830055 M537.6229033922557,197.2135113830055 L541.5367896717925,202.14719871567607 M541.5367896717925,202.14719871567607 L543.2589203577504,207.47016730424647 M543.2589203577504,207.47016730424647 L542.6884330393843,212.87323290630295 M542.6884330393843,212.87323290630295 L539.8576546766158,218.04233430751438 M539.8576546766158,218.04233430751438 L534.9304132144862,222.6767929180933 M534.9304132144862,222.6767929180933 L528.1926773905072,226.50685216305666 M528.1926773905072,226.50685216305666 L520.03601763192,229.30945062763195 M520.03601763192,229.30945062763195 L510.9348560406216,230.9212904802716 M510.9348560406216,230.9212904802716 L501.41880622611745,231.24842885695702 M501.41880622611745,231.24842885695702 L492.0417304428833,230.27179716909947 M492.0417304428833,230.27179716909947 L483.34937076154716,228.04832187339852 M483.34937076154716,228.04832187339852 L475.84745072172575,224.7075768671128 M475.84745072172575,224.7075768671128 L469.97215026450914,220.44417474594937 M469.97215026450914,220.44417474594937 L466.06472229911986,215.50634645552114 M466.06472229911986,215.50634645552114 L464.35169796301943,210.18141610033493 M464.35169796301943,210.18141610033493 L464.93185351158536,204.7790173387759 M464.93185351158536,204.7790173387759 L467.77064711364983,199.61305862008405 M467.77064711364983,199.61305862008405 L472.702414627301,194.98349858372805 M472.702414627301,194.98349858372805 L479.44015045253303,191.15897160076693 M479.44015045253303,191.15897160076693 L487.5922841610224,188.36127171322633 M487.5922841610224,188.36127171322633 L496.68543051213624,186.7525745444614 M496.68543051213624,186.7525745444614 L506.191812094007,186.4261030076061 M506.191812094007,186.4261030076061 L515.5597815255079,187.40077292730686 M515.5597815255079,187.40077292730686 L524.2456828929985,189.6201072649487 M524.2456828929985,189.6201072649487 L531.7452721814708,192.95548076581045 M531.7077841497035,312.8933516892338 L537.5775243639498,317.15736675861547 M537.5775243639498,317.15736675861547 L541.4861527802905,322.0979867480049 M541.4861527802905,322.0979867480049 L543.2059657802633,327.4284333159587 M543.2059657802633,327.4284333159587 L542.6362377358569,332.83908763563613 M542.6362377358569,332.83908763563613 L539.8092537000393,338.01544746260095 M539.8092537000393,338.01544746260095 L534.888622947204,342.65641235595604 M534.888622947204,342.65641235595604 L528.1599310616032,346.4918475940812 M528.1599310616032,346.4918475940812 L520.0142228742918,349.2983793022254 M520.0142228742918,349.2983793022254 L510.92528298409786,350.9124810358329 M510.92528298409786,350.9124810358329 L501.42201287744456,351.2400784634319 M501.42201287744456,351.2400784634319 L492.05752988248094,350.26207631556144 M492.05752988248094,350.26207631556144 L483.376842129677,348.0354807052165 M483.376842129677,348.0354807052165 L475.88499334263537,344.69004689063274 M475.88499334263537,344.69004689063274 L470.0175776290965,340.4206599926506 M470.0175776290965,340.4206599926506 L466.11539020078055,335.4758987952402 M466.11539020078055,335.4758987952402 L464.40465912049467,330.1434903421082 M464.40465912049467,330.1434903421082 L464.98402945754,324.7335029032296 M464.98402945754,324.7335029032296 L467.8190072296721,319.56028594871657 M467.8190072296721,319.56028594871657 L472.7441518917063,314.92421992563516 M472.7441518917063,314.92421992563516 L479.47284377855334,311.0943172838588 M479.47284377855334,311.0943172838588 L487.614038058082,308.29268444879636 M487.614038058082,308.29268444879636 L496.69498421107744,306.6817255889922 M496.69498421107744,306.6817255889922 L506.1886120226717,306.35479504152374 M506.1886120226717,306.35479504152374 L515.5440130960824,307.3308353026781 M515.5440130960824,307.3308353026781 L524.218259861162,309.55328970470384 M524.218259861162,309.55328970470384 L531.7077841497035,312.8933516892338 M531.7077841497035,312.8933516892338 L531.7452721814708,192.95548076581045" stroke="black"  stroke-width="4"  fill="red"/>
<path d="M536.0417347325072,190.51492604912275 L536.1068289505492,10.007790871587076 M536.1068289505492,10.007790871587076 L542.9026209435992,14.909966895127354 M542.9026209435992,14.909966895127354 L547.4283502142499,20.59019605481285 M547.4283502142499,20.59019605481285 L549.4202605194066,26.718837124605216 M549.4202605194066,26.718837124605216 L548.7615478540788,32.93993763575986 M548.7615478540788,32.93993763575986 L545.4893904068721,38.89187681907697 M545.4893904068721,38.89187681907697 L539.7930381806655,44.22839144430429 M539.7930381806655,44.22839144430429 L532.0030221955165,48.638784698634936 M532.0030221955165,48.638784698634936 L522.5720688044192,51.866110565089684 M522.5720688044192,51.866110565089684 L512.0487887148306,53.72225142844866 M512.0487887148306,53.72225142844866 L501.0456751399571,54.09897633697676 M501.0456751399571,54.09897633697676 L490.2032913066228,52.97431468622153 M490.2032913066228,52.97431468622153 L480.15280237944637,50.41385217842708 M480.15280237944637,50.41385217842708 L471.4790418148265,46.566865811931734 M471.4790418148265,46.566865811931734 L464.6863654492564,41.657539177209856 M464.6863654492564,41.657539177209856 L460.1692692992412,35.97179752687555 M460.1692692992412,35.97179752687555 L458.18953186740396,29.84054492996654 M458.18953186740396,29.84054492996654 L458.86116849729996,23.620332124634047 M458.86116849729996,23.620332124634047 L462.1440402810774,17.672576517737753 M462.1440402810774,17.672576517737753 L467.84644268978514,12.342582933543554 M467.84644268978514,12.342582933543554 L475.63645867717327,7.939554292764228 M475.63645867717327,7.939554292764228 L485.06136188831334,4.7187494678330495 M485.06136188831334,4.7187494678330495 L495.5739276397431,2.866792183340749 M495.5739276397431,2.866792183340749 L506.5641172457004,2.4909549817081142 M506.5641172457004,2.4909549817081142 L517.3943282023631,3.613005102649481 M517.3943282023631,3.613005102649481 L527.4361840094439,6.167955116348935 M527.4361840094439,6.167955116348935 L536.1068289505492,10.007790871587076 M536.0417347325072,190.51492604912275 L527.3885677943333,186.66689479545394 M527.3885677943333,186.66689479545394 L517.3669489860943,184.1064909007488 M517.3669489860943,184.1064909007488 L506.5585608995876,182.98204542249036 M506.5585608995876,182.98204542249036 L495.59051594729385,183.35868497600822 M495.59051594729385,183.35868497600822 L485.09913411676683,185.2145956990589 M485.09913411676683,185.2145956990589 L475.69322664260204,188.44227532964047 M475.69322664260204,188.44227532964047 L467.91891632722854,192.85470067042203 M467.91891632722854,192.85470067042203 L462.228016774764,198.19606681861248 M462.228016774764,198.19606681861248 L458.9517744551512,204.15650998292872 M458.9517744551512,204.15650998292872 L458.2815049314445,210.389988021537 M458.2815049314445,210.389988021537 L460.25726320873457,216.53431261218142 M460.25726320873457,216.53431261218142 L464.76526100466776,222.23217328951065 M464.76526100466776,222.23217328951065 L471.5442456007411,227.15196162088247 M471.5442456007411,227.15196162088247 L480.20051561210124,231.00714428686942 M480.20051561210124,231.00714428686942 L490.23073276455455,233.57306129321486 M490.23073276455455,233.57306129321486 L501.0512446930172,234.70011859384587 M501.0512446930172,234.70011859384587 L512.0321615539644,234.32259123398634 M512.0321615539644,234.32259123398634 L522.5342145632144,232.462496463399 M522.5342145632144,232.462496463399 L531.9461478460428,229.22829506076326 M531.9461478460428,229.22829506076326 L539.7204581591952,224.80850428139289 M539.7204581591952,224.80850428139289 L545.4053319004727,219.4606163616302 M545.4053319004727,219.4606163616302 L548.6709030429377,213.49598915221392 M548.6709030429377,213.49598915221392 L549.3283006623041,207.26162330833492 M549.3283006623041,207.26162330833492 L547.340418546383,201.119910537373 M547.340418546383,201.119910537373 L542.8238224057002,195.42756296824697 M542.8238224057002,195.42756296824697 L536.0417347325072,190.51492604912275 M531.7452721814708,192.95548076581045 L537.6229033922557,197.2135113830055 M537.6229033922557,197.2135113830055 L541.5367896717925,202.14719871567607 M541.5367896717925,202.14719871567607 L543.2589203577504,207.47016730424647 M543.2589203577504,207.47016730424647 L542.6884330393843,212.87323290630295 M542.6884330393843,212.87323290630295 L539.8576546766158,218.04233430751438 M539.8576546766158,218.04233430751438 L534.9304132144862,222.6767929180933 M534.9304132144862,222.6767929180933 L528.1926773905072,226.50685216305666 M528.1926773905072,226.50685216305666 L520.03601763192,229.30945062763195 M520.03601763192,229.30945062763195 L510.9348560406216,230.9212904802716 M510.9348560406216,230.9212904802716 L501.41880622611745,231.24842885695702 M501.41880622611745,231.24842885695702 L492.0417304428833,230.27179716909947 M492.0417304428833,230.27179716909947 L483.34937076154716,228.04832187339852 M483.34937076154716,228.04832187339852 L475.84745072172575,224.7075768671128 M475.84745072172575,224.7075768671128 L469.97215026450914,220.44417474594937 M469.97215026450914,220.44417474594937 L466.06472229911986,215.50634645552114 M466.06472229911986,215.50634645552114 L464.35169796301943,210.18141610033493 M464.35169796301943,210.18141610033493 L464.93185351158536,204.7790173387759 M464.93185351158536,204.7790173387759 L467.77064711364983,199.61305862008405 M467.77064711364983,199.61305862008405 L472.702414627301,194.98349858372805 M472.702414627301,194.98349858372805 L479.44015045253303,191.15897160076693 M479.44015045253303,191.15897160076693 L487.5922841610224,188.36127171322633 M487.5922841610224,188.36127171322633 L496.68543051213624,186.7525745444614 M496.68543051213624,186.7525745444614 L506.191812094007,186.4261030076061 M506.191812094007,186.4261030076061 L515.5597815255079,187.40077292730686 M515.5597815255079,187.40077292730686 L524.2456828929985,189.6201072649487 M524.2456828929985,189.6201072649487 L531.7452721814708,192.95548076581045 M531.8016934935795,12.443148428687778 L537.6912010605802,16.692112891019406 M537.6912010605802,16.692112891019406 L541.6130007116801,21.615297563677018 M541.6130007116801,21.615297563677018 L543.3386196630122,26.926937327564588 M543.3386196630122,26.926937327564588 L542.7669896318339,32.31850631398004 M542.7669896318339,32.31850631398004 L539.9305006426205,37.47661145340771 M539.9305006426205,37.47661145340771 L534.9933097445326,42.10121325125897 M534.9933097445326,42.10121325125897 L528.2419623365474,45.9231280213188 M528.2419623365474,45.9231280213188 L520.0688198946991,48.71976772637538 M520.0688198946991,48.71976772637538 L510.94926399872185,50.3281808860977 M510.94926399872185,50.3281808860977 L501.4139800455748,50.65462381186853 M501.4139800455748,50.65462381186853 L492.0179514490197,49.68006833713855 M492.0179514490197,49.68006833713855 L483.30802490379284,47.46132023784253 M483.30802490379284,47.46132023784253 L475.7909471119779,44.127678646770505 M475.7909471119779,44.127678646770505 L469.9037797252499,39.87334328216127 M469.9037797252499,39.87334328216127 L465.9884645088579,34.946018115599145 M465.9884645088579,34.946018115599145 L464.271988737882,29.632416804844524 M464.271988737882,29.632416804844524 L464.85332610227516,24.24151458422955 M464.85332610227516,24.24151458422955 L467.6978627483041,19.08655177529124 M467.6978627483041,19.08655177529124 L472.6395980034676,14.466848002946222 M472.6395980034676,14.466848002946222 L479.39094541271595,10.650464875192029 M479.39094541271595,10.650464875192029 L487.5595434989238,7.8587231984575965 M487.5595434989238,7.8587231984575965 L496.6710517371897,6.253452370584569 M496.6710517371897,6.253452370584569 L506.1966283546689,5.927676209948345 M506.1966283546689,5.927676209948345 L515.5835137689767,6.900270136267864 M515.5835137689767,6.900270136267864 L524.2869558798002,9.114877741351506 M524.2869558798002,9.114877741351506 L531.8016934935795,12.443148428687778 M531.7452721814708,192.95548076581045 L531.8016934935795,12.443148428687778" stroke="black"  stroke-width="4"  fill="red"/></svg>